<svg width="20" height="20" viewBox="0 0 20 20" fill="none" xmlns="http://www.w3.org/2000/svg">
<rect width="20" height="20" rx="4.33" fill="#371B1B"/>
<mask id="mask0_454_3737" style="mask-type:luminance" maskUnits="userSpaceOnUse" x="0" y="0" width="20" height="20">
<rect width="20" height="20" rx="10" fill="white"/>
</mask>
<g mask="url(#mask0_454_3737)">
<rect width="20" height="20" rx="10" fill="#13152B"/>
<path d="M18.6265 18.9891C18.6237 18.9828 18.6212 18.968 18.6212 18.9559C18.6212 18.9251 18.606 18.8184 18.5885 18.7269C18.5847 18.7075 18.5777 18.6704 18.573 18.6445C18.5681 18.6186 18.5624 18.5909 18.5602 18.5828C18.5579 18.5747 18.5546 18.5588 18.5529 18.5474C18.5512 18.5361 18.5479 18.5202 18.5457 18.5122C18.5418 18.4982 18.5343 18.4687 18.5181 18.4033C18.4969 18.3181 18.4382 18.1039 18.4294 18.0797C18.427 18.0734 18.4211 18.0534 18.4164 18.0357C18.4116 18.0179 18.4042 17.9927 18.3999 17.9798C18.3863 17.9385 18.3793 17.9165 18.3575 17.8475C18.3458 17.8102 18.3335 17.7719 18.33 17.7621C18.3265 17.7523 18.3202 17.7339 18.3159 17.7209C18.2995 17.6705 18.2906 17.6439 18.2863 17.6327C18.2839 17.6262 18.2739 17.5958 18.264 17.5651C18.2543 17.5343 18.2442 17.5038 18.2418 17.4974C18.2394 17.4909 18.2339 17.475 18.2297 17.462C18.2137 17.4139 18.1897 17.3438 18.1824 17.3238C18.1727 17.2979 18.1699 17.29 18.151 17.2355C18.1217 17.1509 18.0884 17.056 18.081 17.0355C18.0768 17.0242 18.0715 17.0096 18.0691 17.0032C18.0399 16.9214 18.0095 16.838 17.9997 16.812C17.9928 16.7942 17.9849 16.7731 17.982 16.7649C17.9704 16.7329 17.9521 16.6833 17.9403 16.6523C17.9359 16.6404 17.9321 16.6294 17.9321 16.6277C17.9321 16.626 17.9252 16.6065 17.9167 16.5844C17.9081 16.5624 17.8991 16.5391 17.8967 16.5326C17.8942 16.5261 17.8853 16.5027 17.8768 16.4806C17.8683 16.4585 17.8612 16.4393 17.8612 16.4379C17.8612 16.4365 17.8546 16.4188 17.8465 16.3985C17.8383 16.3784 17.826 16.3474 17.8192 16.3296C17.8123 16.3118 17.8008 16.2819 17.7935 16.2632C17.7861 16.2445 17.7742 16.2128 17.767 16.1927C17.7597 16.1725 17.7459 16.1367 17.7365 16.113C17.7272 16.0892 17.7194 16.0687 17.7194 16.0674C17.7194 16.066 17.7091 16.0395 17.6966 16.0087C17.684 15.9777 17.6738 15.9514 17.6738 15.9501C17.6738 15.948 17.6527 15.8945 17.6156 15.803C17.5955 15.7533 17.5741 15.6997 17.5521 15.6442C17.5432 15.6215 17.5317 15.5927 17.5263 15.5799C17.5211 15.5672 17.5167 15.5546 17.5167 15.5519C17.5167 15.5465 17.4983 15.4995 17.456 15.3972C17.4399 15.3583 17.4171 15.3028 17.4053 15.2736C17.3831 15.2191 17.3306 15.0927 17.2548 14.9118C17.2082 14.8007 17.0758 14.4921 17.0238 14.3735C17.0153 14.3541 16.9754 14.2628 16.9353 14.1705C16.8075 13.8768 16.781 13.8209 16.7568 13.794C16.7466 13.7826 16.7089 13.7566 16.6728 13.7361C16.5933 13.6908 16.5909 13.6895 16.5123 13.6552C16.5005 13.65 16.4833 13.6421 16.4741 13.6375C16.4649 13.633 16.4537 13.6293 16.4489 13.6293C16.4443 13.6293 16.4312 13.6257 16.4199 13.6211C16.3647 13.5989 16.331 13.5921 16.2248 13.5822C16.1415 13.5743 15.8996 13.5744 15.8194 13.5823C15.7845 13.5859 15.7332 13.5908 15.7053 13.5935C15.6775 13.5962 15.6341 13.6015 15.6092 13.6051C15.5087 13.6197 15.4759 13.6245 15.444 13.6289C15.4256 13.6315 15.3994 13.6364 15.3858 13.64C15.372 13.6434 15.346 13.6494 15.3279 13.6533C15.2631 13.6673 15.254 13.6694 15.2215 13.6782C15.2034 13.6831 15.1624 13.6954 15.1303 13.7055C15.0982 13.7155 15.064 13.7262 15.0542 13.7291C15.031 13.7359 14.9932 13.7515 14.9821 13.7587C14.9773 13.762 14.9689 13.7647 14.9635 13.7647C14.958 13.7647 14.9522 13.7671 14.9507 13.77C14.9491 13.773 14.9404 13.7773 14.9315 13.7797C14.9226 13.7819 14.9118 13.786 14.9075 13.7887C14.9032 13.7914 14.8792 13.8032 14.8541 13.8146C14.829 13.8262 14.8028 13.8386 14.7959 13.8421C14.7669 13.857 14.7476 13.8664 14.6413 13.9178C14.58 13.9474 14.5277 13.974 14.5251 13.977C14.5224 13.9798 14.5175 13.9822 14.5142 13.9822C14.5088 13.9822 14.4814 13.9964 14.3829 14.0499C14.3691 14.0575 14.345 14.0701 14.3297 14.0781C14.2813 14.1031 14.2519 14.1185 14.2254 14.133C14.2112 14.1406 14.1981 14.147 14.1962 14.147C14.1926 14.147 14.1327 14.1779 14.1102 14.1913C14.1023 14.1961 14.0939 14.1999 14.0913 14.1999C14.0889 14.1999 14.0748 14.2063 14.0601 14.2142C14.0299 14.2302 13.8724 14.305 13.823 14.3266C13.7959 14.3385 13.7378 14.3623 13.7038 14.3755C13.6869 14.382 13.6675 14.3899 13.6607 14.393C13.6539 14.3961 13.6346 14.4033 13.6179 14.409C13.6011 14.4148 13.5783 14.4227 13.5672 14.4268C13.5472 14.4341 13.503 14.4484 13.4684 14.4588C13.4586 14.4617 13.4382 14.468 13.4228 14.4727C13.4074 14.4775 13.3789 14.4857 13.3594 14.491C13.3399 14.4962 13.3114 14.5041 13.2962 14.5085C13.2594 14.5191 13.2011 14.534 13.1821 14.5377C13.1738 14.5392 13.1498 14.5446 13.1289 14.5497C13.0695 14.564 13.0082 14.5765 12.9668 14.5827C12.9459 14.5858 12.9254 14.5899 12.9211 14.5919C12.917 14.5939 12.8987 14.5976 12.8807 14.5998C12.8625 14.6022 12.8318 14.6072 12.8123 14.6107C12.7103 14.6293 12.6681 14.6355 12.647 14.6354C12.6341 14.6354 12.6113 14.638 12.5963 14.6416C12.5645 14.6488 12.5046 14.6542 12.2954 14.6686C12.0793 14.6835 11.673 14.6833 11.462 14.6685C11.377 14.6625 11.2926 14.6566 11.2745 14.6553C11.2364 14.6528 11.1071 14.6373 11.0515 14.6288C11.0307 14.6256 10.996 14.6206 10.9744 14.6178C10.9528 14.615 10.9333 14.6111 10.9309 14.6094C10.9286 14.6079 10.9098 14.6036 10.8891 14.6004C10.849 14.5939 10.8011 14.5831 10.7476 14.5687C10.6704 14.548 10.6372 14.5395 10.6145 14.535C10.6012 14.5323 10.5829 14.5275 10.5739 14.5244C10.5649 14.5211 10.5393 14.5142 10.517 14.5088C10.4947 14.5034 10.4685 14.4965 10.4587 14.4934C10.449 14.4903 10.4296 14.4853 10.4157 14.4823C10.4017 14.4795 10.3767 14.4733 10.36 14.4685C10.3432 14.4636 10.3091 14.4542 10.284 14.4472C10.2588 14.4402 10.2268 14.4307 10.2125 14.426C10.1984 14.4215 10.181 14.4176 10.1739 14.4176C10.1668 14.4176 10.1514 14.4137 10.1395 14.4087C10.1277 14.4039 10.1102 14.3999 10.1005 14.3999C10.091 14.3999 10.0787 14.3973 10.0733 14.3939C10.0679 14.3905 10.0492 14.3852 10.0318 14.3823C9.95696 14.3692 9.92819 14.3636 9.9115 14.3583C9.88298 14.3496 9.76256 14.3404 9.61009 14.3355C9.53209 14.333 9.45567 14.3279 9.44032 14.3241C9.42496 14.3201 9.39534 14.313 9.3745 14.3081C9.35354 14.3031 9.32734 14.2963 9.31625 14.2929C9.29504 14.2864 9.26457 14.2808 9.19205 14.27C9.13367 14.2614 8.83422 14.2617 8.79181 14.2704C8.77365 14.2741 8.74244 14.2795 8.72233 14.2823C8.70223 14.2852 8.67724 14.2901 8.66664 14.2934C8.65603 14.2965 8.62057 14.3064 8.58778 14.3153L8.52818 14.3316L8.51429 14.3195C8.50454 14.3112 8.50003 14.3014 8.49893 14.2867C8.49759 14.2687 8.49979 14.2638 8.51417 14.2517C8.52331 14.244 8.54452 14.2326 8.56121 14.2267C8.57803 14.2207 8.61106 14.2086 8.63471 14.1998C8.65835 14.191 8.70174 14.175 8.73099 14.1644C8.76024 14.1539 8.78644 14.1435 8.78925 14.1415C8.79205 14.1394 8.80801 14.1328 8.82471 14.127C8.86262 14.1137 9.07225 13.9924 9.09114 13.9729C9.09552 13.9684 9.10064 13.9647 9.10259 13.9647C9.10771 13.9647 9.16122 13.9219 9.23507 13.8587C9.27139 13.8277 9.31125 13.7944 9.3238 13.7848C9.34623 13.7675 9.4079 13.731 9.42764 13.7232C9.43325 13.7211 9.4458 13.7161 9.45555 13.7121C9.48358 13.7008 9.52722 13.687 9.54928 13.6824C9.56037 13.6802 9.57865 13.6753 9.58986 13.6719C9.60095 13.6684 9.63179 13.6612 9.65823 13.656C9.68468 13.6507 9.71893 13.6438 9.73416 13.6407C9.78389 13.6306 9.82216 13.6234 9.85836 13.6176C9.87786 13.6143 9.90406 13.6092 9.91662 13.6063C9.96342 13.5948 10.001 13.5866 10.0256 13.5823C10.0395 13.5801 10.0612 13.5751 10.0737 13.5716C10.0863 13.568 10.1147 13.5607 10.137 13.5553C10.2075 13.5383 10.2429 13.5293 10.2612 13.5236C10.2709 13.5206 10.2948 13.5141 10.3143 13.5092C10.3338 13.5043 10.3657 13.4961 10.3852 13.4912C10.4047 13.4862 10.4298 13.4821 10.4411 13.4821C10.4521 13.482 10.4749 13.4782 10.4916 13.4735C10.5085 13.4688 10.5334 13.4649 10.5475 13.4646C10.5613 13.4644 10.5818 13.4616 10.593 13.4583C10.6041 13.4552 10.6373 13.45 10.6665 13.4469C10.6958 13.4438 10.7403 13.4384 10.7653 13.4351C10.7919 13.4316 10.9225 13.4296 11.0795 13.4305C11.4601 13.4322 11.6669 13.4302 11.7837 13.4234C11.8395 13.4201 11.933 13.4146 11.9915 13.4111C12.05 13.4077 12.1434 13.4026 12.1991 13.3997C12.255 13.3971 12.3108 13.392 12.3233 13.3886C12.3359 13.3853 12.3644 13.3823 12.3866 13.382C12.4089 13.3818 12.4386 13.3791 12.4525 13.376C12.4664 13.3728 12.5007 13.3678 12.5285 13.3646C12.5564 13.3615 12.5883 13.3563 12.5995 13.353C12.6106 13.3498 12.63 13.3471 12.6425 13.3469C12.6551 13.3469 12.6732 13.3443 12.683 13.3411C12.6927 13.338 12.7191 13.3328 12.7414 13.3294C12.7636 13.326 12.8023 13.3195 12.8274 13.315C12.8525 13.3104 12.8902 13.3038 12.911 13.3004C12.932 13.297 12.9593 13.2916 12.9718 13.2885C13.0021 13.2811 13.0584 13.2704 13.096 13.265C13.1127 13.2624 13.1378 13.2576 13.1517 13.2541C13.1859 13.2455 13.2374 13.2343 13.2683 13.2287C13.2821 13.2263 13.3153 13.22 13.3417 13.2147C13.3682 13.2095 13.4046 13.2027 13.4228 13.1997C13.441 13.1966 13.4659 13.1917 13.4785 13.1884C13.5008 13.1829 13.5594 13.172 13.595 13.1667C13.6048 13.1653 13.6322 13.1604 13.6558 13.1558C13.7407 13.1394 13.7756 13.1338 13.8205 13.129C13.8456 13.1263 13.8707 13.1226 13.8763 13.1207C13.8998 13.1131 14.1509 13.092 14.3348 13.0824C14.3975 13.079 14.4697 13.0736 14.4953 13.0704C14.5208 13.0672 14.5733 13.0645 14.6118 13.0644C14.6503 13.0644 14.7115 13.0603 14.7477 13.0553C14.8323 13.0437 15.0388 13.0419 15.0847 13.0524C15.1028 13.0565 15.1359 13.062 15.1582 13.0648C15.1978 13.0698 15.2435 13.0781 15.3355 13.0972C15.4271 13.1164 15.4629 13.1233 15.4976 13.129C15.5171 13.1321 15.541 13.1374 15.5508 13.1407C15.5605 13.1441 15.5765 13.1469 15.5862 13.1469C15.596 13.1469 15.6223 13.1506 15.6445 13.1553C15.6668 13.16 15.7125 13.1682 15.7459 13.1734C15.7793 13.1788 15.8146 13.1854 15.8244 13.1881C15.8341 13.191 15.8535 13.1948 15.8675 13.1969C15.8941 13.2009 15.9498 13.2147 15.9714 13.2228C15.9783 13.2255 15.9977 13.2321 16.0144 13.2378C16.0311 13.2435 16.054 13.2515 16.0651 13.2555C16.0762 13.2596 16.0991 13.2677 16.1158 13.2735C16.1325 13.2793 16.1533 13.2876 16.1621 13.2919C16.1709 13.2963 16.1805 13.2998 16.1836 13.2998C16.1915 13.2998 16.2812 13.3341 16.2918 13.341C16.2965 13.3443 16.304 13.3469 16.308 13.3469C16.3122 13.3469 16.323 13.3506 16.3323 13.3552C16.3414 13.3597 16.3591 13.368 16.3716 13.3737C16.4017 13.3874 16.458 13.4187 16.4958 13.4429C16.5618 13.4851 16.5852 13.5008 16.6028 13.5147C16.6196 13.528 16.6351 13.5337 16.6351 13.5264C16.6351 13.5239 16.6014 13.4566 16.5893 13.4351C16.5866 13.4303 16.5828 13.4224 16.581 13.4174C16.5792 13.4126 16.5643 13.3829 16.5481 13.3515C16.5319 13.32 16.5186 13.2929 16.5186 13.2909C16.5186 13.289 16.5095 13.2715 16.4983 13.2521C16.4872 13.2326 16.478 13.2156 16.478 13.2145C16.478 13.2122 16.4125 13.0831 16.4019 13.0645C16.3992 13.0597 16.3954 13.0517 16.3934 13.0469C16.3915 13.042 16.357 12.9745 16.3165 12.8968C16.2762 12.8192 16.2396 12.7482 16.2352 12.739C16.2254 12.7186 16.2207 12.7095 16.2031 12.6778C16.1955 12.6641 16.1893 12.6515 16.1893 12.6497C16.1893 12.6478 16.1867 12.6431 16.1838 12.6392C16.1808 12.6354 16.1626 12.6029 16.1435 12.5674C16.0813 12.4518 16.0605 12.4138 15.9967 12.2999C15.973 12.2576 15.9514 12.2183 15.9485 12.2128C15.9457 12.2072 15.9346 12.1868 15.924 12.1674C15.9132 12.148 15.8939 12.1128 15.8809 12.0893C15.7977 11.9377 15.5816 11.5652 15.5131 11.4555C15.4991 11.4329 15.4697 11.3839 15.4479 11.3467C15.3772 11.2256 15.3537 11.1877 15.2298 10.9945C15.1625 10.8896 15.0926 10.7806 15.0746 10.7523C15.0333 10.6877 14.9695 10.5908 14.9353 10.5407C14.8284 10.3843 14.727 10.2368 14.7226 10.2314C14.7197 10.228 14.7117 10.2165 14.7047 10.206C14.6978 10.1957 14.6672 10.1521 14.6368 10.1095C14.6065 10.0668 14.5632 10.0053 14.5408 9.97305C14.4887 9.89803 14.4295 9.81748 14.3526 9.71698C14.3191 9.67324 14.2769 9.61761 14.2589 9.59341C14.2407 9.5692 14.2247 9.54811 14.2233 9.54655C14.2219 9.54485 14.1934 9.50777 14.16 9.46417C14.1265 9.42057 14.0853 9.36763 14.0684 9.34654C14.0514 9.32545 14.0276 9.29501 14.0152 9.27888C13.9904 9.24618 13.9416 9.18503 13.9143 9.15219C13.9046 9.14044 13.852 9.07688 13.7977 9.01078C13.6128 8.78613 13.5378 8.70092 13.5165 8.69045C13.4574 8.66157 13.367 8.6259 13.2936 8.60268C13.2769 8.59745 13.2563 8.59065 13.248 8.58768C13.2396 8.58471 13.2123 8.57692 13.1872 8.57013C13.1621 8.56347 13.1325 8.55555 13.1213 8.55243C13.1102 8.54946 13.0885 8.5455 13.0732 8.54366C13.0579 8.54182 13.0351 8.53785 13.0225 8.53488C12.9241 8.51152 12.9036 8.50954 12.792 8.51266C12.6455 8.51648 12.5261 8.53177 12.4119 8.56121C12.3924 8.56616 12.3662 8.57282 12.3537 8.57593C12.3411 8.57919 12.3252 8.584 12.3182 8.58669C12.3113 8.58952 12.293 8.59617 12.2778 8.60141C12.2486 8.6116 12.125 8.6586 12.0598 8.6845C12.039 8.69271 12.0179 8.70205 12.013 8.70531C12.0082 8.70856 12.0001 8.71111 11.995 8.71111C11.9899 8.71111 11.9813 8.71493 11.976 8.71975C11.9705 8.72456 11.9616 8.72852 11.956 8.72881C11.9504 8.72895 11.9414 8.73305 11.936 8.73772C11.9306 8.74254 11.9224 8.74636 11.9177 8.74636C11.91 8.74636 11.888 8.75669 11.866 8.77028C11.8613 8.7734 11.8548 8.7758 11.8519 8.7758C11.8489 8.7758 11.8358 8.78132 11.8227 8.78797C11.7997 8.79958 11.7929 8.80298 11.7571 8.82039C11.748 8.82478 11.7331 8.83214 11.7241 8.83681C11.715 8.84134 11.6986 8.84955 11.6875 8.85493C11.6603 8.86824 11.6528 8.87206 11.6123 8.89315C11.5933 8.90306 11.5766 8.91113 11.5751 8.91113C11.5737 8.91113 11.5578 8.91905 11.5397 8.92882C11.5216 8.93845 11.5041 8.94637 11.5007 8.94637C11.4972 8.94637 11.4923 8.94878 11.4896 8.95175C11.4869 8.95472 11.4699 8.96421 11.4518 8.97298C11.4163 8.99025 11.3824 9.00724 11.3581 9.01998C11.2987 9.05112 11.2735 9.06414 11.2719 9.06414C11.2709 9.06414 11.2503 9.07462 11.2263 9.08764C11.2023 9.10052 11.1817 9.11114 11.1805 9.11114C11.1793 9.11114 11.164 9.11878 11.1466 9.12798C11.1292 9.13718 11.1024 9.15077 11.087 9.15813C11.0717 9.16549 11.0467 9.17795 11.0313 9.18588C11.016 9.1938 10.9955 9.20428 10.9857 9.20909C10.9659 9.21886 10.9598 9.22197 10.9198 9.24236C10.9046 9.25028 10.8714 9.2667 10.8463 9.27902C10.8213 9.29119 10.7986 9.30351 10.796 9.3062C10.7933 9.30889 10.7883 9.31115 10.7847 9.31115C10.7812 9.31115 10.7629 9.31936 10.744 9.32955C10.725 9.3396 10.7027 9.35121 10.6943 9.35532C10.686 9.35942 10.6688 9.3682 10.6564 9.37485C10.6439 9.38136 10.6199 9.39368 10.6032 9.40217C10.5865 9.4108 10.5613 9.42383 10.5475 9.43119C10.4707 9.47224 10.4278 9.49489 10.3904 9.51456C10.3765 9.52178 10.251 9.59327 10.1116 9.67324C9.82362 9.83872 9.70455 9.90581 9.66079 9.92719C9.64397 9.93526 9.62118 9.94672 9.61009 9.95252C9.55537 9.98083 9.42338 10.0383 9.35415 10.0638C9.3277 10.0736 9.29918 10.0846 9.29089 10.0881C9.28249 10.0918 9.26774 10.0968 9.25799 10.0993C9.24824 10.1019 9.22191 10.1098 9.19961 10.1171C9.17743 10.1244 9.1511 10.1324 9.14135 10.135C9.1316 10.1375 9.10771 10.144 9.08821 10.1494C9.01362 10.1701 8.91892 10.1916 8.86956 10.1991C8.84958 10.2022 8.81996 10.2075 8.80375 10.2107C8.75171 10.2213 8.68967 10.2295 8.62459 10.2346C8.58973 10.2373 8.53501 10.2423 8.50295 10.2457C8.35305 10.2614 7.85383 10.2584 7.70746 10.2409C7.58229 10.2259 7.54439 10.2219 7.48345 10.2171C7.44786 10.2144 7.41666 10.2104 7.41386 10.2085C7.41117 10.2065 7.37973 10.2024 7.34414 10.1994C7.27711 10.1937 7.18217 10.1828 7.06407 10.1673C7.02641 10.1623 6.96937 10.1555 6.93731 10.1524C6.90526 10.1491 6.87345 10.1449 6.86638 10.1429C6.85943 10.1409 6.83091 10.1371 6.80313 10.1346C6.77522 10.132 6.72622 10.1271 6.69417 10.1237C6.66211 10.1201 6.58801 10.1133 6.52951 10.1085C6.39045 10.0972 6.3573 10.0942 6.29648 10.0877C6.19947 10.0775 6.08978 10.0808 5.92658 10.099C5.87174 10.1053 5.77241 10.122 5.76668 10.1262C5.76436 10.1278 5.74693 10.1317 5.72804 10.135C5.70903 10.1381 5.67746 10.1445 5.65796 10.149C5.63846 10.1535 5.60885 10.1602 5.59215 10.1637C5.57545 10.1673 5.55376 10.1726 5.54401 10.1755C5.53426 10.1783 5.50805 10.1852 5.48575 10.1906C5.46345 10.1961 5.43566 10.2029 5.42408 10.2059C5.3785 10.2174 5.37228 10.1913 5.41494 10.1678C5.43029 10.1593 5.4448 10.1524 5.44699 10.1524C5.44919 10.1524 5.47259 10.1416 5.49879 10.1285C5.56375 10.0958 5.57472 10.09 5.63017 10.0597C5.65662 10.0451 5.69989 10.0216 5.72646 10.0074C5.75291 9.99315 5.77801 9.97942 5.78216 9.97687C5.7863 9.97418 5.8069 9.96739 5.82774 9.96158C5.8487 9.95578 5.87149 9.94842 5.87844 9.94502C5.88539 9.94177 5.89904 9.93681 5.90879 9.93412C5.9395 9.92577 5.98594 9.91232 6.0253 9.90057C6.04627 9.89435 6.08161 9.88486 6.10391 9.87934C6.12622 9.87382 6.15693 9.86575 6.17229 9.86136C6.18764 9.85698 6.21385 9.85032 6.23054 9.8465C6.2626 9.83914 6.28198 9.83433 6.31927 9.82399C6.36339 9.81196 6.39496 9.80432 6.42409 9.79894C6.57156 9.7719 6.64834 9.75987 6.72451 9.75209C6.75657 9.74883 6.79082 9.74359 6.80057 9.74048C6.81032 9.73736 6.83201 9.73482 6.84871 9.73482C6.86541 9.73482 6.89843 9.73071 6.9222 9.7259C6.94584 9.72109 6.97595 9.71712 6.98899 9.71712C7.00215 9.71712 7.02385 9.71443 7.03713 9.71118C7.05054 9.70778 7.08539 9.70268 7.11465 9.69957C7.22348 9.6881 7.31989 9.67551 7.38826 9.66376C7.40922 9.66008 7.44116 9.65512 7.45919 9.65258C7.49893 9.64705 7.54768 9.63672 7.58704 9.6254C7.60313 9.62087 7.62202 9.61705 7.62921 9.61705C7.6364 9.61705 7.64689 9.61421 7.65249 9.61082C7.65798 9.60728 7.67321 9.60218 7.68625 9.59921C7.71697 9.59242 7.76352 9.57911 7.79875 9.56708C7.82726 9.55731 7.87078 9.54457 7.90904 9.53466C7.92087 9.53169 7.935 9.52645 7.94037 9.52306C7.94573 9.5198 7.95524 9.51711 7.96157 9.51711C7.96791 9.51711 7.98242 9.51343 7.99363 9.50904C8.01764 9.49942 8.05274 9.48696 8.09515 9.47295C8.11185 9.46728 8.14951 9.45355 8.17876 9.44223C8.20801 9.43105 8.23872 9.41958 8.24713 9.41689C8.25542 9.41406 8.28394 9.40288 8.31051 9.39169C8.33696 9.38065 8.36316 9.36961 8.36877 9.36735C8.37425 9.36494 8.38339 9.36084 8.389 9.35829C8.39461 9.3556 8.41398 9.34753 8.43202 9.34031C8.45018 9.33295 8.46712 9.32474 8.4698 9.32205C8.47249 9.31922 8.4787 9.3171 8.48358 9.3171C8.48845 9.3171 8.50003 9.31342 8.50917 9.30889C8.51831 9.30436 8.53611 9.29601 8.54854 9.29034C8.56109 9.28482 8.57828 9.2769 8.58656 9.27293C8.59497 9.26883 8.61313 9.2609 8.62715 9.2551C8.64104 9.24929 8.65457 9.24236 8.65725 9.23967C8.65993 9.23684 8.6653 9.23471 8.6692 9.23471C8.6731 9.23471 8.68346 9.23103 8.69223 9.22664C8.70101 9.22226 8.71734 9.21461 8.72843 9.20966C8.76828 9.19196 8.82995 9.16295 8.83787 9.15813C8.84238 9.15559 8.86627 9.14355 8.89114 9.13166C8.91588 9.11977 8.94757 9.10406 8.96158 9.09684C8.97547 9.08962 9.00619 9.07363 9.02995 9.06131C9.08102 9.03484 9.19839 8.97001 9.23763 8.94665C9.31015 8.90334 9.42533 8.8344 9.50113 8.78897C9.65884 8.69427 9.80546 8.61033 9.88371 8.56984C9.8976 8.56277 9.92795 8.54649 9.95111 8.53389C9.97426 8.52143 9.99413 8.5111 9.99535 8.5111C9.99644 8.5111 10.0106 8.5043 10.0267 8.49595C10.0736 8.47161 10.0841 8.46651 10.1269 8.44627C10.1492 8.43579 10.1746 8.42362 10.1834 8.41909C10.1922 8.4147 10.2025 8.41102 10.2064 8.41102C10.2103 8.41102 10.2157 8.40876 10.2184 8.40578C10.2209 8.40295 10.2391 8.3946 10.2586 8.38724C10.2781 8.37988 10.2963 8.37167 10.2989 8.36898C10.3015 8.36629 10.3069 8.36403 10.3108 8.36403C10.3147 8.36403 10.325 8.36049 10.3338 8.3561C10.3426 8.35185 10.3578 8.3452 10.3676 8.34124C10.4141 8.32283 10.4897 8.29396 10.517 8.28419C10.5337 8.27825 10.5495 8.27131 10.5522 8.26862C10.5549 8.26607 10.5611 8.26395 10.566 8.26395C10.5709 8.26395 10.5858 8.25999 10.5991 8.25503C10.6125 8.25008 10.6348 8.24243 10.6487 8.2379C10.6628 8.23337 10.6866 8.22559 10.702 8.22063C10.7172 8.21568 10.7457 8.20733 10.7653 8.20209C10.7847 8.19685 10.8088 8.19006 10.8185 8.18709C10.8283 8.18411 10.8487 8.17902 10.8641 8.17562C10.8794 8.17222 10.908 8.16557 10.9275 8.1609C10.947 8.15623 10.9785 8.14972 10.9978 8.14646C11.0169 8.14321 11.0408 8.13797 11.0509 8.13471C11.061 8.13146 11.0773 8.12877 11.087 8.12877C11.0968 8.12891 11.1264 8.12495 11.1529 8.12027C11.2167 8.10881 11.2854 8.09932 11.3505 8.09295C11.3798 8.09012 11.43 8.08531 11.462 8.08205C11.5378 8.07469 11.926 8.07455 11.9915 8.08191C12.0192 8.08503 12.0581 8.08899 12.0776 8.09055C12.1111 8.09352 12.1611 8.10145 12.2473 8.1173C12.32 8.13075 12.3363 8.13415 12.3715 8.14306C12.391 8.14788 12.4195 8.15495 12.4347 8.15863C12.4501 8.16231 12.4667 8.16755 12.4714 8.17052C12.4763 8.17336 12.4846 8.17576 12.4898 8.17576C12.4952 8.17576 12.5105 8.17944 12.5242 8.18411C12.5377 8.18864 12.5636 8.19685 12.5817 8.20223C12.6169 8.21271 12.6412 8.22049 12.7464 8.2556C12.7631 8.26126 12.7859 8.26919 12.7971 8.27315C12.8082 8.27726 12.831 8.2849 12.8478 8.29028C12.8645 8.29566 12.882 8.30245 12.8869 8.30557C12.8918 8.30854 12.8995 8.31109 12.9038 8.31109C12.9083 8.31109 12.9192 8.31462 12.928 8.31915C12.9367 8.32354 12.9543 8.33175 12.9668 8.33741C12.9793 8.34322 12.997 8.35157 13.006 8.3561C13.015 8.36063 13.031 8.36856 13.0414 8.37379C13.0519 8.37903 13.0645 8.38568 13.0693 8.38837C13.0741 8.3912 13.0807 8.39347 13.084 8.39347C13.093 8.39347 13.2865 8.48944 13.3639 8.53233C13.4172 8.56192 13.405 8.54408 13.2728 8.3997C13.2508 8.37578 13.1931 8.31222 13.1445 8.25857C13.096 8.20492 13.0539 8.15835 13.0508 8.1551C13.0478 8.15198 13.0213 8.1241 12.9922 8.09338C12.9371 8.03548 12.9227 8.02062 12.8751 7.97221C12.8065 7.90257 12.7816 7.87794 12.769 7.8669C12.7616 7.86038 12.7398 7.83901 12.7205 7.81919C12.6252 7.72124 12.3896 7.49249 12.3365 7.4462C12.3235 7.43488 12.3097 7.42256 12.306 7.4186C12.3022 7.41478 12.2676 7.38378 12.229 7.34995C12.1902 7.31597 12.1265 7.2595 12.0871 7.22453C12.0479 7.18957 11.9829 7.13196 11.9428 7.09657C11.9026 7.06104 11.8668 7.02862 11.8631 7.02438C11.8595 7.02013 11.8517 7.01376 11.8459 7.01022C11.8402 7.00668 11.8096 6.98149 11.7781 6.95431C11.7464 6.92727 11.7192 6.90505 11.7174 6.90505C11.7157 6.90505 11.7055 6.89712 11.6951 6.88735C11.6845 6.87773 11.6735 6.86966 11.6707 6.86966C11.6678 6.86966 11.6647 6.86768 11.6637 6.86527C11.6624 6.86173 11.4857 6.72174 11.4391 6.68734C11.4253 6.67715 11.1472 6.46185 11.1265 6.44529C11.1189 6.43934 11.1115 6.43439 11.1099 6.43439C11.1085 6.43439 11.0941 6.4242 11.0781 6.41188C11.0453 6.3864 11.008 6.3588 10.9283 6.30076C10.8982 6.27882 10.8682 6.25688 10.8618 6.25207C10.8553 6.24712 10.8301 6.22857 10.8058 6.21088C10.7815 6.19304 10.7564 6.1745 10.7499 6.16969C10.7183 6.14605 10.6376 6.08971 10.6301 6.08617C10.6255 6.08391 10.6129 6.0757 10.6023 6.06805C10.5789 6.05092 10.5453 6.02898 10.4942 5.99756C10.4734 5.98454 10.4493 5.96939 10.4411 5.96373C10.4326 5.95807 10.4144 5.94618 10.4005 5.93726C10.3754 5.92112 10.3644 5.91418 10.2814 5.86167C10.2578 5.84666 10.235 5.8318 10.2307 5.82869C10.2266 5.82557 10.2129 5.81694 10.2003 5.80958C10.1878 5.80222 10.1639 5.78693 10.1471 5.77546C10.1304 5.76414 10.1065 5.74857 10.0939 5.74107C10.0534 5.71658 10.0196 5.69534 9.99693 5.68006C9.93368 5.63688 9.62655 5.45329 9.39729 5.32136C9.35183 5.29518 9.32075 5.27706 9.29089 5.25908C9.27213 5.2479 9.24178 5.23148 9.17182 5.19482C9.15646 5.18675 9.13258 5.17387 9.11856 5.16622C9.08919 5.15023 9.04787 5.13834 8.97669 5.1256C8.94891 5.12064 8.90783 5.11272 8.88553 5.10819C8.84543 5.09984 8.79132 5.08978 8.69296 5.07237C8.66517 5.06756 8.62861 5.06077 8.61191 5.05765C8.59522 5.0544 8.56328 5.04916 8.54098 5.04619C8.50625 5.04137 8.47054 5.03585 8.37121 5.02C8.31794 5.01151 8.18485 4.99834 8.10393 4.99353C7.94073 4.98405 7.62836 4.99891 7.48966 5.02269C7.38924 5.03996 7.34646 5.04845 7.31489 5.05751C7.30087 5.06147 7.27577 5.06869 7.25907 5.07351C7.20849 5.08809 7.14256 5.11088 7.11721 5.12248C7.1116 5.12517 7.09222 5.13324 7.07418 5.14046C7.05602 5.14782 7.03908 5.15589 7.0364 5.15872C7.03372 5.16141 7.02848 5.16368 7.0247 5.16368C7.02092 5.16368 7.00483 5.17061 6.98899 5.17896C6.97315 5.18731 6.92488 5.21138 6.88162 5.23219C6.83847 5.25299 6.79849 5.27239 6.79301 5.27508C6.78143 5.28074 6.72196 5.30848 6.6676 5.33354C6.6247 5.35335 6.56741 5.37912 6.54219 5.39002C6.53244 5.39426 6.51415 5.40219 6.5016 5.40785C6.48905 5.41337 6.46967 5.42201 6.45858 5.42682C6.44736 5.43163 6.43371 5.438 6.42811 5.44069C6.42262 5.44352 6.40666 5.45004 6.39264 5.45527C6.37875 5.46051 6.36047 5.4683 6.35218 5.47254C6.34377 5.47679 6.32329 5.48571 6.3066 5.49236C6.28978 5.49887 6.26357 5.50991 6.24834 5.51671C6.20202 5.53709 6.18642 5.54374 6.15205 5.55776C6.1339 5.56498 6.11695 5.57333 6.11427 5.57616C6.11159 5.57899 6.10623 5.5814 6.10233 5.5814C6.09843 5.5814 6.08697 5.5855 6.07673 5.5906C6.06662 5.59569 6.05138 5.60334 6.0431 5.60758C6.03469 5.61169 6.01762 5.6199 6.00507 5.62556C5.99252 5.63122 5.97509 5.63957 5.96631 5.64396C5.95754 5.64835 5.94913 5.65189 5.94767 5.65189C5.9462 5.65189 5.92938 5.6601 5.91049 5.67001C5.89148 5.68006 5.86905 5.69166 5.86065 5.69591C5.81567 5.7187 5.77582 5.74064 5.69343 5.78778C5.60446 5.83888 5.58752 5.84935 5.49842 5.90781C5.47478 5.92339 5.44845 5.94051 5.44017 5.94575C5.43176 5.95099 5.41177 5.96514 5.39568 5.97718C5.37959 5.98921 5.3646 5.99897 5.36229 5.99897C5.35997 5.99897 5.34912 6.00648 5.33828 6.01554C5.32743 6.02459 5.31512 6.03394 5.31098 6.0362C5.30671 6.03847 5.29647 6.04554 5.28819 6.05206C5.27978 6.05843 5.26954 6.0655 5.26539 6.06777C5.26113 6.06989 5.23956 6.08546 5.21725 6.10231C5.19495 6.11901 5.16875 6.13784 5.159 6.14406C5.14912 6.15029 5.13145 6.16261 5.11963 6.17138C5.10768 6.1803 5.05065 6.22064 4.99288 6.26099C4.93511 6.30147 4.8844 6.33714 4.88026 6.34026C4.87612 6.34351 4.86783 6.34861 4.8621 6.35158C4.85625 6.35455 4.83626 6.36772 4.81762 6.38088C4.79897 6.39419 4.78264 6.40495 4.7813 6.40495C4.77983 6.40495 4.76984 6.41146 4.75911 6.41938C4.74827 6.42731 4.71244 6.45038 4.67941 6.47063C4.64638 6.49087 4.59885 6.52017 4.57374 6.5356C4.54863 6.55103 4.52474 6.56532 4.52048 6.56745C4.51633 6.56957 4.48781 6.58514 4.45722 6.60213C4.35704 6.65776 4.30256 6.68734 4.30037 6.68734C4.29927 6.68734 4.28355 6.69527 4.26551 6.70504C4.24735 6.71466 4.23138 6.72259 4.2298 6.72259C4.22651 6.72259 4.17508 6.74878 4.15399 6.76123C4.14619 6.7659 4.13705 6.76973 4.13376 6.76973C4.13047 6.76973 4.12218 6.77312 4.11523 6.77737C4.10817 6.78147 4.0911 6.78968 4.07721 6.79535C4.06331 6.80115 4.04735 6.80823 4.04174 6.8112C4.02114 6.82196 3.86514 6.88127 3.81883 6.89599C3.80481 6.90052 3.78324 6.90731 3.77069 6.91142C3.75813 6.91538 3.73875 6.92062 3.72754 6.92317C3.71645 6.92557 3.68903 6.93209 3.66672 6.93746C3.48634 6.98106 3.28525 6.99904 3.10109 6.988C2.94435 6.97851 2.76848 6.94313 2.65343 6.89811C2.64502 6.89472 2.63028 6.8899 2.62053 6.88707C2.61077 6.88438 2.59079 6.87787 2.57616 6.87278C2.50559 6.84786 2.45294 6.83102 2.41809 6.82238C2.40565 6.81927 2.38859 6.81403 2.38006 6.81092C2.32704 6.79096 2.31425 6.78742 2.29731 6.78728C2.27427 6.78728 2.24697 6.76888 2.24051 6.74906C2.2349 6.73207 2.24014 6.71226 2.2538 6.69852C2.26391 6.68847 2.34301 6.6579 2.35873 6.6579C2.36397 6.6579 2.37421 6.65436 2.38152 6.64997C2.38896 6.64558 2.40297 6.63794 2.41272 6.63299C2.4332 6.62265 2.50096 6.58387 2.53436 6.56348C2.56105 6.54721 2.72961 6.42901 2.76129 6.40424C2.77336 6.3949 2.78457 6.38725 2.78628 6.38725C2.78799 6.38725 2.79298 6.38357 2.79749 6.37918C2.80517 6.37126 3.04003 6.20493 3.04344 6.20493C3.04442 6.20493 3.06075 6.19304 3.07988 6.17846C3.0989 6.16388 3.11632 6.15199 3.11864 6.15199C3.12096 6.15199 3.1301 6.14562 3.13887 6.13798C3.14777 6.13019 3.16642 6.11689 3.18043 6.10839C3.19433 6.0999 3.21712 6.08518 3.23101 6.0757C3.24503 6.06635 3.2655 6.05276 3.27659 6.04554C3.30877 6.02488 3.32498 6.01426 3.334 6.00775C3.33875 6.00449 3.38238 5.97633 3.43113 5.94504C3.50938 5.89493 3.57142 5.85884 3.74789 5.76074C3.82297 5.71913 4.15082 5.52945 4.18361 5.50878C4.2003 5.4983 4.23614 5.4758 4.26332 5.45895C4.29037 5.44211 4.33486 5.41337 4.36216 5.39511C4.38934 5.37685 4.41505 5.35987 4.4192 5.35732C4.42334 5.35477 4.44406 5.34062 4.46527 5.32589C4.48635 5.31103 4.505 5.299 4.50683 5.299C4.50853 5.299 4.53632 5.28046 4.56862 5.25781C4.60092 5.23516 4.62846 5.21662 4.6298 5.21662C4.63114 5.21662 4.64065 5.21039 4.65113 5.20274C4.66149 5.19524 4.68477 5.17967 4.70293 5.1682C4.74339 5.14273 4.78849 5.11399 4.822 5.09219C4.84821 5.07521 5.01603 4.97824 5.04748 4.96196C5.10708 4.93111 5.12365 4.92275 5.14754 4.91143C5.16216 4.90463 5.18605 4.89331 5.20068 4.88637C5.21518 4.87958 5.23858 4.86925 5.2526 4.86373C5.30269 4.84377 5.37472 4.81645 5.40214 4.80696C5.4175 4.80173 5.43554 4.79493 5.44236 4.79182C5.44919 4.78885 5.46406 4.78403 5.47527 4.7812C5.4866 4.77837 5.50952 4.77172 5.52633 4.76634C5.57155 4.75204 5.67795 4.72501 5.71378 4.71878C5.72207 4.71736 5.74827 4.71241 5.77204 4.70788C5.8264 4.69726 5.92463 4.68183 5.95437 4.67914C5.96692 4.67801 6.00568 4.67405 6.04054 4.67051C6.18435 4.6555 6.33061 4.65027 6.50416 4.6538C6.7077 4.65805 6.86382 4.6664 6.89685 4.6749C6.9094 4.67815 6.9311 4.68084 6.94499 4.68098C6.95901 4.68112 6.97839 4.6841 6.98801 4.68749C6.99776 4.69089 7.02519 4.69613 7.04883 4.69896C7.07248 4.70165 7.10782 4.70703 7.12732 4.71071C7.18363 4.72118 7.25432 4.73322 7.31733 4.74312C7.38131 4.75317 7.42166 4.75983 7.47955 4.77002C7.50039 4.77356 7.53342 4.77865 7.55292 4.7812C7.5868 4.78559 7.61556 4.79054 7.69478 4.80541C7.71441 4.80909 7.74853 4.81404 7.77084 4.81631C7.79314 4.81871 7.82507 4.82381 7.84177 4.82749C7.85847 4.83131 7.90978 4.83839 7.95572 4.8432C8.00179 4.84816 8.05079 4.85467 8.06468 4.85764C8.0787 4.86061 8.11173 4.86726 8.13818 4.87222C8.22532 4.88892 8.31148 4.90747 8.38644 4.92558C8.4046 4.92997 8.42617 4.93521 8.43458 4.93719C8.46286 4.94384 8.51051 4.95687 8.53842 4.9655C8.55378 4.97031 8.59363 4.98263 8.62715 4.99296C8.66054 5.00344 8.69589 5.01405 8.70564 5.01674C8.71539 5.01943 8.74159 5.02736 8.7639 5.03444C8.7862 5.04152 8.8124 5.04944 8.82215 5.05213C8.8319 5.05496 8.8536 5.06147 8.87029 5.06671C8.92819 5.08483 8.9394 5.08738 8.9444 5.08384C8.95012 5.07973 8.9405 5.0636 8.93221 5.0636C8.92941 5.0636 8.91429 5.0568 8.89869 5.04831C8.88309 5.03982 8.86237 5.02878 8.85262 5.02382C8.84287 5.01873 8.80692 4.99919 8.77267 4.98037C8.73842 4.9614 8.70942 4.94597 8.7082 4.94597C8.70698 4.94597 8.69394 4.9396 8.67919 4.93167C8.66444 4.92374 8.63422 4.90902 8.61191 4.89883C8.58961 4.8885 8.5645 4.87661 8.55622 4.87236C8.54781 4.86797 8.53184 4.86019 8.52075 4.85481C8.50954 4.84957 8.49589 4.84278 8.49028 4.83995C8.4848 4.83711 8.45969 4.82537 8.43458 4.81376C8.40947 4.80215 8.38327 4.78969 8.37632 4.78616C8.36938 4.78248 8.35573 4.77568 8.34598 4.77087C8.33623 4.76606 8.32172 4.75855 8.3138 4.75402C8.306 4.74964 8.29759 4.74595 8.29515 4.74595C8.29284 4.74595 8.27614 4.73803 8.2581 4.72826C8.23994 4.71864 8.22312 4.71071 8.22056 4.71071C8.218 4.71071 8.20009 4.70179 8.18083 4.69089C8.16158 4.67999 8.1333 4.66513 8.11794 4.65777C8.10259 4.65055 8.08321 4.64121 8.0748 4.6371C8.06651 4.63314 8.03348 4.6187 8.00143 4.60511C7.96937 4.59152 7.93452 4.57666 7.92416 4.57199C7.91368 4.56732 7.89661 4.55996 7.88613 4.55543C7.85603 4.54254 7.82288 4.5274 7.80557 4.51862C7.7968 4.51423 7.78607 4.5107 7.7818 4.5107C7.77754 4.5107 7.77279 4.50829 7.7712 4.50546C7.76974 4.50263 7.76328 4.49895 7.75694 4.49725C7.75073 4.49555 7.73293 4.48847 7.7177 4.48139C7.70234 4.47432 7.68406 4.46639 7.67711 4.46356C7.67016 4.46087 7.65188 4.45294 7.63653 4.44615C7.58546 4.42322 7.53878 4.40453 7.39338 4.34819C7.31392 4.31748 7.24445 4.29002 7.23884 4.28718C7.23323 4.28435 7.21385 4.27685 7.19582 4.27034C7.16462 4.25916 7.15133 4.25406 7.10965 4.23708C7.08759 4.22802 7.05054 4.21485 7.01081 4.20197C6.99411 4.19645 6.97473 4.1898 6.96778 4.18711C6.96084 4.18442 6.94146 4.17776 6.92476 4.17224C6.90794 4.16687 6.88515 4.15922 6.87406 4.15512C6.86285 4.15101 6.84005 4.14308 6.82336 4.13728C6.80666 4.13162 6.78692 4.12426 6.77948 4.12114C6.77205 4.11803 6.7584 4.11322 6.74901 4.11053C6.73975 4.10784 6.71964 4.10119 6.70428 4.09595C6.68893 4.09071 6.65017 4.07854 6.61812 4.06877C6.58606 4.05914 6.5473 4.04725 6.53207 4.0423C6.51671 4.03749 6.49429 4.03098 6.48234 4.028C6.47028 4.02503 6.45846 4.02121 6.45602 4.01937C6.45358 4.01767 6.44176 4.01371 6.42981 4.01059C6.40215 4.00351 6.35583 3.99021 6.31671 3.97803C6.26284 3.96119 6.22616 3.95114 6.19764 3.94534C6.18228 3.94222 6.1629 3.93713 6.15461 3.93401C6.1462 3.93104 6.09489 3.92566 6.04054 3.92212C5.88587 3.91221 5.81397 3.90627 5.76192 3.89947C5.69709 3.89098 5.31561 3.889 4.78654 3.89452C4.23419 3.90018 4.02724 3.89339 3.74022 3.86026C3.69427 3.85488 3.64527 3.84951 3.63126 3.84823C3.61736 3.84696 3.57751 3.842 3.54265 3.83719C3.40981 3.81879 3.38628 3.81596 3.32352 3.81058C3.28793 3.80746 3.24454 3.80223 3.22723 3.79897C3.2098 3.79572 3.18116 3.79303 3.16361 3.79303C3.14606 3.79288 3.11645 3.79019 3.0978 3.78694C3.07915 3.78368 3.03649 3.7783 3.0031 3.77505C2.96958 3.77165 2.91718 3.76514 2.88646 3.76061C2.85587 3.75608 2.81139 3.74971 2.78774 3.74646C2.74411 3.74051 2.70389 3.73315 2.64831 3.72112C2.63162 3.71744 2.60541 3.71277 2.59006 3.7105C2.56032 3.7064 2.51681 3.6972 2.46342 3.68403C2.44526 3.6795 2.42369 3.67455 2.41528 3.67313C2.407 3.67157 2.38299 3.66634 2.36214 3.66152C2.23149 3.63109 2.1647 3.61722 2.11851 3.61099C2.10011 3.60858 2.08243 3.60462 2.07902 3.60221C2.07573 3.59981 2.04514 3.59542 2.01101 3.59245C1.97701 3.58947 1.92753 3.58438 1.90108 3.58126C1.87451 3.57815 1.79822 3.57546 1.73131 3.57532C1.61223 3.57518 1.57323 3.57872 1.44757 3.60165C1.353 3.61878 1.3335 3.61878 1.3335 3.60108C1.3335 3.59655 1.33642 3.59287 1.33983 3.59287C1.34544 3.59287 1.44965 3.54899 1.47792 3.53469C1.48353 3.53186 1.4984 3.52478 1.51083 3.51898C1.52338 3.51318 1.56616 3.49039 1.60589 3.46831C1.64575 3.44622 1.68036 3.4281 1.68292 3.4281C1.68548 3.4281 1.70193 3.41678 1.7196 3.40277C1.73716 3.38875 1.76641 3.36568 1.78444 3.35138C1.81674 3.32605 1.91376 3.24522 1.92387 3.23531C1.9285 3.23078 1.96945 3.1961 2.02771 3.14727C2.08963 3.09546 2.23393 2.9958 2.29365 2.96353C2.31047 2.95447 2.33545 2.94145 2.34947 2.93437C2.36336 2.92729 2.37933 2.91908 2.38494 2.91611C2.3981 2.90889 2.4577 2.8837 2.49633 2.86912C2.51303 2.86275 2.53472 2.85454 2.54447 2.85071C2.55422 2.84689 2.57019 2.84165 2.57994 2.83925C2.58969 2.8367 2.61138 2.83033 2.62808 2.82509C2.67208 2.81122 2.72388 2.79947 2.76739 2.79324C2.78835 2.79027 2.81565 2.78503 2.8282 2.78149C2.84076 2.77796 2.91254 2.77357 2.98786 2.77173C3.16507 2.7672 3.35118 2.77753 3.47964 2.79905C3.49939 2.8023 3.53692 2.8074 3.56325 2.81037C3.58958 2.81334 3.63613 2.82 3.66672 2.82495C3.69744 2.83005 3.73168 2.83557 3.74278 2.83712C3.77166 2.84151 3.84844 2.85567 3.8872 2.86374C3.90536 2.86756 3.93376 2.87265 3.95058 2.87506C3.96727 2.87761 3.99458 2.88285 4.01127 2.88667C4.02809 2.89063 4.05771 2.89728 4.07721 2.90167C4.09671 2.90592 4.13096 2.91356 4.15314 2.91866C4.17544 2.92361 4.19994 2.92913 4.20762 2.93083C4.24199 2.93862 4.32194 2.95759 4.36094 2.96721C4.38044 2.97217 4.40798 2.97981 4.42212 2.98448C4.43638 2.98901 4.45308 2.99283 4.45929 2.99283C4.46551 2.99283 4.47465 2.99538 4.47965 2.99849C4.48465 3.00161 4.5011 3.00685 4.51609 3.0101C4.55107 3.01746 4.60092 3.03091 4.63955 3.04294C4.65637 3.04818 4.67794 3.05455 4.68769 3.05696C4.69744 3.0595 4.71341 3.06432 4.72316 3.06785C4.73291 3.07139 4.7546 3.07847 4.7713 3.08371C4.8916 3.12108 5.02188 3.17388 5.12097 3.2254C5.13486 3.23262 5.15765 3.24451 5.17155 3.25173C5.20823 3.2707 5.32853 3.34077 5.36412 3.3637C5.38081 3.37446 5.40714 3.39088 5.42237 3.40036C5.43773 3.4097 5.45711 3.42244 5.46552 3.42867C5.47381 3.43476 5.48404 3.44169 5.48831 3.44396C5.49477 3.4475 5.57143 3.49959 5.59471 3.51629C5.59885 3.51926 5.61823 3.53158 5.63773 3.54347C5.65723 3.5555 5.68124 3.57093 5.69099 3.57787C5.70818 3.59004 5.93402 3.72041 5.9696 3.73853C5.97935 3.74362 5.99337 3.75127 6.0008 3.75551C6.00824 3.7599 6.01909 3.76344 6.02494 3.76344C6.03517 3.76344 6.13182 3.80194 6.16607 3.81964C6.17533 3.82431 6.18606 3.82827 6.19008 3.82827C6.19398 3.82827 6.20471 3.83195 6.21397 3.83648C6.24505 3.85205 6.36229 3.89225 6.44846 3.91688C6.47077 3.92325 6.5005 3.93231 6.51476 3.93713C6.5289 3.94194 6.54487 3.9459 6.55023 3.94604C6.55559 3.94619 6.56437 3.95015 6.56973 3.95482C6.57509 3.95963 6.58582 3.9636 6.5935 3.9636C6.60117 3.9636 6.60897 3.96643 6.61092 3.97011C6.61336 3.97464 6.60715 3.97549 6.58972 3.97294C6.57607 3.97082 6.5473 3.9677 6.52573 3.96572C6.47759 3.96147 6.47259 3.97124 6.51805 3.9803C6.53548 3.98384 6.56571 3.99063 6.58521 3.99545C6.60471 4.00026 6.63177 4.00691 6.64517 4.01031C6.6587 4.01356 6.67918 4.01923 6.69075 4.02277C6.70246 4.0263 6.72439 4.03267 6.73975 4.03706C6.75511 4.04145 6.78241 4.04938 6.80057 4.05476C6.81873 4.05999 6.84712 4.06835 6.86394 4.0733C6.88064 4.07811 6.90233 4.08462 6.91208 4.0876C6.92183 4.09057 6.9389 4.09538 6.94999 4.09835C6.9612 4.10133 6.99764 4.11208 7.03116 4.12228C7.06455 4.13247 7.10112 4.14308 7.11245 4.14592C7.12379 4.14875 7.13853 4.15356 7.14536 4.15667C7.15218 4.15979 7.17254 4.16687 7.1907 4.17239C7.20886 4.17805 7.22933 4.1847 7.23628 4.18725C7.24323 4.18994 7.26151 4.19603 7.27687 4.20098C7.33183 4.21881 7.38095 4.23509 7.39338 4.23976C7.40033 4.24245 7.4208 4.24925 7.43896 4.25477C7.45712 4.26043 7.48101 4.26836 7.49222 4.2726C7.50331 4.27671 7.52732 4.28478 7.54536 4.29044C7.58302 4.30233 7.74158 4.36051 7.76828 4.37212C7.77803 4.3765 7.79862 4.38429 7.81386 4.38953C7.82921 4.39476 7.87943 4.41317 7.92538 4.43044C7.97132 4.4477 8.03287 4.47035 8.06224 4.48083C8.0915 4.4913 8.12257 4.50362 8.13135 4.50815C8.14012 4.51282 8.14988 4.5165 8.15292 4.5165C8.15597 4.5165 8.17035 4.52315 8.18473 4.53122C8.19924 4.53929 8.21313 4.54594 8.21569 4.54594C8.21813 4.54594 8.22739 4.54962 8.23616 4.55415C8.24506 4.55868 8.25676 4.56378 8.26237 4.56548C8.26785 4.56717 8.28504 4.57411 8.30027 4.58105C8.36036 4.60808 8.36913 4.61176 8.38144 4.61488C8.38839 4.61672 8.39631 4.61997 8.39912 4.62238C8.40192 4.62464 8.4213 4.63271 8.44214 4.64036C8.4631 4.64786 8.48236 4.65621 8.48504 4.65876C8.4876 4.66145 8.49296 4.66357 8.49686 4.66357C8.50076 4.66357 8.51112 4.66725 8.52002 4.67178C8.52879 4.67631 8.54049 4.68141 8.5461 4.68311C8.55158 4.6848 8.56877 4.69188 8.584 4.69896C8.59936 4.7059 8.61655 4.71297 8.62203 4.71467C8.62764 4.71637 8.63934 4.72147 8.64811 4.726C8.65689 4.73053 8.66737 4.73421 8.67127 4.73421C8.67517 4.73421 8.68041 4.73647 8.68309 4.7393C8.68577 4.74213 8.70271 4.75048 8.72087 4.75785C8.77438 4.7795 8.79144 4.78686 8.8007 4.7921C8.81496 4.80031 8.84324 4.81432 8.86786 4.82537C8.88029 4.83103 8.89747 4.8391 8.90576 4.8432C8.91417 4.84731 8.92672 4.85339 8.93367 4.85679C8.94062 4.86019 8.95768 4.86854 8.9717 4.87533C8.98559 4.88227 9.00265 4.89048 9.00972 4.89388C9.01667 4.89727 9.02874 4.90379 9.03666 4.90832C9.04458 4.91284 9.05311 4.91653 9.05567 4.91653C9.05823 4.91653 9.07566 4.92474 9.09455 4.93464C9.13148 4.95432 9.12965 4.95333 9.18949 4.98107C9.2118 4.99141 9.2369 5.00344 9.24531 5.00754C9.2536 5.01179 9.28102 5.02524 9.30613 5.03727C9.33111 5.0493 9.36877 5.06813 9.38962 5.07931C9.41058 5.09049 9.43447 5.10309 9.44288 5.10748C9.45129 5.11187 9.47749 5.12602 9.50113 5.13876C9.52478 5.15164 9.5533 5.16679 9.56451 5.17259C9.5756 5.17826 9.60302 5.19283 9.62533 5.20487C9.64751 5.21704 9.67944 5.23417 9.69626 5.24309C9.75549 5.27465 9.95123 5.38308 9.98499 5.40304C10.0944 5.46787 10.1907 5.52647 10.2066 5.53808C10.2252 5.55167 10.2459 5.55648 10.2459 5.54714C10.2459 5.53695 10.0509 5.31981 9.96476 5.23403C9.93404 5.20359 9.90784 5.17712 9.9065 5.17528C9.90504 5.1733 9.88346 5.15363 9.85836 5.13126C9.83325 5.10889 9.80132 5.08002 9.7873 5.06685C9.77329 5.05383 9.755 5.03713 9.74672 5.02991C9.73843 5.02255 9.72283 5.00868 9.71198 4.99891C9.70114 4.98928 9.6909 4.98121 9.68907 4.98121C9.68736 4.98121 9.68017 4.97513 9.67323 4.96748C9.65348 4.94639 9.48334 4.81022 9.42862 4.77186C9.39132 4.74581 9.38913 4.74411 9.35927 4.72161C9.34391 4.71 9.32344 4.69542 9.31369 4.68919C9.30394 4.68296 9.28626 4.67079 9.27456 4.66187C9.26274 4.6531 9.25202 4.64602 9.25068 4.64602C9.24946 4.64602 9.21618 4.62351 9.17682 4.59591C9.13757 4.56845 9.1043 4.54594 9.10308 4.54594C9.10174 4.54594 9.09187 4.53957 9.08126 4.53165C9.07054 4.52386 9.04153 4.50433 9.01679 4.48833C8.93696 4.43681 8.9316 4.43327 8.90259 4.41302C8.88687 4.40198 8.87273 4.39292 8.87103 4.39292C8.86932 4.39292 8.85311 4.38245 8.83483 4.36943C8.81667 4.35655 8.80082 4.34593 8.79973 4.34593C8.79863 4.34593 8.78035 4.33404 8.75914 4.31946C8.73794 4.30488 8.71953 4.29299 8.71831 4.29299C8.71697 4.29299 8.70113 4.28237 8.68285 4.26949C8.66469 4.25647 8.64872 4.24585 8.6475 4.24585C8.64567 4.24585 8.61996 4.22887 8.55877 4.18697C8.54561 4.17791 8.48138 4.13516 8.45238 4.11605C8.43702 4.106 8.41167 4.08873 8.39595 4.07769C8.38022 4.06665 8.36572 4.05759 8.36377 4.05759C8.36182 4.05759 8.35414 4.05277 8.34671 4.04683C8.33927 4.04088 8.31734 4.02588 8.29783 4.01356C8.27833 4.00125 8.24786 3.98101 8.23019 3.96855C8.2124 3.95609 8.1968 3.9459 8.19534 3.9459C8.19387 3.9459 8.17986 3.93684 8.16413 3.9258C8.14853 3.91476 8.12306 3.89763 8.10783 3.88744C8.07078 3.86309 8.01093 3.82318 8.00143 3.81638C7.96986 3.79416 7.89515 3.74306 7.88028 3.73357C7.87029 3.7272 7.85517 3.71673 7.84689 3.7105C7.83848 3.70413 7.82824 3.69705 7.8241 3.69493C7.81983 3.69267 7.80728 3.68403 7.79619 3.67582C7.78497 3.66761 7.77205 3.65813 7.76742 3.65473C7.76279 3.65147 7.73366 3.63024 7.70271 3.60759C7.67163 3.58494 7.64238 3.56371 7.63762 3.56031C7.63287 3.55706 7.61191 3.5412 7.59094 3.52507C7.5701 3.50893 7.55072 3.49449 7.54792 3.49294C7.54512 3.49124 7.53256 3.48218 7.52001 3.47269C7.49113 3.45089 7.33768 3.34346 7.32757 3.33794C7.3233 3.33567 7.30855 3.32605 7.29454 3.31642C7.26797 3.29802 7.13524 3.22101 7.09185 3.19865C7.05748 3.18095 7.01824 3.16015 6.97278 3.13566C6.95194 3.12433 6.91489 3.10466 6.89039 3.09192C6.83396 3.06219 6.73122 3.00062 6.64091 2.94201C6.62982 2.9348 6.6119 2.92333 6.60105 2.91654C6.59033 2.9096 6.56863 2.89431 6.55291 2.88256C6.53731 2.87067 6.51732 2.85638 6.50867 2.85086C6.49989 2.84519 6.47832 2.83005 6.46053 2.81702C6.44273 2.804 6.41446 2.78348 6.39776 2.7713C6.38106 2.75927 6.33085 2.72148 6.28624 2.68736C6.24176 2.65325 6.20142 2.62267 6.19678 2.61928C6.16388 2.59592 6.12329 2.56591 6.11915 2.56166C6.11196 2.55459 6.04492 2.50575 5.92658 2.42139C5.87076 2.38175 5.81811 2.34325 5.80958 2.33575C5.80093 2.32824 5.79239 2.32216 5.79057 2.32216C5.78874 2.32216 5.77228 2.31027 5.754 2.29569C5.73572 2.28111 5.71988 2.26922 5.71878 2.26922C5.71707 2.26922 5.6576 2.22194 5.56424 2.14635C5.5462 2.13163 5.4916 2.08534 5.44309 2.04344C5.2877 1.90939 5.09416 1.76274 5.00957 1.71518C4.96058 1.68772 4.95266 1.67994 4.96314 1.66989C4.96911 1.66408 4.97703 1.66578 5.00275 1.67824C5.02749 1.69027 5.16485 1.76798 5.21469 1.79799C5.28343 1.83961 5.59544 2.02518 5.7289 2.10388C5.78191 2.13517 5.83664 2.16617 5.85053 2.17296C5.91061 2.20226 5.93316 2.21288 5.95693 2.2235C5.99556 2.24062 6.07101 2.26922 6.0938 2.27516C6.10489 2.27814 6.1289 2.28451 6.14694 2.28932C6.25199 2.31735 6.36973 2.33065 6.59788 2.33999C6.66614 2.34282 6.72659 2.34651 6.73219 2.34835C6.73768 2.35019 6.77302 2.35429 6.81068 2.35755C6.91525 2.36646 7.03798 2.3918 7.13756 2.42507C7.15426 2.43059 7.17473 2.43738 7.18314 2.43993C7.20873 2.44786 7.29344 2.48367 7.35036 2.51056C7.41788 2.54241 7.55462 2.61885 7.61447 2.65806C7.62519 2.665 7.6542 2.68382 7.67882 2.69968C7.75414 2.74837 7.83421 2.80669 8.0141 2.94357C8.0475 2.96905 8.07699 2.99099 8.07967 2.99227C8.08223 2.99354 8.10393 3.00968 8.12769 3.02808C8.29211 3.15519 8.35378 3.20275 8.36414 3.21054C8.38997 3.22979 8.48784 3.31161 8.57486 3.38705C8.62544 3.43065 8.67297 3.4717 8.68053 3.47821C8.70661 3.50044 8.77913 3.56569 8.78169 3.56923C8.78303 3.57121 8.799 3.58594 8.81716 3.60193C8.83519 3.61793 8.85457 3.63534 8.86018 3.64072C8.86579 3.6461 8.89625 3.67525 8.92806 3.70555C9.02386 3.79685 9.10857 3.88334 9.22996 4.01356C9.36682 4.1605 9.45811 4.27473 9.57987 4.45167C9.63313 4.5291 9.63581 4.53334 9.68066 4.60766C9.69626 4.63356 9.72368 4.67858 9.74172 4.70774C9.75964 4.7369 9.78669 4.78191 9.80193 4.80767C9.81716 4.83358 9.83313 4.86005 9.83752 4.86656C9.86275 4.90379 9.96671 5.07138 10.0036 5.13423C10.0274 5.17472 10.0599 5.22893 10.0759 5.25483C10.0918 5.28074 10.1087 5.3082 10.1133 5.31599C10.118 5.32377 10.131 5.34359 10.1422 5.36015C10.1534 5.37671 10.1808 5.4179 10.203 5.45188C10.2252 5.48585 10.2485 5.52024 10.2548 5.52831C10.261 5.53638 10.2662 5.54516 10.2662 5.54799C10.2662 5.56144 10.3115 5.5998 10.3655 5.63207C10.3986 5.65189 10.4531 5.68459 10.4866 5.70497C10.52 5.72521 10.5839 5.76357 10.6285 5.79018C10.6731 5.8168 10.7176 5.84397 10.7273 5.85077C10.7371 5.85742 10.7553 5.86945 10.7678 5.87738C10.7804 5.88531 10.7986 5.89734 10.8084 5.90399C10.8181 5.91079 10.8348 5.92183 10.8454 5.92862C10.856 5.93528 10.8777 5.95056 10.8936 5.96245C10.9339 5.99289 10.9361 5.99444 10.961 6.01016C10.9732 6.0178 10.9843 6.02587 10.9857 6.02813C10.9891 6.03337 11.0408 6.06961 11.045 6.06961C11.0468 6.06961 11.0518 6.07329 11.0562 6.07782C11.0607 6.08235 11.0723 6.09098 11.082 6.09707C11.0918 6.10316 11.1088 6.11505 11.1199 6.12354C11.1311 6.13189 11.1928 6.17606 11.2571 6.22135C11.3214 6.26679 11.3926 6.31874 11.4153 6.33686C11.438 6.35484 11.4575 6.3697 11.4586 6.3697C11.4597 6.3697 11.4897 6.39221 11.5252 6.41967C11.5606 6.44713 11.5905 6.46964 11.5916 6.46964C11.5927 6.46964 11.6086 6.48152 11.6269 6.49611C11.6452 6.51068 11.6611 6.52258 11.6621 6.52258C11.6631 6.52258 11.6819 6.53673 11.7036 6.554C11.7254 6.57127 11.7455 6.58656 11.7483 6.58783C11.7525 6.58981 11.9127 6.71381 11.9586 6.75033C11.9655 6.75599 11.9926 6.77921 12.0188 6.80186C12.045 6.82465 12.0762 6.85126 12.088 6.86088C12.0998 6.87065 12.1241 6.89174 12.1417 6.90774C12.1594 6.92388 12.2409 6.99493 12.3228 7.06571C12.4047 7.13663 12.4743 7.19693 12.4774 7.1999C12.4804 7.20287 12.4977 7.21873 12.5159 7.23515C12.5567 7.27209 12.6622 7.37061 12.6698 7.37882C12.6729 7.38222 12.6971 7.406 12.7236 7.43162C12.75 7.45724 12.7728 7.47975 12.7743 7.48145C12.7767 7.48442 12.8224 7.52944 12.8524 7.55845C12.8722 7.57756 12.9426 7.64749 12.9495 7.65499C12.9526 7.65825 12.9662 7.67155 12.9798 7.68458C13.0154 7.71855 13.1097 7.81226 13.119 7.82273C13.1233 7.82754 13.1564 7.86336 13.1923 7.90214C13.2284 7.94107 13.2751 7.99189 13.2962 8.01524C13.3172 8.0386 13.347 8.07144 13.3622 8.08814C13.6223 8.37379 13.6779 8.43848 13.9041 8.7172C13.9474 8.77042 13.9998 8.83497 14.0207 8.86059C14.0416 8.88621 14.062 8.91169 14.0663 8.91707C14.0705 8.92245 14.0911 8.94779 14.112 8.97341C14.133 8.99903 14.1648 9.0398 14.1826 9.06414C14.2005 9.08835 14.2176 9.11086 14.2205 9.11411C14.2234 9.11737 14.2407 9.13987 14.2588 9.16408C14.2769 9.18828 14.294 9.21107 14.2968 9.21461C14.314 9.23613 14.3663 9.30563 14.3784 9.3229C14.3865 9.33422 14.3953 9.3464 14.3981 9.34994C14.4133 9.3689 14.4673 9.44053 14.4798 9.45822C14.4956 9.48031 14.5201 9.51329 14.5324 9.52858C14.5366 9.53381 14.5564 9.56085 14.5765 9.58859C14.5965 9.61634 14.6159 9.64267 14.6196 9.6472C14.6233 9.65173 14.6355 9.66857 14.6466 9.68471C14.6577 9.70084 14.669 9.71698 14.6718 9.72052C14.6745 9.72392 14.6825 9.73553 14.6895 9.74614C14.6964 9.75676 14.7158 9.78464 14.7325 9.808C14.7493 9.83136 14.7812 9.87793 14.8035 9.91147C14.8257 9.94502 14.851 9.98183 14.8595 9.99329C14.868 10.0048 14.8828 10.0261 14.8923 10.0407C14.9019 10.0551 14.912 10.0702 14.9148 10.0737C14.9177 10.0774 14.9371 10.1061 14.958 10.1378C14.9789 10.1694 15.0115 10.2179 15.0302 10.2458C15.0819 10.3223 15.1665 10.4508 15.1823 10.4771C15.19 10.4899 15.1987 10.5034 15.2015 10.5073C15.2071 10.5149 15.2702 10.6151 15.3558 10.7523C15.3864 10.8014 15.4333 10.8764 15.46 10.919C15.5029 10.9877 15.5284 11.0306 15.634 11.2113C15.6482 11.2357 15.661 11.2568 15.6624 11.2585C15.6651 11.2615 15.7923 11.4827 15.8016 11.5005C15.8044 11.5059 15.833 11.5562 15.8653 11.6124C15.9482 11.7565 15.9837 11.8193 15.9861 11.8261C15.9872 11.8294 15.9965 11.8466 16.0067 11.8643C16.0221 11.8912 16.0757 11.9914 16.0996 12.0379C16.1029 12.0444 16.1103 12.0577 16.116 12.0673C16.1219 12.0771 16.1373 12.1062 16.1504 12.132C16.1636 12.1579 16.1764 12.1831 16.1791 12.1879C16.1816 12.1929 16.1978 12.2233 16.2151 12.2556C16.2324 12.288 16.26 12.3395 16.2763 12.3704C16.3081 12.4298 16.3114 12.4361 16.331 12.473C16.3379 12.4862 16.3464 12.5022 16.3498 12.5085C16.3532 12.515 16.3577 12.5242 16.3597 12.5292C16.3618 12.534 16.3716 12.5538 16.3817 12.5732C16.3919 12.5928 16.4017 12.6126 16.4037 12.6174C16.4056 12.6222 16.4116 12.6342 16.417 12.6439C16.4224 12.6536 16.43 12.6682 16.4338 12.6763C16.4377 12.6843 16.4633 12.736 16.4907 12.7909C16.5182 12.846 16.5498 12.9108 16.5609 12.935C16.572 12.9594 16.5825 12.9806 16.5842 12.9822C16.5858 12.9837 16.5899 12.9918 16.5932 12.9999C16.5966 13.0079 16.6062 13.0277 16.6147 13.0439C16.6231 13.0602 16.6316 13.0773 16.6338 13.0822C16.6379 13.0916 16.7001 13.2195 16.7086 13.2361C16.7114 13.2415 16.7207 13.2614 16.7292 13.2803C16.7377 13.2991 16.7516 13.3291 16.7602 13.3469C16.7687 13.3646 16.786 13.4017 16.7984 13.4293C16.811 13.4568 16.8322 13.5031 16.8455 13.5322C16.8589 13.5614 16.8807 13.609 16.894 13.6381C16.9073 13.6673 16.9254 13.7069 16.9343 13.7263C16.9591 13.7802 17.0268 13.9383 17.0478 13.9911C17.0756 14.0609 17.0872 14.0897 17.119 14.1675C17.1348 14.2064 17.1525 14.25 17.1581 14.2646C17.1638 14.2792 17.1787 14.3163 17.1913 14.347C17.2165 14.4089 17.2502 14.4934 17.2608 14.5206C17.2645 14.5303 17.279 14.566 17.2929 14.6C17.3259 14.6804 17.3546 14.7531 17.3546 14.7562C17.3546 14.7577 17.3616 14.7766 17.3703 14.7986C17.3788 14.8204 17.3889 14.8461 17.3926 14.8559C17.3963 14.8657 17.4061 14.8907 17.4144 14.9118C17.4227 14.9328 17.4355 14.9653 17.4427 14.9839C17.45 15.0024 17.4618 15.033 17.4691 15.0515C17.4764 15.0701 17.4858 15.0945 17.4901 15.1059C17.4944 15.1172 17.5045 15.1437 17.5126 15.1648C17.5285 15.2057 17.5371 15.2282 17.5504 15.2633C17.5549 15.2754 17.5607 15.2897 17.5629 15.2953C17.5652 15.3006 17.5786 15.3372 17.5927 15.3765C17.6198 15.4515 17.6214 15.4559 17.6349 15.4874C17.6396 15.4981 17.6434 15.5104 17.6434 15.5148C17.6434 15.5192 17.6504 15.5409 17.659 15.5629C17.6676 15.585 17.678 15.6123 17.6822 15.6237C17.691 15.6479 17.6942 15.6564 17.7118 15.7024C17.719 15.7213 17.7398 15.7782 17.7581 15.8288C17.7763 15.8793 17.7945 15.93 17.7987 15.9413C17.8087 15.9688 17.8117 15.9774 17.8309 16.0325C17.8482 16.0824 17.8496 16.0864 17.8663 16.1325C17.8839 16.181 17.8846 16.1829 17.9094 16.2531C17.9225 16.2904 17.9352 16.326 17.9376 16.3326C17.9399 16.3389 17.9535 16.3774 17.9676 16.4178C17.9819 16.4583 17.9953 16.4966 17.9977 16.5031C18 16.5096 18.0059 16.5268 18.0108 16.5413C18.0156 16.5559 18.0215 16.5732 18.0237 16.5796C18.026 16.5861 18.0328 16.6059 18.0389 16.6237C18.0449 16.6416 18.0517 16.6614 18.054 16.6679C18.0579 16.6784 18.0684 16.7094 18.1001 16.8032C18.1056 16.8194 18.112 16.8379 18.1144 16.8444C18.1273 16.8799 18.1419 16.9233 18.162 16.986C18.1743 17.0246 18.1925 17.08 18.2022 17.1091C18.212 17.1381 18.2295 17.1925 18.2414 17.2297C18.2532 17.2669 18.2656 17.3053 18.269 17.3149C18.2726 17.3247 18.2779 17.3401 18.2812 17.3493C18.2844 17.3585 18.2917 17.3823 18.2973 17.4023C18.3029 17.4222 18.3096 17.4439 18.3122 17.4503C18.3148 17.4568 18.3225 17.4805 18.3292 17.5032C18.3361 17.5258 18.3487 17.5669 18.3575 17.5945C18.3663 17.622 18.379 17.663 18.3855 17.6857C18.3922 17.7083 18.4049 17.7494 18.4136 17.7768C18.4604 17.9254 18.5335 18.1974 18.5724 18.3681C18.5846 18.4216 18.6055 18.5232 18.6113 18.5563C18.629 18.6604 18.6331 18.6847 18.6393 18.7269C18.6432 18.7528 18.6489 18.8031 18.652 18.8387C18.6551 18.8743 18.6598 18.906 18.6623 18.909C18.6648 18.9121 18.6668 18.9295 18.6668 18.9477C18.6668 18.9725 18.6645 18.9835 18.6576 18.9908C18.6453 19.0036 18.6329 19.0031 18.6265 18.9891ZM8.97036 5.08922C8.96694 5.08752 8.96122 5.08752 8.95768 5.08922C8.95427 5.09078 8.95707 5.09219 8.96402 5.09219C8.97109 5.09219 8.97389 5.09078 8.97036 5.08922ZM16.8128 13.367C16.8131 13.3601 16.8143 13.3587 16.8159 13.3635C16.8173 13.3678 16.8172 13.3727 16.8155 13.3747C16.8138 13.3767 16.8126 13.3733 16.8128 13.367ZM16.7972 13.3401C16.7972 13.3365 16.7895 13.3147 16.7802 13.2916C16.763 13.25 16.7435 13.2004 16.7263 13.1557C16.7214 13.1428 16.7091 13.1115 16.699 13.0863C16.689 13.0611 16.6807 13.0394 16.6807 13.0378C16.6807 13.0364 16.6736 13.0173 16.665 12.9955C16.6563 12.9735 16.645 12.9451 16.64 12.9322C16.6349 12.9192 16.6229 12.8886 16.6133 12.8641C16.5853 12.7929 16.5563 12.6889 16.5487 12.6321C16.5465 12.616 16.5408 12.5855 16.5362 12.5644C16.5314 12.5435 16.5246 12.5116 16.5209 12.4938C16.5173 12.4761 16.5106 12.4443 16.5059 12.4233C16.5014 12.4022 16.4957 12.3718 16.4934 12.3557C16.4911 12.3394 16.4867 12.3187 16.4836 12.3096C16.4806 12.3006 16.478 12.286 16.4781 12.2772C16.4781 12.2686 16.4749 12.2443 16.4707 12.2233C16.4629 12.1824 16.455 12.1344 16.4476 12.082C16.4415 12.039 16.4296 11.9657 16.4201 11.9115C16.4159 11.8873 16.41 11.8517 16.407 11.8326C16.404 11.8135 16.3994 11.7931 16.3967 11.7875C16.3941 11.7817 16.3919 11.7701 16.3919 11.7616C16.3919 11.7531 16.3887 11.7297 16.3848 11.7098C16.3775 11.672 16.368 11.6165 16.361 11.5702C16.356 11.5372 16.348 11.4879 16.3412 11.4496C16.3329 11.4034 16.3262 11.3147 16.319 11.1554C16.3118 10.9987 16.3156 10.6927 16.3267 10.5231C16.3297 10.4761 16.3343 10.3769 16.3368 10.3024C16.3449 10.057 16.3525 9.93044 16.367 9.79653C16.3699 9.77063 16.3742 9.70849 16.3767 9.65824C16.3792 9.60813 16.3836 9.53537 16.3865 9.49644C16.3932 9.40642 16.3933 8.89768 16.3866 8.81997C16.3838 8.78755 16.3792 8.70418 16.3764 8.63467C16.3736 8.56503 16.3699 8.48293 16.3682 8.45221C16.3665 8.4215 16.3681 8.33501 16.3717 8.26013C16.3775 8.1408 16.3772 8.10074 16.3697 7.93654C16.359 7.70255 16.3559 7.67155 16.3335 7.56397C16.3291 7.54288 16.3231 7.51245 16.3203 7.49631C16.3175 7.48003 16.313 7.46432 16.3104 7.46121C16.3079 7.45823 16.3058 7.45031 16.3058 7.44365C16.3058 7.437 16.3025 7.41959 16.2985 7.40501C16.2945 7.39057 16.2879 7.36269 16.2836 7.34329C16.2795 7.3239 16.2735 7.29644 16.2702 7.28214C16.2671 7.26799 16.2624 7.24407 16.2601 7.2292C16.2577 7.21434 16.2519 7.18221 16.2473 7.158C16.2427 7.13366 16.2355 7.09529 16.2311 7.07265C16.2209 7.01843 16.2173 6.83923 16.2248 6.75203C16.2279 6.7148 16.2317 6.59703 16.2331 6.4903C16.2362 6.25617 16.2443 6.13387 16.2577 6.11675C16.2691 6.10202 16.2962 6.10117 16.3072 6.11533C16.3162 6.1268 16.331 6.20182 16.331 6.23522C16.331 6.27627 16.3519 6.41995 16.3637 6.46086C16.3703 6.48351 16.3795 6.5179 16.3843 6.5373C16.3987 6.59604 16.4011 6.60553 16.4195 6.66965C16.4476 6.76789 16.4523 6.78176 16.474 6.83144C16.497 6.8841 16.5046 6.89995 16.5189 6.92557C16.5242 6.93534 16.5302 6.94723 16.5321 6.95204C16.5342 6.957 16.5576 7.00329 16.5843 7.05509C16.6289 7.14144 16.6611 7.21222 16.6833 7.27266C16.688 7.28568 16.6985 7.31272 16.7065 7.33282C16.7146 7.35306 16.7213 7.37203 16.7213 7.37514C16.7213 7.37826 16.7278 7.39751 16.7357 7.41789C16.7436 7.43842 16.7531 7.46432 16.7568 7.47565C16.7635 7.49645 16.7763 7.53212 16.7906 7.56978C16.8061 7.61054 16.8466 7.70326 16.8716 7.75507C16.8856 7.78423 16.9102 7.83689 16.9262 7.87227C16.9421 7.90752 16.9603 7.94588 16.9665 7.95749C16.9727 7.9691 16.9794 7.98269 16.9814 7.9875C16.9832 7.99231 16.9888 8.00335 16.9937 8.01199C17.0654 8.13995 17.1339 8.28363 17.149 8.33756C17.1535 8.35369 17.1592 8.37224 17.1615 8.37875C17.1638 8.38512 17.1685 8.40239 17.1718 8.41697C17.1953 8.52228 17.1941 8.51209 17.2072 8.69342C17.2173 8.83186 17.2244 9.04447 17.221 9.10576C17.2192 9.13945 17.2155 9.21999 17.2128 9.28482C17.2101 9.34951 17.2056 9.421 17.2028 9.44364C17.2 9.46615 17.1976 9.50324 17.1975 9.52589C17.1973 9.54853 17.1938 9.58831 17.1898 9.61407C17.1858 9.63998 17.1825 9.67098 17.1825 9.68287C17.1824 9.69476 17.1802 9.71132 17.1774 9.71953C17.1747 9.72788 17.1702 9.75379 17.1672 9.77728C17.1644 9.80078 17.1588 9.83589 17.1549 9.85528C17.151 9.87481 17.1443 9.90779 17.1402 9.92888C17.136 9.94998 17.1253 9.99895 17.1164 10.0377C17.1075 10.0765 17.0985 10.1176 17.0966 10.1289C17.0945 10.1402 17.0903 10.1588 17.0873 10.1701C17.0773 10.208 17.0669 10.2492 17.0593 10.2819C17.0456 10.3397 17.0346 10.3845 17.0305 10.3995C17.0282 10.4076 17.0225 10.4314 17.0177 10.4525C17.0129 10.4734 17.0061 10.5013 17.0026 10.5142C16.9991 10.5272 16.9923 10.5523 16.9878 10.5701C16.9774 10.6105 16.9109 10.8491 16.9035 10.873C16.9006 10.8828 16.89 10.9186 16.8802 10.9526C16.8703 10.9866 16.8591 11.0227 16.8551 11.0328C16.8512 11.043 16.8479 11.0555 16.8479 11.0605C16.8479 11.0654 16.8456 11.0711 16.8428 11.0732C16.84 11.0752 16.8378 11.0825 16.8378 11.0896C16.8378 11.0967 16.8343 11.1101 16.8301 11.1193C16.826 11.1287 16.8226 11.1414 16.8226 11.1478C16.8226 11.154 16.8201 11.1645 16.8171 11.171C16.8142 11.1775 16.8083 11.1966 16.8043 11.2133C16.8001 11.23 16.7948 11.2517 16.7922 11.2613C16.7769 11.3195 16.7431 11.4721 16.7368 11.5114C16.7343 11.526 16.7297 11.5538 16.7264 11.5732C16.7136 11.6492 16.7055 11.7021 16.6883 11.8233C16.685 11.8468 16.6778 11.9016 16.6702 11.9613C16.6621 12.0254 16.6585 12.3446 16.665 12.4291C16.6808 12.6362 16.6923 12.7502 16.7012 12.788C16.7039 12.7993 16.7061 12.8161 16.7061 12.8255C16.7061 12.8347 16.7093 12.8599 16.7134 12.8812C16.7174 12.9028 16.7245 12.943 16.729 12.9704C16.7413 13.0437 16.7627 13.1499 16.7792 13.2174C16.7835 13.2353 16.7895 13.2617 16.7928 13.2763C16.796 13.2909 16.8006 13.3053 16.803 13.3083C16.809 13.3161 16.8086 13.3469 16.8023 13.3469C16.7995 13.3469 16.7972 13.3438 16.7972 13.3401ZM7.81898 12.2056C7.80033 12.184 7.80569 12.1678 7.84299 12.1337C7.89088 12.09 7.95865 12.0342 7.98863 12.0138C8.02788 11.9873 8.02836 11.9869 8.07577 11.9531C8.15573 11.8958 8.20862 11.8629 8.40667 11.7474C8.51405 11.6848 8.62349 11.6209 8.64994 11.6053C8.7082 11.5709 8.76621 11.5457 8.81716 11.5324C8.838 11.527 8.8631 11.5201 8.87285 11.517C8.8826 11.514 8.91112 11.5062 8.93623 11.4995C8.96134 11.493 8.99095 11.4853 9.00204 11.4823C9.04641 11.4704 9.09528 11.4586 9.13379 11.4504C9.1561 11.4456 9.18803 11.4387 9.20473 11.435C9.22142 11.4313 9.24885 11.4261 9.26554 11.4234C9.28224 11.4207 9.2993 11.4169 9.30357 11.415C9.30771 11.4131 9.326 11.4088 9.34403 11.4056C9.37682 11.3995 9.42593 11.3896 9.50369 11.3731C9.526 11.3685 9.56073 11.3618 9.58096 11.3584C9.6012 11.355 9.62362 11.3496 9.63069 11.3465C9.63788 11.3434 9.65056 11.3409 9.65897 11.3409C9.66737 11.3409 9.68834 11.3369 9.70552 11.3322C9.72271 11.3276 9.755 11.3194 9.77731 11.314C9.79961 11.3087 9.82582 11.3019 9.83557 11.2988C9.84532 11.2959 9.8636 11.2909 9.87603 11.2879C9.89724 11.283 9.93477 11.2725 9.97755 11.2598C9.9873 11.2568 10.0003 11.2514 10.0063 11.2476C10.0124 11.2439 10.0214 11.2408 10.0264 11.2408C10.0315 11.2408 10.0423 11.2368 10.0502 11.2319C10.0581 11.2271 10.0692 11.2231 10.0746 11.2231C10.0801 11.2231 10.0894 11.2201 10.0954 11.2163C10.1015 11.2126 10.1133 11.2075 10.1217 11.2051C10.1356 11.201 10.1561 11.1932 10.1827 11.1818C10.2261 11.1628 10.2813 11.1407 10.2929 11.1375C10.3005 11.1353 10.3081 11.1312 10.3097 11.1284C10.3111 11.1254 10.3175 11.1232 10.3238 11.1232C10.33 11.1232 10.3373 11.1209 10.3399 11.1182C10.3456 11.1124 10.4883 11.0605 10.5778 11.0316C10.5945 11.0262 10.6196 11.018 10.6335 11.0135C10.6808 10.9976 10.7094 10.9885 10.7425 10.9786C10.7606 10.9733 10.7811 10.9667 10.788 10.9641C10.7951 10.9615 10.819 10.955 10.8413 10.9496C10.9263 10.9291 10.9672 10.9185 11.0339 10.8994C11.0478 10.8954 11.0695 10.89 11.082 10.8873C11.0944 10.8848 11.1161 10.8797 11.1302 10.876C11.1545 10.8696 11.2011 10.8587 11.2593 10.8459C11.2746 10.8426 11.302 10.8362 11.3202 10.8318C11.3382 10.8275 11.3701 10.82 11.3911 10.815C11.4445 10.8025 11.5044 10.7884 11.5431 10.779C11.5611 10.7747 11.5943 10.7667 11.6164 10.7615C11.6387 10.7561 11.6662 10.7495 11.6773 10.7466C11.6885 10.7438 11.7158 10.7373 11.7381 10.7321C11.7604 10.727 11.7934 10.7189 11.8116 10.7141C11.8297 10.7093 11.8506 10.7053 11.8581 10.7054C11.8656 10.7054 11.8781 10.7026 11.8859 10.6992C11.8938 10.6957 11.9138 10.6907 11.9306 10.688C11.9636 10.6828 12.0074 10.6734 12.0466 10.6634C12.0601 10.6599 12.0841 10.6546 12.0997 10.6519C12.1154 10.6492 12.1499 10.6429 12.1764 10.6381C12.2303 10.628 12.3207 10.6146 12.3968 10.6054C12.4246 10.602 12.4555 10.5966 12.4652 10.5935C12.475 10.5904 12.5001 10.588 12.5209 10.588C12.5419 10.588 12.5932 10.584 12.635 10.5792C12.7818 10.5619 13.4592 10.547 13.5799 10.5582C13.6733 10.567 13.7309 10.5742 13.7622 10.5812C13.791 10.5875 13.8697 10.603 13.8965 10.6076C13.9187 10.6114 13.982 10.6263 14.0257 10.6378C14.1049 10.6587 14.1303 10.665 14.1524 10.6693C14.1649 10.6719 14.1832 10.6767 14.1929 10.6802C14.2176 10.6893 14.257 10.7003 14.2841 10.7059C14.3088 10.7108 14.3421 10.7203 14.3703 10.7305C14.38 10.734 14.396 10.7388 14.4057 10.7413C14.4155 10.7437 14.4485 10.754 14.4792 10.7642C14.5098 10.7744 14.5418 10.785 14.5502 10.7877C14.57 10.7942 14.5967 10.805 14.6174 10.815C14.6266 10.8195 14.6372 10.8231 14.641 10.8231C14.6447 10.8231 14.6544 10.827 14.6623 10.8318C14.6703 10.8367 14.6809 10.8406 14.6861 10.8408C14.7053 10.8408 14.9628 10.9887 15.0138 11.0289C15.0346 11.0454 15.1104 11.1045 15.1822 11.1601C15.254 11.2156 15.3128 11.2632 15.3128 11.2657C15.3128 11.2745 15.3007 11.2699 15.25 11.2416C15.1823 11.2038 15.1639 11.1944 15.0948 11.1617C15.0628 11.1465 15.0319 11.1319 15.0265 11.1294C15.0209 11.1267 15.0072 11.1206 14.996 11.1157C14.9849 11.1108 14.9655 11.1022 14.953 11.0967C14.9404 11.091 14.9216 11.0828 14.9112 11.0783C14.9007 11.0739 14.8836 11.0664 14.8731 11.0619C14.7427 11.0043 14.6672 10.9812 14.573 10.9703C14.4369 10.9546 14.3944 10.9523 14.3465 10.9583C14.3192 10.9616 14.2635 10.967 14.2228 10.9703C14.1821 10.9734 14.1368 10.9786 14.1221 10.9819C14.1074 10.9851 14.0813 10.9878 14.0644 10.988C14.0473 10.9881 14.0174 10.9908 13.9978 10.9943C13.9783 10.9977 13.9396 11.0028 13.9118 11.0055C13.8839 11.0084 13.8302 11.0149 13.7927 11.02C13.755 11.0251 13.706 11.0317 13.6837 11.0345C13.6614 11.0374 13.6329 11.0425 13.6204 11.0457C13.6078 11.049 13.5816 11.0559 13.5621 11.061C13.5426 11.0661 13.5214 11.0702 13.5149 11.0702C13.5085 11.0702 13.4991 11.0728 13.4942 11.0757C13.4892 11.0789 13.4717 11.0842 13.4552 11.0876C13.4388 11.091 13.4117 11.0975 13.3949 11.1021C13.3782 11.1066 13.3475 11.1148 13.3265 11.1202C13.2694 11.1351 13.236 11.1445 13.2024 11.1553C13.1856 11.1605 13.164 11.1672 13.1543 11.1699C13.1445 11.1727 13.1297 11.1777 13.1213 11.1811C13.113 11.1843 13.0925 11.1917 13.0757 11.1972C13.059 11.2027 13.0362 11.2106 13.0251 11.2147C13.0139 11.2187 12.9911 11.2265 12.9744 11.2319C12.9577 11.2373 12.9383 11.2438 12.9314 11.2463C12.9243 11.2489 12.9049 11.2555 12.8882 11.2612C12.8715 11.2667 12.8503 11.275 12.8412 11.2796C12.8321 11.2841 12.8202 11.2879 12.8147 11.2879C12.8094 11.2879 12.7976 11.2916 12.7884 11.2963C12.7792 11.3008 12.7478 11.313 12.7185 11.3235C12.6892 11.3338 12.6494 11.3481 12.6299 11.3552C12.6104 11.3624 12.5812 11.3726 12.5653 11.378C12.5492 11.3832 12.523 11.392 12.507 11.3973C12.4909 11.4027 12.4687 11.4104 12.4576 11.4145C12.4464 11.4186 12.4225 11.4265 12.4044 11.432C12.3862 11.4375 12.3657 11.4443 12.3588 11.4469C12.3519 11.4496 12.3291 11.4575 12.3081 11.4644C12.257 11.4816 12.2384 11.4881 12.2144 11.4967C12.1918 11.5048 12.1508 11.5187 12.1068 11.5328C12.0907 11.538 12.074 11.5444 12.0695 11.547C12.065 11.5495 12.0507 11.5535 12.0378 11.5557C12.0247 11.558 12.0129 11.5621 12.0113 11.5651C12.0099 11.5679 12.0035 11.5702 11.9974 11.5702C11.9913 11.5702 11.9761 11.5739 11.9636 11.5785C11.9313 11.5903 11.8653 11.6109 11.8217 11.6228C11.8119 11.6255 11.7902 11.6322 11.7735 11.6377C11.7568 11.6434 11.7306 11.6513 11.7153 11.6555C11.6303 11.6792 11.5938 11.6899 11.5724 11.6973C11.5594 11.7018 11.5438 11.7055 11.5378 11.7055C11.5319 11.7055 11.513 11.7095 11.4958 11.7141C11.4786 11.7188 11.4463 11.727 11.424 11.7323C11.4017 11.7376 11.3755 11.7444 11.3657 11.7474C11.3459 11.7536 11.3114 11.762 11.2695 11.771C11.2541 11.7743 11.2381 11.7785 11.234 11.7805C11.2268 11.7839 11.1917 11.7928 11.1364 11.8053C11.123 11.8083 11.1048 11.8134 11.0958 11.8165C11.0784 11.8227 11.0186 11.8383 10.9933 11.8434C10.985 11.8449 10.961 11.8505 10.9401 11.8556C10.9192 11.8606 10.8815 11.8689 10.8565 11.874C10.8314 11.8789 10.7927 11.8867 10.7704 11.8912C10.7481 11.8958 10.7127 11.9021 10.6919 11.9054C10.6709 11.9085 10.6436 11.9137 10.6311 11.917C10.5804 11.9299 10.4893 11.9364 10.4081 11.933C10.3086 11.9287 10.1407 11.9191 10.0556 11.9127C10.0218 11.9102 9.96488 11.91 9.9288 11.9123C9.76829 11.9224 9.69053 11.9284 9.68359 11.9317C9.67932 11.9335 9.64861 11.9375 9.61509 11.9405C9.5472 11.9466 9.46957 11.9556 9.40485 11.9648C9.38121 11.9684 9.33782 11.9735 9.30857 11.9764C9.27932 11.9794 9.22459 11.9859 9.18705 11.991C9.14939 11.996 9.09796 12.0023 9.07273 12.0052C9.04738 12.0079 9.00643 12.0131 8.98145 12.0166C8.95658 12.0202 8.90735 12.0271 8.87212 12.0319C8.82837 12.038 8.76036 12.0408 8.65689 12.0408C8.545 12.0408 8.4943 12.0432 8.46249 12.0498C8.43873 12.0546 8.40911 12.0585 8.39656 12.0585C8.384 12.0585 8.36536 12.0614 8.35512 12.0646C8.34476 12.068 8.32197 12.0731 8.30442 12.0759C8.27565 12.0808 8.24153 12.089 8.1812 12.1057C8.17011 12.1088 8.145 12.1169 8.1255 12.1235C8.106 12.1302 8.07529 12.1392 8.05713 12.1438C8.03897 12.1481 7.98607 12.1665 7.93951 12.1845C7.89296 12.2026 7.84896 12.2174 7.84189 12.2174C7.83494 12.2174 7.82458 12.2121 7.81898 12.2056ZM15.3229 11.282C15.3163 11.2772 15.3165 11.2763 15.3241 11.2762C15.329 11.276 15.333 11.2787 15.333 11.282C15.333 11.2892 15.3324 11.2892 15.3229 11.282ZM15.3951 10.7744C15.3922 10.7669 15.385 10.7371 15.3791 10.7081C15.3578 10.6055 15.3424 10.5415 15.3146 10.4437C15.2884 10.3514 15.2784 10.318 15.2724 10.3024C15.27 10.2959 15.2608 10.2695 15.2521 10.2436C15.2433 10.2178 15.2341 10.1913 15.2316 10.1848C15.2265 10.1712 15.2077 10.1198 15.2016 10.1024C15.1864 10.0585 15.1543 9.98225 15.1115 9.88769C15.0585 9.77091 15.0553 9.76426 14.9972 9.65555C14.9938 9.64918 14.9762 9.61733 14.9581 9.58491C14.9401 9.5525 14.921 9.51669 14.9158 9.50536C14.9106 9.49404 14.9031 9.48059 14.8992 9.47549C14.8953 9.47026 14.8922 9.46459 14.8922 9.46275C14.8922 9.46091 14.8829 9.4418 14.8717 9.42015C14.8479 9.37485 14.7954 9.25765 14.7871 9.23174C14.784 9.22197 14.7777 9.19819 14.773 9.1788C14.7683 9.15941 14.7614 9.13166 14.7577 9.11708C14.7511 9.09132 14.7426 9.0531 14.728 8.98318C14.7241 8.96463 14.7181 8.93618 14.7147 8.9199C14.7112 8.90376 14.7067 8.87998 14.7045 8.86696C14.7024 8.85408 14.6969 8.82365 14.6923 8.7993C14.6695 8.67856 14.6549 8.59532 14.649 8.55229C14.6461 8.5312 14.6424 8.51011 14.6407 8.50515C14.6391 8.50034 14.636 8.47514 14.6338 8.44938C14.6296 8.40012 14.6217 8.32496 14.6132 8.25517C14.6105 8.23252 14.606 8.18751 14.6033 8.1551C14.6007 8.12282 14.595 8.06054 14.5907 8.01694C14.5865 7.9732 14.5806 7.90441 14.5777 7.86392C14.5749 7.82344 14.5704 7.78112 14.5677 7.76979C14.565 7.75847 14.5627 7.72803 14.5625 7.70213C14.5622 7.67622 14.5599 7.64055 14.5572 7.62272C14.5546 7.60502 14.5505 7.57049 14.5481 7.54628C14.5439 7.50339 14.5392 7.47253 14.5247 7.39326C14.5209 7.37231 14.5165 7.34712 14.5152 7.33749C14.5138 7.32772 14.5091 7.30196 14.5048 7.28002C14.5004 7.25822 14.4937 7.22382 14.4897 7.20358C14.4858 7.18334 14.4789 7.14965 14.4744 7.12856C14.4698 7.10761 14.465 7.08369 14.4636 7.07562C14.4612 7.06189 14.4545 7.03358 14.4388 6.96974C14.4206 6.89557 14.4143 6.87193 14.4109 6.86372C14.4088 6.85876 14.4055 6.84546 14.4035 6.83427C14.4016 6.82295 14.3983 6.80851 14.396 6.80214C14.3938 6.79563 14.3879 6.7744 14.3831 6.755C14.3782 6.73561 14.3719 6.71183 14.3692 6.70206C14.3664 6.6923 14.3622 6.67517 14.3598 6.66384C14.3575 6.65252 14.3519 6.62874 14.3472 6.6109C14.3426 6.59307 14.3358 6.56532 14.3321 6.54905C14.3283 6.53291 14.3215 6.50516 14.317 6.48733C14.308 6.45237 14.2967 6.39999 14.2889 6.35823C14.2863 6.34379 14.2819 6.32398 14.2794 6.31407C14.2724 6.28703 14.2603 6.23579 14.2518 6.19616C14.2417 6.14973 14.2145 6.0304 14.2001 5.96967C14.1959 5.95184 14.1904 5.9265 14.1879 5.91333C14.1855 5.90031 14.1812 5.88304 14.1786 5.87512C14.1759 5.86733 14.1699 5.84355 14.1652 5.8226C14.1382 5.702 14.1279 5.65911 14.1216 5.64141C14.1191 5.63391 14.1169 5.62301 14.1169 5.61707C14.1169 5.61112 14.1134 5.59201 14.1091 5.57474C14.0982 5.53143 14.0889 5.49123 14.079 5.44607C14.0745 5.42498 14.0686 5.39978 14.0659 5.38988C14.0634 5.37997 14.0591 5.36015 14.0564 5.34571C14.0516 5.31952 14.0412 5.26772 14.0274 5.20189C14.0234 5.1825 14.018 5.15391 14.0156 5.13848C14.0132 5.12305 14.0089 5.10196 14.0061 5.09148C14.0012 5.07308 13.9943 5.03911 13.9854 4.99013C13.9831 4.97711 13.9773 4.94809 13.9726 4.92544C13.9443 4.78885 13.9341 4.72897 13.9311 4.68367C13.929 4.64899 13.9302 4.63795 13.9389 4.61799C13.9576 4.57567 14.0056 4.54792 14.0408 4.55925C14.0662 4.56732 14.1034 4.59789 14.148 4.64729C14.1693 4.67079 14.2262 4.73378 14.2747 4.78715C14.4775 5.01094 14.5664 5.11965 14.6423 5.23714C14.6733 5.28513 14.7604 5.43687 14.7604 5.44296C14.7604 5.4448 14.7658 5.45612 14.7722 5.46815C14.8009 5.52138 14.8776 5.69435 14.9215 5.80491C14.9364 5.84213 14.9505 5.87696 14.953 5.88234C14.9603 5.89805 15.0259 6.07909 15.0463 6.14024C15.0566 6.17096 15.0681 6.20536 15.0719 6.21668C15.0758 6.22801 15.0862 6.26113 15.095 6.29029C15.1039 6.31931 15.1128 6.34847 15.1148 6.35498C15.1218 6.37664 15.1616 6.51536 15.1739 6.56094C15.1782 6.57707 15.1838 6.59562 15.1861 6.60199C15.1884 6.6085 15.1953 6.63369 15.2012 6.6579C15.2072 6.68225 15.2139 6.7073 15.2162 6.71381C15.2227 6.73179 15.2382 6.81219 15.2592 6.93605C15.2636 6.96125 15.267 6.99069 15.267 7.00145C15.267 7.0122 15.2694 7.02862 15.272 7.03797C15.2748 7.04731 15.2794 7.07888 15.2823 7.10803C15.308 7.37217 15.3109 7.48839 15.2961 7.66986C15.2911 7.72973 15.2848 7.81169 15.282 7.85217C15.2794 7.89266 15.2748 7.93682 15.2722 7.95041C15.2694 7.964 15.267 7.99047 15.267 8.00916C15.267 8.02798 15.2636 8.06592 15.2595 8.09338C15.2553 8.12084 15.2518 8.15934 15.2517 8.17873C15.2516 8.19813 15.2483 8.23125 15.2443 8.2522C15.2404 8.27329 15.2369 8.30641 15.2367 8.32581C15.2366 8.3452 15.2343 8.37195 15.2316 8.3854C15.2289 8.39871 15.2244 8.43452 15.2215 8.46481C15.2185 8.4951 15.2129 8.54904 15.209 8.58456C15.205 8.62024 15.1994 8.67445 15.1964 8.70517C15.1934 8.73603 15.1887 8.77382 15.186 8.78939C15.1832 8.80482 15.1809 8.83002 15.1808 8.8453C15.1806 8.86045 15.1773 8.89003 15.1733 8.91113C15.1694 8.93222 15.166 8.96265 15.1659 8.97879C15.1659 8.99492 15.1624 9.02677 15.1582 9.04942C15.1486 9.1025 15.1482 9.2241 15.1577 9.26854C15.1617 9.28723 15.1687 9.32219 15.1733 9.34654C15.1855 9.41066 15.2032 9.48484 15.2289 9.57883C15.2324 9.59185 15.2394 9.61832 15.2444 9.63771C15.2494 9.6571 15.2563 9.68357 15.2599 9.69646C15.2633 9.70948 15.27 9.73595 15.2746 9.75534C15.2792 9.77473 15.2848 9.79597 15.2872 9.80234C15.2924 9.81777 15.3048 9.88812 15.3148 9.95833C15.3229 10.0154 15.324 10.0243 15.3329 10.1112C15.3358 10.1388 15.3414 10.1838 15.3454 10.2113C15.3494 10.2387 15.3564 10.2904 15.3608 10.3259C15.3653 10.3616 15.3711 10.4079 15.3739 10.429C15.3788 10.4666 15.3825 10.5019 15.3965 10.6466C15.4004 10.687 15.4051 10.7353 15.407 10.754C15.4105 10.7892 15.4049 10.799 15.3951 10.7744ZM4.16837 8.87645C4.14753 8.86555 4.12925 8.83639 4.12693 8.81006C4.12279 8.7625 4.15168 8.7264 4.2064 8.71097C4.24247 8.70064 4.29768 8.68747 4.32803 8.68167C4.34327 8.67884 4.36496 8.67388 4.37617 8.67077C4.38727 8.66766 4.41469 8.66058 4.43687 8.6552C4.45917 8.64982 4.48635 8.64274 4.4972 8.63949C4.50805 8.63623 4.52742 8.63142 4.54022 8.62887C4.55314 8.62618 4.57959 8.61953 4.59909 8.61415C4.63821 8.60339 4.69306 8.5898 4.72828 8.58216C4.76106 8.57508 4.8036 8.56418 4.82712 8.55668C4.83821 8.55314 4.85759 8.54833 4.87014 8.54606C4.8827 8.54366 4.9089 8.53743 4.9284 8.53219C4.9479 8.52681 4.97983 8.5186 4.99934 8.51379C5.03712 8.50459 5.08307 8.49227 5.12853 8.47897C5.20689 8.45632 5.22396 8.45151 5.24382 8.44641C5.25577 8.4433 5.2699 8.43806 5.27527 8.4348C5.28051 8.43141 5.29014 8.42872 5.29647 8.42872C5.30281 8.42872 5.31731 8.42504 5.32853 8.42036C5.34705 8.41286 5.37204 8.40465 5.43005 8.38653C5.44114 8.38314 5.46052 8.37691 5.47307 8.37266C5.48563 8.36856 5.50952 8.36063 5.52633 8.35511C5.54303 8.34959 5.56582 8.3418 5.57691 8.3377C5.58813 8.33359 5.61092 8.32552 5.62761 8.31972C5.6682 8.30571 5.70135 8.29325 5.71378 8.28731C5.71927 8.28462 5.73816 8.27697 5.75571 8.27032C5.77314 8.26352 5.79142 8.25574 5.79617 8.25291C5.81799 8.24017 5.84395 8.2287 5.85126 8.2287C5.85553 8.2287 5.86515 8.22502 5.87259 8.22049C5.88002 8.21596 5.89623 8.20775 5.90879 8.20209C5.92134 8.19643 5.93877 8.18822 5.94754 8.18383C5.95632 8.1793 5.96509 8.17576 5.96692 8.17576C5.97704 8.17576 6.125 8.0914 6.18728 8.05006C6.23774 8.01666 6.32281 7.94546 6.38764 7.88247C6.41275 7.85812 6.43432 7.83674 6.43579 7.8349C6.43713 7.83306 6.44858 7.82132 6.46114 7.80872C6.47369 7.79598 6.5523 7.70737 6.63603 7.61154C6.71964 7.51585 6.80642 7.41761 6.82884 7.39326C6.92915 7.28427 7.06224 7.15729 7.20849 7.03103C7.23628 7.00697 7.26565 6.98135 7.2737 6.97413C7.28174 6.96691 7.30343 6.94893 7.32196 6.93421C7.34049 6.91949 7.37315 6.89245 7.3946 6.87405C7.43531 6.83894 7.71087 6.62265 7.71477 6.62265C7.71599 6.62265 7.73049 6.61218 7.74707 6.59944C7.76364 6.58656 7.79253 6.56603 7.81118 6.55372C7.8297 6.54154 7.84884 6.5288 7.85347 6.52555C7.86371 6.51847 7.93098 6.47501 7.97352 6.44784C8.00996 6.42462 8.21727 6.30501 8.22093 6.30501C8.22239 6.30501 8.24141 6.29538 8.26322 6.28364C8.28504 6.27189 8.31088 6.25901 8.32063 6.25504C8.33038 6.25094 8.34854 6.2423 8.36109 6.23593C8.38339 6.22447 8.40874 6.21272 8.44982 6.19474C8.46091 6.18993 8.47456 6.1837 8.48016 6.18087C8.50527 6.16855 8.65274 6.11094 8.67529 6.10471C8.68504 6.10202 8.70893 6.09424 8.72843 6.08759C8.74793 6.08079 8.77413 6.07286 8.78669 6.07003C8.79924 6.0672 8.82544 6.06055 8.84494 6.05517C8.89784 6.04073 8.95805 6.02927 9.04007 6.01808C9.14245 6.00407 9.3756 6.00421 9.49358 6.01823C9.63154 6.03479 9.76878 6.05956 9.82838 6.07895C9.84251 6.08348 9.86006 6.0873 9.86738 6.0873C9.87457 6.0873 9.88688 6.09013 9.8948 6.09367C9.9026 6.09735 9.92039 6.10245 9.93429 6.10528C9.9483 6.10797 9.97451 6.11462 9.99267 6.11986C10.0107 6.1251 10.0398 6.13317 10.0573 6.13784C10.0747 6.14237 10.1043 6.15015 10.1231 6.15525C10.1418 6.1602 10.1679 6.16657 10.181 6.1694C10.194 6.17238 10.2094 6.17747 10.2148 6.18101C10.2205 6.18441 10.2322 6.18724 10.2409 6.18724C10.2496 6.18724 10.2613 6.19007 10.2669 6.19361C10.2725 6.19701 10.2877 6.20224 10.3008 6.20522C10.339 6.21371 10.3799 6.22532 10.3852 6.22914C10.388 6.23126 10.3995 6.23466 10.4106 6.23692C10.4218 6.23919 10.4378 6.24329 10.4461 6.24627C10.4545 6.24924 10.4738 6.25561 10.4892 6.26028C10.5531 6.28038 10.5933 6.29496 10.5978 6.29977C10.6005 6.3026 10.6066 6.30501 10.6113 6.30501C10.6162 6.30501 10.6266 6.30883 10.6344 6.31336C10.6423 6.31803 10.6579 6.32624 10.669 6.33148C10.6802 6.33672 10.6938 6.34337 10.6994 6.3462C10.7478 6.37055 10.8224 6.40495 10.8268 6.40495C10.8298 6.40495 10.8492 6.41316 10.8698 6.42335C10.8903 6.4334 10.9117 6.44387 10.9174 6.44656C10.9614 6.46765 10.9793 6.47671 10.9869 6.48167C10.9917 6.48478 10.998 6.48733 11.0008 6.48733C11.0113 6.48733 11.1759 6.57976 11.2188 6.60977C11.2742 6.64856 11.2897 6.6613 11.2897 6.66823C11.2897 6.67941 11.2798 6.67715 11.2484 6.65861C11.1974 6.6286 11.101 6.59392 11.0262 6.57863C10.9997 6.57325 10.9667 6.56589 10.9528 6.56235C10.9378 6.55853 10.8502 6.55485 10.7399 6.55343C10.5818 6.55145 10.5471 6.55258 10.518 6.56037C10.4989 6.56547 10.4751 6.56971 10.4647 6.56971C10.4545 6.56971 10.438 6.57254 10.4284 6.57608C10.4186 6.57948 10.3958 6.58458 10.3777 6.58741C10.3446 6.59236 10.3042 6.60071 10.2606 6.61161C10.2478 6.61487 10.2239 6.61996 10.2074 6.62308C10.191 6.62619 10.1582 6.6327 10.1345 6.63766C10.1108 6.64261 10.0768 6.64926 10.0587 6.65266C10.0408 6.65606 10.0222 6.66115 10.0173 6.66427C10.0124 6.66724 10.0024 6.66965 9.9951 6.66965C9.98767 6.66965 9.96756 6.67347 9.95038 6.67814C9.93319 6.68281 9.90089 6.69088 9.87859 6.69612C9.85629 6.70136 9.82326 6.70928 9.8051 6.71367C9.77658 6.72075 9.73794 6.72995 9.68103 6.74326C9.67262 6.74524 9.64983 6.75076 9.63032 6.75557C9.61082 6.76038 9.58401 6.76675 9.57073 6.76958C9.55744 6.77256 9.53916 6.77751 9.53014 6.78062C9.50662 6.78883 9.47127 6.79917 9.448 6.80469C9.43678 6.80724 9.41399 6.81403 9.39729 6.81955C9.36207 6.8313 9.32575 6.84277 9.29345 6.85225C9.2809 6.85593 9.26603 6.86103 9.26043 6.86357C9.25494 6.86598 9.23666 6.87278 9.21996 6.87844C9.20326 6.8841 9.18157 6.89203 9.17182 6.89599C9.1522 6.90406 9.14294 6.90774 9.06542 6.93831C9.03617 6.94992 9.01009 6.96167 9.00741 6.9645C9.00473 6.96733 8.99936 6.96974 8.99546 6.96974C8.989 6.96974 8.97913 6.97413 8.93623 6.99607C8.92782 7.00031 8.90052 7.01362 8.87541 7.02579C8.82252 7.05127 8.78437 7.07066 8.74878 7.09006C8.73477 7.0977 8.70966 7.11101 8.69296 7.11978C8.6514 7.14158 8.44665 7.25978 8.40923 7.2837C8.39253 7.29432 8.36633 7.31088 8.35097 7.32065C8.30295 7.35094 8.2397 7.3934 8.20984 7.4152C8.12111 7.48032 8.0163 7.56072 7.93549 7.62569C7.91185 7.6448 7.8776 7.67212 7.85956 7.68656C7.74975 7.7739 7.72781 7.79145 7.70502 7.81013C7.64774 7.85685 7.4776 7.98665 7.4542 8.00137C7.44445 8.00746 7.4308 8.01708 7.42373 8.0226C7.39143 8.04865 7.12305 8.21101 7.11257 8.21101C7.11099 8.21101 7.08869 8.22262 7.06285 8.23663C6.98253 8.28051 6.95755 8.29339 6.95279 8.29339C6.95023 8.29339 6.93341 8.30132 6.91538 8.31109C6.89734 8.32071 6.88113 8.32878 6.87954 8.32878C6.87784 8.32878 6.86467 8.33529 6.85029 8.34336C6.83579 8.35157 6.8219 8.35808 6.81934 8.35808C6.8169 8.35808 6.80642 8.36233 6.7963 8.36742C6.78606 8.37252 6.77095 8.38002 6.76254 8.38427C6.75425 8.38851 6.73707 8.39658 6.72451 8.40225C6.71208 8.40805 6.6949 8.41598 6.68661 8.41994C6.6782 8.4239 6.65992 8.43197 6.64603 8.43778C6.63213 8.44358 6.61848 8.45051 6.61592 8.4532C6.61324 8.45589 6.60751 8.45816 6.60325 8.45816C6.59886 8.45816 6.58886 8.46212 6.58082 8.46693C6.5729 8.47189 6.56412 8.47585 6.56132 8.47585C6.55864 8.47585 6.54913 8.47953 6.54036 8.48406C6.52086 8.4944 6.37131 8.55229 6.31927 8.56984C6.29831 8.57678 6.27552 8.58456 6.26857 8.58711C6.24578 8.59546 6.20081 8.61004 6.16973 8.61896C6.15303 8.62392 6.12914 8.63114 6.11659 8.6351C6.10404 8.6392 6.08344 8.6443 6.07101 8.64671C6.05845 8.64897 6.03444 8.65392 6.01775 8.65761C6.00105 8.66129 5.97363 8.66723 5.95693 8.67077C5.94023 8.67431 5.82055 8.67955 5.69099 8.68224C5.44248 8.68761 5.29647 8.69526 5.26283 8.70503C5.25162 8.70814 5.23139 8.71083 5.21762 8.71097C5.20397 8.71111 5.17313 8.71493 5.14924 8.71961C5.08282 8.73263 5.03163 8.74183 5.01201 8.74438C5.00226 8.74565 4.97715 8.75046 4.95631 8.75499C4.93535 8.75966 4.8955 8.76773 4.86759 8.77297C4.83968 8.77821 4.80665 8.78486 4.79409 8.78755C4.78154 8.79038 4.74851 8.79689 4.72072 8.80213C4.69281 8.80737 4.65284 8.81544 4.63187 8.82025C4.61091 8.82492 4.58471 8.82874 4.57362 8.82874C4.56253 8.82874 4.54546 8.83157 4.53571 8.83497C4.52596 8.83837 4.50086 8.84346 4.48001 8.84644C4.42858 8.85366 4.37179 8.86328 4.33815 8.87036C4.29939 8.87871 4.18068 8.88296 4.16837 8.87645ZM13.0657 7.65627C13.0636 7.65046 13.0633 7.64409 13.065 7.64211C13.0701 7.63617 13.0742 7.64452 13.0719 7.65612C13.0698 7.66646 13.0695 7.66646 13.0658 7.65627H13.0657ZM13.0507 7.61536C13.0485 7.60644 13.045 7.59922 13.0428 7.59922C13.0406 7.59922 13.0362 7.592 13.0332 7.58308C13.0301 7.57417 13.0234 7.55888 13.0183 7.54925C13.0132 7.53949 13.0015 7.5157 12.9922 7.49631C12.9829 7.47692 12.9564 7.42455 12.9331 7.37996C12.9098 7.33551 12.8908 7.29757 12.8908 7.29587C12.8908 7.29418 12.8865 7.28568 12.8812 7.27691C12.8759 7.26813 12.8522 7.22651 12.8284 7.18447C12.7902 7.11709 12.7487 7.05495 12.6964 6.98743C12.6434 6.91906 12.3452 6.45491 12.2768 6.33431C12.2325 6.25646 12.1967 6.1888 12.1967 6.18327C12.1967 6.18129 12.191 6.17096 12.184 6.16034C12.177 6.14973 12.1714 6.13925 12.1714 6.13699C12.1714 6.13472 12.161 6.11335 12.1486 6.08928C12.136 6.06536 12.1258 6.04455 12.1258 6.04314C12.1258 6.04172 12.1136 6.01738 12.0988 5.98892C12.084 5.96047 12.0703 5.93329 12.0684 5.92848C12.063 5.91503 12.004 5.80222 11.9827 5.76456C11.9778 5.75607 11.9715 5.74376 11.9687 5.73724C11.9657 5.73073 11.9589 5.71757 11.9534 5.7078C11.948 5.69818 11.9414 5.68487 11.9389 5.67836C11.9364 5.67199 11.926 5.65245 11.916 5.63519C11.9059 5.61792 11.8977 5.60234 11.8977 5.60065C11.8977 5.59895 11.8899 5.58267 11.8804 5.56441C11.8619 5.52874 11.8539 5.51218 11.8244 5.44904C11.8138 5.4264 11.7997 5.39653 11.7932 5.3828C11.7623 5.31853 11.7598 5.31287 11.6735 5.12248C11.6395 5.04732 11.6205 5.00712 11.6073 4.98277C11.6008 4.9706 11.5939 4.95574 11.5919 4.94965C11.5883 4.93804 11.4972 4.77625 11.4847 4.75912C11.4806 4.75346 11.4721 4.74058 11.4658 4.73053C11.4492 4.70363 11.3896 4.61417 11.3861 4.61063C11.3844 4.60907 11.374 4.59449 11.3629 4.57836C11.352 4.56208 11.3417 4.5475 11.3403 4.54594C11.3388 4.54438 11.3194 4.51791 11.2971 4.4872C11.2749 4.45648 11.2473 4.41939 11.2358 4.40481C11.2242 4.39023 11.2083 4.369 11.2004 4.35768C11.1924 4.34635 11.1846 4.33574 11.183 4.33418C11.1815 4.33248 11.1484 4.29016 11.1097 4.24005C11.0239 4.12907 11.0041 4.10402 10.9548 4.04329C10.9336 4.01724 10.8926 3.96544 10.8638 3.92821C10.8351 3.89098 10.8102 3.85927 10.8086 3.85757C10.8071 3.85602 10.791 3.83478 10.7729 3.81058C10.7548 3.78637 10.7388 3.76514 10.7375 3.76344C10.7117 3.73372 10.5855 3.5572 10.5395 3.48699C10.4896 3.41041 10.4169 3.29137 10.4003 3.25881C10.3925 3.24338 10.3655 3.19624 10.3626 3.19285C10.3611 3.19129 10.3521 3.17671 10.3426 3.16043C10.2428 2.99156 10.1258 2.84137 10.0085 2.73181C9.95769 2.68425 9.74696 2.51764 9.49065 2.3223C9.45043 2.29172 9.41643 2.26511 9.41497 2.26341C9.41363 2.26172 9.40278 2.25294 9.39096 2.24402C9.37913 2.2351 9.36938 2.22392 9.36938 2.21897C9.36938 2.20991 9.37718 2.21316 9.40485 2.23383C9.48627 2.2947 9.6753 2.40822 9.77219 2.45451C9.7973 2.46654 9.8224 2.47871 9.82789 2.48155C9.8458 2.49075 9.90272 2.51467 9.95915 2.53661C9.98925 2.54822 10.0205 2.56181 10.0284 2.56648C10.0363 2.57129 10.0481 2.57511 10.0547 2.57511C10.0613 2.57511 10.0687 2.57766 10.0714 2.58077C10.0741 2.58375 10.0887 2.58898 10.1041 2.5921C10.1194 2.59535 10.1456 2.60215 10.1623 2.60724C10.1913 2.61616 10.2424 2.62876 10.2915 2.63923C10.3173 2.64476 10.3528 2.65466 10.3908 2.66684C10.405 2.67137 10.4207 2.67519 10.4258 2.67519C10.4309 2.67519 10.4467 2.67887 10.4608 2.68354C10.4751 2.68807 10.5037 2.69614 10.5247 2.70152C10.5455 2.70676 10.5706 2.71341 10.5804 2.71624C10.5901 2.71907 10.614 2.72586 10.6335 2.73124C10.653 2.73662 10.6804 2.74455 10.6943 2.74894C10.7083 2.75318 10.7345 2.76111 10.7526 2.76663C10.7707 2.77201 10.7935 2.7798 10.8033 2.7839C10.813 2.78801 10.8336 2.79579 10.8489 2.80131C10.8642 2.80697 10.8813 2.81377 10.8869 2.8166C10.8925 2.81929 10.9176 2.83132 10.9426 2.84307C10.999 2.8694 11.0946 2.92347 11.1351 2.95178C11.1518 2.96339 11.169 2.97485 11.1732 2.97712C11.1773 2.97938 11.1868 2.98575 11.1941 2.99142C11.2015 2.99708 11.2266 3.01562 11.2498 3.03275C11.2954 3.0663 11.3518 3.11131 11.3682 3.12731C11.3738 3.13269 11.3932 3.1501 11.4113 3.16609C11.6396 3.36681 12.0347 3.86324 12.245 4.21358C12.2643 4.24585 12.2825 4.27685 12.2853 4.28237C12.2881 4.28775 12.3062 4.32215 12.3253 4.35867C12.3644 4.43284 12.4289 4.57722 12.4551 4.64885C12.4646 4.67475 12.4742 4.69896 12.4765 4.70278C12.4789 4.70646 12.4829 4.71708 12.4853 4.72628C12.4877 4.73548 12.4946 4.75756 12.5005 4.7754C12.5266 4.85382 12.558 4.97923 12.5718 5.06077C12.574 5.07365 12.5784 5.09615 12.5815 5.11073C12.5879 5.14131 12.5999 5.2043 12.6048 5.23431C12.6066 5.24563 12.6113 5.27338 12.6152 5.29603C12.6191 5.31867 12.6246 5.35435 12.6274 5.37544C12.6302 5.39653 12.6347 5.4213 12.6375 5.43078C12.6402 5.44013 12.6425 5.45655 12.6425 5.46716C12.6425 5.47778 12.6462 5.50581 12.6507 5.52945C12.6578 5.56639 12.6589 5.6148 12.6583 5.8696C12.6576 6.10188 12.6591 6.18271 12.6651 6.24018C12.6693 6.28066 12.6728 6.32794 12.6728 6.34535C12.673 6.399 12.7024 6.56929 12.731 6.68154C12.7355 6.69923 12.7411 6.72174 12.7436 6.73151C12.751 6.76095 12.7711 6.8262 12.7823 6.85664C12.7862 6.86725 12.7894 6.87929 12.7894 6.88339C12.7894 6.89118 12.8171 6.9696 12.8383 7.02169C12.8452 7.03896 12.8735 7.11469 12.901 7.18999C12.9285 7.26516 12.9571 7.3423 12.9645 7.36155C12.972 7.38066 12.9837 7.41081 12.9906 7.42865C12.9974 7.44634 13.0083 7.47423 13.0147 7.49037C13.0212 7.5065 13.0314 7.53439 13.0377 7.55223C13.0439 7.56992 13.0512 7.59016 13.054 7.59696C13.0567 7.60389 13.058 7.61437 13.0568 7.62045C13.055 7.62951 13.0539 7.62852 13.0507 7.61536Z" fill="url(#paint0_linear_454_3737)"/>
</g>
<defs>
<linearGradient id="paint0_linear_454_3737" x1="10.0002" y1="1.66669" x2="10.0002" y2="19" gradientUnits="userSpaceOnUse">
<stop stop-color="#EDECF7"/>
<stop offset="1" stop-color="#EDECF7" stop-opacity="0"/>
</linearGradient>
</defs>
</svg>
