<svg width="33" height="33" viewBox="0 0 33 33" fill="none" xmlns="http://www.w3.org/2000/svg">
<path d="M29.574 13.9012H28.5V13.8459H16.5V19.1792H24.0353C22.936 22.2839 19.982 24.5125 16.5 24.5125C12.082 24.5125 8.49996 20.9305 8.49996 16.5125C8.49996 12.0945 12.082 8.51253 16.5 8.51253C18.5393 8.51253 20.3946 9.28187 21.8073 10.5385L25.5786 6.7672C23.1973 4.54787 20.012 3.1792 16.5 3.1792C9.13663 3.1792 3.16663 9.1492 3.16663 16.5125C3.16663 23.8759 9.13663 29.8459 16.5 29.8459C23.8633 29.8459 29.8333 23.8759 29.8333 16.5125C29.8333 15.6185 29.7413 14.7459 29.574 13.9012Z" fill="#FFC107"/>
<path d="M4.70404 10.3065L9.08471 13.5192C10.27 10.5845 13.1407 8.51253 16.5 8.51253C18.5394 8.51253 20.3947 9.28187 21.8074 10.5385L25.5787 6.7672C23.1974 4.54787 20.012 3.1792 16.5 3.1792C11.3787 3.1792 6.93737 6.07053 4.70404 10.3065Z" fill="#FF3D00"/>
<path d="M16.5 29.846C19.944 29.846 23.0733 28.528 25.4393 26.3847L21.3127 22.8927C19.929 23.9449 18.2383 24.514 16.5 24.5127C13.032 24.5127 10.0873 22.3013 8.978 19.2153L4.63 22.5653C6.83667 26.8833 11.318 29.846 16.5 29.846Z" fill="#4CAF50"/>
<path d="M29.574 13.9015H28.5V13.8462H16.5V19.1795H24.0353C23.5095 20.6571 22.5622 21.9483 21.3107 22.8935L21.3127 22.8922L25.4393 26.3842C25.1473 26.6495 29.8333 23.1795 29.8333 16.5129C29.8333 15.6189 29.7413 14.7462 29.574 13.9015Z" fill="#1976D2"/>
</svg>
