<svg width="33" height="32" viewBox="0 0 33 32" fill="none" xmlns="http://www.w3.org/2000/svg">
<path d="M30.5 10C30.5 11.0609 30.0786 12.0783 29.3284 12.8284C28.5783 13.5786 27.5609 14 26.5 14C25.8473 14.001 25.2046 13.8395 24.63 13.53L18.85 19.83C19.2712 20.4756 19.497 21.2291 19.5 22C19.5 23.0609 19.0786 24.0783 18.3284 24.8284C17.5783 25.5786 16.5609 26 15.5 26C14.4391 26 13.4217 25.5786 12.6716 24.8284C11.9214 24.0783 11.5 23.0609 11.5 22C11.4987 21.455 11.6147 20.9162 11.84 20.42L8.94 18.17C8.24271 18.7124 7.38338 19.0047 6.5 19C5.70888 19 4.93552 18.7654 4.27772 18.3259C3.61992 17.8864 3.10723 17.2616 2.80448 16.5307C2.50173 15.7998 2.42252 14.9956 2.57686 14.2196C2.7312 13.4437 3.11216 12.731 3.67157 12.1716C4.23098 11.6122 4.94372 11.2312 5.71964 11.0769C6.49556 10.9225 7.29983 11.0017 8.03074 11.3045C8.76164 11.6072 9.38635 12.1199 9.82588 12.7777C10.2654 13.4355 10.5 14.2089 10.5 15C10.4985 15.5436 10.3862 16.0812 10.17 16.58L13.06 18.83C13.6693 18.3612 14.4009 18.0779 15.167 18.014C15.9332 17.9502 16.7015 18.1085 17.38 18.47L23.15 12.17C22.7288 11.5244 22.503 10.7709 22.5 10C22.5 8.93913 22.9214 7.92172 23.6716 7.17157C24.4217 6.42143 25.4391 6 26.5 6C27.5609 6 28.5783 6.42143 29.3284 7.17157C30.0786 7.92172 30.5 8.93913 30.5 10Z" fill="#A9A0EA" fill-opacity="0.2"/>
</svg>
