<svg width="33" height="28" viewBox="0 0 33 28" fill="none" xmlns="http://www.w3.org/2000/svg">
<g filter="url(#filter0_d_1135_2727)">
<path d="M28.5 11H17.5V0C20.3412 0.228368 23.0083 1.46063 25.0239 3.47614C27.0394 5.49166 28.2716 8.1588 28.5 11Z" fill="#A9A0EA" fill-opacity="0.2"/>
<path d="M28.5 13C28.301 15.2756 27.4565 17.4471 26.066 19.2594C24.6754 21.0716 22.7965 22.4493 20.65 23.2306C18.5035 24.0119 16.1786 24.1643 13.9484 23.6699C11.7183 23.1755 9.67559 22.0549 8.06036 20.4396C6.44513 18.8244 5.32448 16.7817 4.83008 14.5516C4.33568 12.3214 4.48808 9.99652 5.26937 7.85001C6.05066 5.7035 7.42838 3.82457 9.24064 2.43401C11.0529 1.04346 13.2244 0.199045 15.5 0V12C15.5 12.2652 15.6054 12.5196 15.7929 12.7071C15.9804 12.8946 16.2348 13 16.5 13H28.5Z" fill="#A9A0EA" fill-opacity="0.2"/>
</g>
<defs>
<filter id="filter0_d_1135_2727" x="0.545641" y="0" width="31.9544" height="31.9546" filterUnits="userSpaceOnUse" color-interpolation-filters="sRGB">
<feFlood flood-opacity="0" result="BackgroundImageFix"/>
<feColorMatrix in="SourceAlpha" type="matrix" values="0 0 0 0 0 0 0 0 0 0 0 0 0 0 0 0 0 0 127 0" result="hardAlpha"/>
<feOffset dy="4"/>
<feGaussianBlur stdDeviation="2"/>
<feComposite in2="hardAlpha" operator="out"/>
<feColorMatrix type="matrix" values="0 0 0 0 0 0 0 0 0 0 0 0 0 0 0 0 0 0 0.25 0"/>
<feBlend mode="normal" in2="BackgroundImageFix" result="effect1_dropShadow_1135_2727"/>
<feBlend mode="normal" in="SourceGraphic" in2="effect1_dropShadow_1135_2727" result="shape"/>
</filter>
</defs>
</svg>
