<svg width="24" height="26" viewBox="0 0 24 26" fill="none" xmlns="http://www.w3.org/2000/svg">
<path d="M13 12.0792H7" stroke="#292D32" stroke-width="1.5" stroke-linecap="round" stroke-linejoin="round"/>
<path d="M2 12.0792V7.07422C2 4.86422 3.65 3.07672 5.69 3.07672H11.31C13.35 3.07672 15 4.45255 15 6.66255" stroke="#292D32" stroke-width="1.5" stroke-linecap="round" stroke-linejoin="round"/>
<path d="M17.48 13.2167C16.98 13.7367 16.74 14.5383 16.94 15.3617C17.19 16.3692 18.11 17.0084 19.07 17.0084H20V18.5792C20 20.9734 18.21 22.9125 16 22.9125H6C3.79 22.9125 2 20.9734 2 18.5792V10.9959C2 8.6017 3.79 6.66254 6 6.66254H16C18.2 6.66254 20 8.61254 20 10.9959V12.5667H18.92C18.36 12.5667 17.85 12.805 17.48 13.2167Z" stroke="#292D32" stroke-width="1.5" stroke-linecap="round" stroke-linejoin="round"/>
<path d="M22.0002 13.6717V15.9033C22.0002 16.51 21.5402 17.0084 20.9702 17.0084H19.0402C17.9602 17.0084 16.9702 16.1525 16.8802 14.9825C16.8202 14.3 17.0602 13.6609 17.4802 13.2167C17.8502 12.805 18.3602 12.5667 18.9202 12.5667H20.9702C21.5402 12.5667 22.0002 13.065 22.0002 13.6717Z" stroke="#292D32" stroke-width="1.5" stroke-linecap="round" stroke-linejoin="round"/>
</svg>
