<svg width="24" height="22" viewBox="0 0 24 22" fill="none" xmlns="http://www.w3.org/2000/svg">
<path d="M15.5799 11C15.5799 12.815 13.9799 14.2817 11.9999 14.2817C10.0199 14.2817 8.41992 12.815 8.41992 11C8.41992 9.18499 10.0199 7.71832 11.9999 7.71832C13.9799 7.71832 15.5799 9.18499 15.5799 11Z" stroke="#292D32" stroke-width="1.5" stroke-linecap="round" stroke-linejoin="round"/>
<path d="M11.9998 18.5808C15.5298 18.5808 18.8198 16.6741 21.1098 13.3741C22.0098 12.0816 22.0098 9.90914 21.1098 8.61664C18.8198 5.31664 15.5298 3.40997 11.9998 3.40997C8.46984 3.40997 5.17984 5.31664 2.88984 8.61664C1.98984 9.90914 1.98984 12.0816 2.88984 13.3741C5.17984 16.6741 8.46984 18.5808 11.9998 18.5808Z" stroke="#292D32" stroke-width="1.5" stroke-linecap="round" stroke-linejoin="round"/>
</svg>
