<svg width="372" height="462" viewBox="0 0 372 462" fill="none" xmlns="http://www.w3.org/2000/svg">
<path d="M399.903 461.622C399.838 461.456 399.782 461.059 399.782 460.739C399.782 459.916 399.429 457.072 399.023 454.635C398.936 454.119 398.775 453.13 398.666 452.44C398.553 451.75 398.42 451.01 398.37 450.795C398.316 450.58 398.24 450.154 398.201 449.852C398.161 449.55 398.085 449.128 398.034 448.913C397.944 448.54 397.772 447.755 397.397 446.012C396.907 443.741 395.548 438.034 395.345 437.389C395.289 437.219 395.154 436.687 395.044 436.216C394.934 435.74 394.762 435.069 394.663 434.726C394.348 433.624 394.187 433.04 393.683 431.199C393.412 430.207 393.127 429.184 393.046 428.924C392.967 428.664 392.82 428.173 392.721 427.826C392.341 426.483 392.135 425.774 392.037 425.476C391.98 425.303 391.749 424.492 391.521 423.673C391.295 422.855 391.061 422.04 391.008 421.87C390.951 421.697 390.825 421.274 390.726 420.927C390.357 419.644 389.802 417.777 389.632 417.245C389.41 416.555 389.345 416.344 388.908 414.891C388.229 412.636 387.459 410.108 387.287 409.561C387.192 409.26 387.068 408.871 387.014 408.701C386.338 406.521 385.636 404.299 385.408 403.605C385.25 403.13 385.067 402.568 384.999 402.349C384.731 401.496 384.308 400.176 384.035 399.35C383.934 399.033 383.846 398.739 383.846 398.694C383.846 398.648 383.686 398.128 383.488 397.539C383.291 396.955 383.082 396.332 383.026 396.159C382.97 395.985 382.764 395.363 382.567 394.774C382.369 394.186 382.206 393.673 382.206 393.635C382.206 393.597 382.054 393.126 381.865 392.586C381.676 392.051 381.391 391.225 381.233 390.749C381.076 390.274 380.808 389.478 380.639 388.98C380.47 388.482 380.193 387.637 380.027 387.102C379.858 386.562 379.54 385.608 379.323 384.978C379.106 384.344 378.925 383.797 378.925 383.763C378.925 383.726 378.688 383.02 378.398 382.198C378.108 381.372 377.871 380.67 377.871 380.636C377.871 380.58 377.383 379.154 376.527 376.717C376.062 375.393 375.566 373.963 375.058 372.484C374.853 371.881 374.585 371.111 374.461 370.772C374.34 370.432 374.238 370.097 374.238 370.025C374.238 369.882 373.813 368.629 372.835 365.902C372.462 364.865 371.935 363.386 371.662 362.609C371.149 361.156 369.934 357.788 368.181 352.967C367.105 350.006 364.044 341.782 362.84 338.621C362.643 338.105 361.721 335.672 360.794 333.212C357.838 325.385 357.226 323.895 356.665 323.178C356.431 322.876 355.557 322.182 354.723 321.635C352.886 320.428 352.829 320.394 351.011 319.481C350.738 319.342 350.341 319.13 350.129 319.01C349.915 318.889 349.656 318.791 349.546 318.791C349.439 318.791 349.137 318.693 348.875 318.572C347.598 317.98 346.82 317.799 344.363 317.535C342.438 317.324 336.843 317.327 334.989 317.539C334.182 317.633 332.996 317.765 332.35 317.837C331.708 317.908 330.704 318.048 330.127 318.146C327.804 318.534 327.046 318.663 326.308 318.78C325.882 318.848 325.276 318.98 324.961 319.074C324.642 319.164 324.042 319.327 323.622 319.428C322.125 319.802 321.914 319.858 321.161 320.092C320.744 320.224 319.794 320.553 319.053 320.82C318.312 321.088 317.52 321.371 317.294 321.45C316.756 321.631 315.882 322.046 315.626 322.239C315.516 322.325 315.321 322.397 315.195 322.397C315.068 322.397 314.935 322.461 314.899 322.54C314.862 322.62 314.662 322.733 314.456 322.797C314.25 322.857 314 322.967 313.901 323.038C313.802 323.11 313.247 323.423 312.666 323.729C312.086 324.038 311.48 324.366 311.319 324.461C310.648 324.857 310.203 325.109 307.745 326.479C306.328 327.267 305.119 327.976 305.057 328.055C304.995 328.131 304.882 328.195 304.806 328.195C304.682 328.195 304.048 328.572 301.77 329.998C301.449 330.202 300.894 330.538 300.539 330.749C299.42 331.416 298.741 331.828 298.126 332.212C297.799 332.416 297.495 332.586 297.453 332.586C297.368 332.586 295.984 333.408 295.463 333.767C295.28 333.895 295.085 333.997 295.026 333.997C294.969 333.997 294.645 334.166 294.304 334.378C293.605 334.804 289.964 336.796 288.822 337.373C288.194 337.69 286.852 338.323 286.066 338.674C285.674 338.848 285.226 339.059 285.068 339.142C284.91 339.225 284.465 339.417 284.079 339.568C283.69 339.723 283.163 339.934 282.907 340.043C282.444 340.236 281.421 340.617 280.621 340.896C280.395 340.971 279.922 341.141 279.567 341.266C279.212 341.394 278.552 341.613 278.101 341.752C277.65 341.892 276.991 342.103 276.638 342.22C275.787 342.503 274.44 342.899 274 342.997C273.809 343.039 273.253 343.182 272.771 343.318C271.396 343.699 269.978 344.031 269.023 344.197C268.538 344.28 268.065 344.389 267.966 344.442C267.87 344.495 267.447 344.593 267.03 344.653C266.61 344.717 265.9 344.849 265.449 344.944C263.09 345.438 262.115 345.604 261.627 345.6C261.329 345.6 260.802 345.672 260.455 345.766C259.719 345.958 258.333 346.102 253.496 346.486C248.499 346.883 239.102 346.879 234.224 346.483C232.256 346.324 230.306 346.166 229.886 346.132C229.007 346.064 226.016 345.653 224.731 345.426C224.249 345.34 223.446 345.208 222.947 345.132C222.448 345.057 221.997 344.955 221.941 344.91C221.887 344.868 221.453 344.755 220.974 344.668C220.047 344.495 218.939 344.208 217.702 343.823C215.918 343.272 215.148 343.046 214.624 342.925C214.317 342.854 213.894 342.726 213.686 342.643C213.477 342.556 212.885 342.371 212.369 342.228C211.854 342.084 211.248 341.899 211.022 341.816C210.797 341.733 210.349 341.601 210.027 341.522C209.703 341.447 209.125 341.281 208.739 341.153C208.35 341.024 207.561 340.772 206.981 340.587C206.4 340.398 205.659 340.145 205.329 340.021C205.002 339.9 204.599 339.798 204.436 339.798C204.272 339.798 203.914 339.693 203.641 339.561C203.367 339.432 202.962 339.327 202.739 339.327C202.519 339.327 202.234 339.255 202.11 339.165C201.984 339.074 201.552 338.934 201.149 338.855C199.419 338.508 198.754 338.357 198.367 338.218C197.708 337.984 194.923 337.739 191.397 337.61C189.594 337.543 187.826 337.407 187.471 337.305C187.116 337.199 186.431 337.011 185.949 336.879C185.465 336.747 184.859 336.566 184.602 336.475C184.112 336.301 183.407 336.151 181.73 335.864C180.38 335.634 173.455 335.641 172.474 335.875C172.054 335.973 171.333 336.117 170.868 336.192C170.403 336.268 169.825 336.4 169.58 336.486C169.335 336.569 168.515 336.833 167.756 337.071L166.378 337.505L166.057 337.184C165.831 336.962 165.727 336.701 165.702 336.309C165.671 335.83 165.721 335.698 166.054 335.377C166.265 335.17 166.756 334.868 167.142 334.71C167.531 334.551 168.295 334.227 168.841 333.993C169.388 333.759 170.392 333.333 171.068 333.05C171.744 332.771 172.35 332.492 172.415 332.439C172.48 332.382 172.849 332.209 173.235 332.054C174.112 331.699 178.96 328.467 179.397 327.946C179.498 327.825 179.616 327.727 179.661 327.727C179.78 327.727 181.017 326.588 182.725 324.902C183.565 324.076 184.487 323.189 184.777 322.933C185.296 322.473 186.722 321.499 187.178 321.292C187.308 321.235 187.598 321.103 187.824 320.998C188.472 320.696 189.481 320.326 189.991 320.206C190.248 320.145 190.67 320.017 190.93 319.926C191.186 319.832 191.899 319.64 192.511 319.5C193.122 319.361 193.914 319.176 194.267 319.093C195.417 318.825 196.302 318.632 197.139 318.478C197.59 318.391 198.196 318.255 198.486 318.176C199.568 317.871 200.436 317.652 201.006 317.539C201.327 317.478 201.828 317.346 202.119 317.252C202.409 317.158 203.066 316.961 203.582 316.818C205.213 316.365 206.031 316.124 206.454 315.973C206.679 315.894 207.231 315.72 207.682 315.588C208.133 315.46 208.872 315.241 209.323 315.109C209.774 314.977 210.354 314.868 210.614 314.868C210.87 314.864 211.397 314.762 211.783 314.638C212.172 314.513 212.75 314.408 213.074 314.4C213.395 314.396 213.869 314.321 214.128 314.234C214.385 314.151 215.151 314.012 215.828 313.929C216.504 313.846 217.533 313.702 218.111 313.615C218.728 313.521 221.746 313.468 225.377 313.491C234.179 313.536 238.961 313.483 241.662 313.302C242.952 313.216 245.114 313.068 246.467 312.974C247.82 312.884 249.982 312.748 251.27 312.672C252.56 312.601 253.851 312.465 254.142 312.374C254.432 312.288 255.091 312.208 255.604 312.201C256.12 312.193 256.808 312.122 257.129 312.039C257.45 311.956 258.242 311.82 258.885 311.737C259.53 311.654 260.269 311.514 260.528 311.428C260.785 311.341 261.233 311.269 261.523 311.265C261.813 311.265 262.233 311.194 262.459 311.111C262.684 311.028 263.293 310.888 263.809 310.798C264.322 310.707 265.218 310.534 265.799 310.413C266.379 310.292 267.25 310.115 267.732 310.024C268.217 309.934 268.848 309.79 269.138 309.707C269.837 309.511 271.14 309.225 272.01 309.081C272.397 309.013 272.977 308.885 273.298 308.791C274.088 308.561 275.28 308.263 275.993 308.116C276.314 308.051 277.081 307.882 277.692 307.742C278.304 307.603 279.147 307.422 279.567 307.342C279.987 307.259 280.564 307.127 280.855 307.041C281.371 306.893 282.726 306.603 283.549 306.463C283.775 306.426 284.409 306.294 284.956 306.173C286.917 305.735 287.726 305.584 288.763 305.456C289.344 305.385 289.924 305.286 290.054 305.237C290.598 305.034 296.404 304.472 300.657 304.215C302.106 304.125 303.777 303.981 304.369 303.895C304.958 303.812 306.173 303.74 307.063 303.736C307.954 303.736 309.369 303.627 310.206 303.495C312.162 303.185 316.936 303.136 317.999 303.415C318.416 303.525 319.183 303.672 319.698 303.747C320.614 303.879 321.671 304.102 323.799 304.611C325.916 305.12 326.745 305.305 327.548 305.456C327.999 305.539 328.551 305.683 328.777 305.769C329.002 305.86 329.371 305.935 329.597 305.935C329.822 305.935 330.431 306.033 330.944 306.158C331.46 306.282 332.517 306.501 333.289 306.641C334.061 306.784 334.879 306.961 335.104 307.033C335.33 307.108 335.778 307.21 336.102 307.267C336.716 307.372 338.004 307.742 338.503 307.957C338.664 308.029 339.112 308.206 339.498 308.357C339.884 308.508 340.414 308.723 340.671 308.829C340.927 308.938 341.457 309.153 341.843 309.308C342.229 309.462 342.711 309.685 342.914 309.798C343.117 309.915 343.34 310.009 343.41 310.009C343.593 310.009 345.668 310.922 345.913 311.107C346.023 311.194 346.195 311.265 346.288 311.265C346.383 311.265 346.634 311.363 346.849 311.484C347.06 311.605 347.469 311.827 347.759 311.978C348.455 312.344 349.757 313.178 350.631 313.823C352.156 314.947 352.697 315.366 353.105 315.735C353.494 316.09 353.852 316.241 353.852 316.049C353.852 315.981 353.072 314.189 352.793 313.615C352.731 313.487 352.643 313.276 352.601 313.144C352.559 313.016 352.215 312.224 351.84 311.386C351.465 310.549 351.158 309.824 351.158 309.772C351.158 309.723 350.947 309.255 350.687 308.738C350.431 308.217 350.219 307.765 350.219 307.735C350.219 307.674 348.703 304.234 348.458 303.74C348.396 303.612 348.308 303.397 348.263 303.268C348.218 303.14 347.421 301.341 346.485 299.27C345.552 297.203 344.706 295.309 344.605 295.064C344.377 294.521 344.27 294.279 343.861 293.434C343.686 293.068 343.542 292.733 343.542 292.684C343.542 292.634 343.483 292.51 343.416 292.404C343.345 292.303 342.925 291.439 342.483 290.492C341.045 287.41 340.563 286.399 339.089 283.362C338.54 282.235 338.041 281.19 337.973 281.043C337.908 280.892 337.652 280.348 337.407 279.832C337.159 279.315 336.711 278.376 336.412 277.749C334.487 273.709 329.49 263.785 327.906 260.861C327.582 260.258 326.902 258.953 326.398 257.96C324.763 254.735 324.219 253.724 321.353 248.575C319.797 245.78 318.182 242.875 317.765 242.121C316.81 240.401 315.336 237.817 314.544 236.482C312.072 232.313 309.727 228.383 309.625 228.239C309.558 228.149 309.372 227.843 309.211 227.564C309.05 227.289 308.343 226.127 307.641 224.991C306.939 223.852 305.939 222.215 305.42 221.355C304.217 219.356 302.847 217.209 301.069 214.531C300.294 213.365 299.318 211.883 298.901 211.238C298.481 210.593 298.112 210.031 298.078 209.989C298.047 209.944 297.388 208.956 296.615 207.794C295.84 206.632 294.888 205.221 294.496 204.659C294.104 204.097 293.552 203.286 293.267 202.856C292.692 201.985 291.565 200.355 290.933 199.48C290.708 199.167 289.493 197.473 288.236 195.712C283.961 189.725 282.227 187.454 281.734 187.175C280.367 186.406 278.276 185.455 276.579 184.836C276.193 184.697 275.717 184.516 275.525 184.436C275.331 184.357 274.699 184.15 274.119 183.969C273.538 183.791 272.853 183.58 272.594 183.497C272.337 183.418 271.836 183.312 271.483 183.263C271.128 183.214 270.601 183.109 270.311 183.029C268.034 182.407 267.56 182.354 264.978 182.437C261.591 182.539 258.831 182.946 256.191 183.731C255.74 183.863 255.134 184.04 254.843 184.123C254.553 184.21 254.184 184.338 254.023 184.41C253.863 184.486 253.44 184.663 253.087 184.802C252.414 185.074 249.556 186.326 248.048 187.017C247.566 187.235 247.079 187.484 246.966 187.571C246.853 187.658 246.667 187.726 246.549 187.726C246.43 187.726 246.233 187.828 246.109 187.956C245.982 188.084 245.776 188.19 245.647 188.197C245.517 188.201 245.309 188.311 245.185 188.435C245.061 188.563 244.869 188.665 244.762 188.665C244.584 188.665 244.074 188.94 243.567 189.303C243.457 189.386 243.307 189.45 243.24 189.45C243.169 189.45 242.868 189.597 242.563 189.774C242.034 190.083 241.876 190.174 241.047 190.638C240.836 190.755 240.492 190.951 240.283 191.076C240.075 191.196 239.694 191.415 239.438 191.558C238.809 191.913 238.635 192.015 237.699 192.577C237.259 192.841 236.873 193.056 236.839 193.056C236.805 193.056 236.439 193.267 236.019 193.527C235.602 193.784 235.196 193.995 235.117 193.995C235.038 193.995 234.923 194.059 234.861 194.139C234.799 194.218 234.407 194.471 233.987 194.704C233.167 195.165 232.383 195.617 231.82 195.957C230.447 196.787 229.864 197.134 229.827 197.134C229.804 197.134 229.328 197.413 228.773 197.76C228.218 198.103 227.741 198.386 227.713 198.386C227.685 198.386 227.333 198.59 226.93 198.835C226.526 199.08 225.906 199.442 225.551 199.638C225.196 199.835 224.618 200.167 224.263 200.378C223.908 200.589 223.435 200.868 223.209 200.996C222.75 201.257 222.609 201.34 221.684 201.883C221.332 202.094 220.565 202.532 219.985 202.86C219.407 203.184 218.883 203.512 218.821 203.584C218.759 203.656 218.643 203.716 218.562 203.716C218.48 203.716 218.057 203.935 217.62 204.207C217.181 204.474 216.665 204.784 216.47 204.893C216.279 205.003 215.881 205.236 215.594 205.414C215.303 205.587 214.748 205.915 214.362 206.142C213.976 206.372 213.395 206.719 213.074 206.915C211.298 208.009 210.306 208.612 209.441 209.137C209.12 209.329 206.22 211.234 202.995 213.365C196.335 217.775 193.582 219.563 192.57 220.133C192.181 220.348 191.654 220.653 191.397 220.808C190.132 221.562 187.08 223.094 185.479 223.773C184.867 224.033 184.208 224.327 184.016 224.422C183.821 224.52 183.48 224.652 183.255 224.72C183.029 224.788 182.421 224.999 181.905 225.195C181.392 225.387 180.783 225.602 180.558 225.67C180.332 225.738 179.78 225.912 179.329 226.055C177.604 226.606 175.414 227.179 174.273 227.379C173.81 227.462 173.126 227.602 172.751 227.689C171.547 227.971 170.113 228.19 168.608 228.326C167.801 228.398 166.536 228.53 165.795 228.62C162.328 229.039 150.784 228.96 147.399 228.492C144.504 228.092 143.628 227.987 142.218 227.858C141.396 227.787 140.674 227.681 140.609 227.628C140.547 227.575 139.82 227.466 138.997 227.387C137.447 227.236 135.251 226.945 132.52 226.53C131.649 226.398 130.33 226.217 129.589 226.134C128.848 226.048 128.112 225.934 127.949 225.882C127.788 225.829 127.129 225.727 126.486 225.659C125.841 225.591 124.708 225.459 123.966 225.369C123.225 225.274 121.511 225.093 120.159 224.965C116.943 224.663 116.176 224.584 114.77 224.41C112.526 224.139 109.99 224.226 106.216 224.712C104.947 224.878 102.65 225.323 102.518 225.437C102.464 225.478 102.061 225.584 101.624 225.67C101.185 225.753 100.455 225.923 100.004 226.044C99.5529 226.165 98.8681 226.342 98.4819 226.436C98.0958 226.53 97.5941 226.674 97.3687 226.749C97.1432 226.825 96.5372 227.01 96.0214 227.153C95.5057 227.3 94.8631 227.481 94.5953 227.56C93.5412 227.866 93.3975 227.172 94.3839 226.546C94.739 226.319 95.0744 226.134 95.1252 226.134C95.1759 226.134 95.717 225.848 96.323 225.497C97.8252 224.625 98.0789 224.471 99.3613 223.664C99.9729 223.275 100.973 222.649 101.588 222.272C102.199 221.891 102.78 221.525 102.876 221.457C102.972 221.385 103.448 221.204 103.93 221.049C104.415 220.895 104.942 220.699 105.102 220.608C105.263 220.521 105.579 220.389 105.804 220.318C106.514 220.095 107.588 219.737 108.499 219.424C108.983 219.258 109.801 219.005 110.317 218.858C110.832 218.711 111.543 218.496 111.898 218.379C112.253 218.262 112.859 218.084 113.245 217.983C113.986 217.786 114.434 217.658 115.297 217.383C116.317 217.062 117.047 216.859 117.721 216.715C121.131 215.995 122.907 215.674 124.668 215.467C125.409 215.38 126.201 215.24 126.427 215.157C126.652 215.074 127.154 215.006 127.54 215.006C127.926 215.006 128.69 214.897 129.24 214.769C129.786 214.64 130.482 214.535 130.784 214.535C131.088 214.535 131.59 214.463 131.897 214.376C132.207 214.286 133.013 214.15 133.69 214.067C136.207 213.762 138.436 213.426 140.017 213.113C140.502 213.015 141.24 212.883 141.658 212.815C142.576 212.668 143.704 212.392 144.614 212.09C144.986 211.97 145.423 211.868 145.589 211.868C145.756 211.868 145.998 211.792 146.128 211.702C146.254 211.608 146.607 211.472 146.908 211.393C147.619 211.212 148.695 210.857 149.51 210.536C150.169 210.276 151.175 209.937 152.06 209.672C152.334 209.593 152.661 209.454 152.785 209.363C152.909 209.276 153.129 209.205 153.275 209.205C153.422 209.205 153.757 209.107 154.016 208.99C154.572 208.733 155.383 208.401 156.364 208.028C156.75 207.877 157.621 207.511 158.298 207.209C158.974 206.911 159.684 206.606 159.879 206.534C160.07 206.459 160.73 206.161 161.344 205.863C161.956 205.568 162.562 205.274 162.692 205.214C162.818 205.15 163.03 205.04 163.16 204.972C163.289 204.901 163.737 204.686 164.154 204.493C164.574 204.297 164.966 204.078 165.028 204.007C165.09 203.931 165.234 203.875 165.347 203.875C165.459 203.875 165.727 203.777 165.938 203.656C166.15 203.535 166.561 203.313 166.849 203.162C167.139 203.015 167.537 202.803 167.728 202.698C167.923 202.588 168.343 202.377 168.667 202.222C168.988 202.068 169.301 201.883 169.363 201.811C169.425 201.736 169.549 201.679 169.639 201.679C169.729 201.679 169.969 201.581 170.172 201.464C170.375 201.347 170.752 201.144 171.009 201.012C171.93 200.54 173.357 199.767 173.54 199.638C173.644 199.571 174.197 199.25 174.771 198.933C175.344 198.616 176.076 198.197 176.401 198.005C176.722 197.813 177.432 197.386 177.982 197.058C179.163 196.353 181.877 194.625 182.784 194.003C184.461 192.848 187.125 191.011 188.878 189.801C192.525 187.277 195.915 185.04 197.725 183.961C198.046 183.773 198.748 183.339 199.283 183.003C199.819 182.671 200.278 182.396 200.307 182.396C200.332 182.396 200.659 182.215 201.031 181.992C202.116 181.343 202.358 181.207 203.348 180.668C203.863 180.389 204.452 180.064 204.655 179.944C204.858 179.827 205.098 179.729 205.188 179.729C205.278 179.729 205.402 179.668 205.464 179.589C205.523 179.514 205.943 179.291 206.394 179.095C206.845 178.899 207.265 178.68 207.327 178.608C207.386 178.537 207.51 178.476 207.601 178.476C207.691 178.476 207.93 178.382 208.133 178.265C208.336 178.152 208.689 177.975 208.914 177.869C209.991 177.379 211.738 176.609 212.369 176.349C212.756 176.19 213.122 176.006 213.184 175.934C213.246 175.866 213.39 175.809 213.502 175.809C213.615 175.809 213.962 175.704 214.269 175.572C214.579 175.44 215.095 175.236 215.416 175.115C215.74 174.995 216.293 174.787 216.648 174.655C217 174.523 217.66 174.301 218.111 174.161C218.562 174.021 219.117 173.84 219.342 173.761C219.568 173.682 220.041 173.546 220.396 173.456C220.751 173.365 221.411 173.188 221.862 173.063C222.313 172.939 223.043 172.765 223.488 172.679C223.931 172.592 224.483 172.452 224.717 172.365C224.951 172.279 225.326 172.207 225.551 172.207C225.777 172.211 226.462 172.105 227.076 171.981C228.55 171.675 230.14 171.422 231.645 171.253C232.321 171.177 233.482 171.049 234.224 170.962C235.977 170.766 244.953 170.762 246.467 170.958C247.11 171.041 248.009 171.147 248.46 171.188C249.235 171.268 250.39 171.479 252.383 171.901C254.065 172.26 254.44 172.35 255.255 172.588C255.706 172.716 256.365 172.905 256.718 173.003C257.073 173.101 257.456 173.241 257.566 173.32C257.679 173.395 257.87 173.459 257.992 173.459C258.116 173.459 258.471 173.557 258.786 173.682C259.099 173.803 259.697 174.021 260.117 174.165C260.931 174.444 261.492 174.651 263.924 175.587C264.31 175.738 264.838 175.949 265.097 176.055C265.353 176.164 265.88 176.368 266.269 176.511C266.655 176.654 267.061 176.835 267.174 176.918C267.287 176.998 267.464 177.066 267.566 177.066C267.67 177.066 267.921 177.16 268.124 177.281C268.327 177.398 268.733 177.616 269.023 177.767C269.31 177.922 269.719 178.144 269.928 178.265C270.136 178.386 270.505 178.597 270.748 178.737C270.99 178.876 271.28 179.054 271.393 179.125C271.503 179.201 271.655 179.261 271.731 179.261C271.94 179.261 276.416 181.819 278.205 182.962C279.437 183.75 279.155 183.275 276.097 179.427C275.59 178.789 274.254 177.096 273.132 175.666C272.01 174.236 271.035 172.995 270.965 172.909C270.894 172.826 270.283 172.083 269.609 171.264C268.335 169.721 268.003 169.325 266.901 168.035C265.314 166.179 264.739 165.523 264.449 165.228C264.277 165.055 263.772 164.485 263.327 163.957C261.123 161.347 255.675 155.251 254.446 154.017C254.144 153.716 253.826 153.387 253.741 153.282C253.654 153.18 252.854 152.354 251.96 151.452C251.064 150.547 249.59 149.042 248.679 148.11C247.772 147.178 246.27 145.643 245.342 144.7C244.412 143.753 243.584 142.889 243.499 142.776C243.415 142.663 243.234 142.493 243.102 142.399C242.969 142.305 242.262 141.633 241.532 140.909C240.799 140.189 240.171 139.596 240.128 139.596C240.089 139.596 239.855 139.385 239.613 139.125C239.367 138.868 239.114 138.653 239.049 138.653C238.981 138.653 238.911 138.6 238.888 138.536C238.857 138.442 234.77 134.711 233.694 133.795C233.375 133.523 226.944 127.786 226.464 127.344C226.29 127.186 226.118 127.054 226.081 127.054C226.047 127.054 225.715 126.782 225.346 126.454C224.587 125.775 223.725 125.039 221.882 123.493C221.186 122.908 220.492 122.323 220.343 122.195C220.193 122.063 219.61 121.569 219.049 121.097C218.485 120.622 217.905 120.128 217.755 120C217.026 119.37 215.16 117.868 214.985 117.774C214.878 117.714 214.588 117.495 214.342 117.291C213.801 116.835 213.023 116.25 211.842 115.413C211.36 115.066 210.805 114.662 210.614 114.511C210.419 114.36 209.996 114.043 209.675 113.806C209.094 113.376 208.841 113.191 206.921 111.791C206.375 111.392 205.848 110.995 205.749 110.913C205.653 110.83 205.337 110.599 205.047 110.403C204.757 110.207 204.204 109.8 203.815 109.494C203.429 109.192 202.877 108.777 202.587 108.578C201.648 107.925 200.867 107.359 200.343 106.952C198.88 105.801 191.778 100.909 186.476 97.3929C185.425 96.6951 184.706 96.2122 184.016 95.7332C183.582 95.4352 182.88 94.9976 181.262 94.0206C180.907 93.8056 180.355 93.4623 180.031 93.2586C179.351 92.8323 178.396 92.5155 176.75 92.176C176.107 92.044 175.158 91.8327 174.642 91.712C173.715 91.4894 172.463 91.2216 170.189 90.7576C169.546 90.6294 168.701 90.4483 168.314 90.3653C167.928 90.2786 167.19 90.139 166.674 90.0598C165.871 89.9315 165.045 89.7844 162.748 89.3619C161.516 89.1356 158.439 88.7848 156.567 88.6565C152.793 88.4038 145.57 88.7999 142.362 89.4336C140.04 89.8938 139.051 90.1201 138.321 90.3616C137.996 90.4672 137.416 90.6596 137.03 90.7878C135.86 91.1764 134.335 91.7837 133.749 92.093C133.619 92.1647 133.171 92.3797 132.754 92.5721C132.334 92.7682 131.942 92.9832 131.88 93.0587C131.818 93.1303 131.697 93.1907 131.61 93.1907C131.523 93.1907 131.15 93.3755 130.784 93.5981C130.418 93.8207 129.302 94.4619 128.301 95.0164C127.303 95.571 126.379 96.0878 126.252 96.1594C125.984 96.3103 124.609 97.0497 123.352 97.7173C122.36 98.2455 121.035 98.932 120.452 99.2225C120.226 99.3356 119.803 99.5469 119.513 99.6978C119.223 99.8449 118.775 100.075 118.518 100.203C118.259 100.331 117.943 100.501 117.814 100.573C117.687 100.648 117.318 100.822 116.993 100.961C116.672 101.101 116.249 101.308 116.058 101.422C115.863 101.535 115.39 101.772 115.004 101.95C114.615 102.123 114.009 102.418 113.656 102.599C112.585 103.142 112.225 103.319 111.43 103.693C111.01 103.885 110.618 104.107 110.556 104.183C110.494 104.258 110.37 104.322 110.28 104.322C110.19 104.322 109.925 104.432 109.688 104.568C109.454 104.703 109.102 104.907 108.91 105.02C108.716 105.13 108.321 105.349 108.031 105.499C107.741 105.65 107.337 105.873 107.135 105.99C106.932 106.107 106.737 106.201 106.703 106.201C106.67 106.201 106.281 106.42 105.844 106.684C105.404 106.952 104.885 107.261 104.691 107.374C103.651 107.982 102.729 108.566 100.824 109.822C98.7666 111.184 98.3748 111.463 96.3146 113.021C95.7678 113.436 95.159 113.893 94.9673 114.032C94.7729 114.172 94.3106 114.549 93.9386 114.87C93.5666 115.19 93.2199 115.45 93.1664 115.45C93.1128 115.45 92.862 115.65 92.6111 115.892C92.3603 116.133 92.0756 116.382 91.9798 116.443C91.8811 116.503 91.6444 116.692 91.4527 116.865C91.2583 117.035 91.0215 117.223 90.9257 117.284C90.827 117.34 90.3282 117.755 89.8124 118.204C89.2966 118.649 88.6907 119.151 88.4652 119.317C88.2369 119.483 87.8282 119.811 87.5548 120.045C87.2786 120.283 85.9596 121.358 84.6237 122.433C83.2877 123.512 82.1152 124.462 82.0194 124.545C81.9236 124.632 81.7319 124.768 81.5995 124.847C81.4642 124.926 81.002 125.277 80.5707 125.628C80.1395 125.982 79.7619 126.269 79.7309 126.269C79.697 126.269 79.4659 126.443 79.2179 126.654C78.9671 126.865 78.1384 127.48 77.3746 128.019C76.6108 128.559 75.5117 129.34 74.931 129.751C74.3504 130.162 73.798 130.543 73.6994 130.6C73.6036 130.656 72.944 131.071 72.2366 131.524C69.9199 133.006 68.66 133.795 68.6093 133.795C68.5839 133.795 68.2203 134.006 67.8032 134.266C67.3833 134.523 67.0141 134.734 66.9774 134.734C66.9013 134.734 65.7119 135.432 65.2243 135.764C65.044 135.888 64.8326 135.99 64.7565 135.99C64.6804 135.99 64.4887 136.081 64.3281 136.194C64.1646 136.303 63.77 136.522 63.4487 136.673C63.1274 136.828 62.7582 137.016 62.6286 137.095C62.1522 137.382 58.5446 138.963 57.4736 139.355C57.1495 139.476 56.6506 139.657 56.3603 139.766C56.07 139.872 55.6219 140.011 55.3626 140.079C55.1061 140.143 54.472 140.317 53.9562 140.46C49.7849 141.622 45.1345 142.101 40.8758 141.807C37.2513 141.554 33.1843 140.611 30.5237 139.411C30.3292 139.321 29.9882 139.193 29.7627 139.117C29.5373 139.046 29.075 138.872 28.7368 138.736C27.1049 138.072 25.8874 137.623 25.0813 137.393C24.7938 137.31 24.3992 137.171 24.2019 137.088C22.9759 136.556 22.68 136.462 22.2882 136.458C21.7555 136.458 21.1242 135.967 20.9748 135.439C20.8452 134.987 20.9664 134.459 21.282 134.093C21.516 133.825 23.3451 133.01 23.7087 133.01C23.8299 133.01 24.0667 132.916 24.2358 132.799C24.4077 132.682 24.7318 132.478 24.9573 132.346C25.4308 132.071 26.9978 131.037 27.7701 130.494C28.3873 130.06 32.2852 126.91 33.018 126.25C33.2971 126.001 33.5563 125.798 33.5958 125.798C33.6353 125.798 33.7508 125.7 33.8551 125.583C34.0327 125.371 39.4638 120.939 39.5427 120.939C39.5653 120.939 39.9429 120.622 40.3854 120.234C40.8251 119.845 41.2281 119.528 41.2817 119.528C41.3352 119.528 41.5466 119.358 41.7496 119.155C41.9553 118.947 42.3865 118.593 42.7106 118.366C43.0319 118.14 43.559 117.748 43.8803 117.495C44.2044 117.246 44.6779 116.884 44.9344 116.692C45.6785 116.141 46.0533 115.858 46.2619 115.684C46.3718 115.598 47.3808 114.847 48.5082 114.013C50.3176 112.678 51.7522 111.716 55.8333 109.102C57.5695 107.993 65.1511 102.938 65.9092 102.387C66.2953 102.108 67.124 101.508 67.7525 101.06C68.3782 100.611 69.4069 99.8449 70.0382 99.3583C70.6667 98.8716 71.2614 98.419 71.3573 98.3511C71.4531 98.2832 71.9322 97.906 72.4226 97.5136C72.9102 97.1176 73.3414 96.7969 73.3837 96.7969C73.4232 96.7969 74.0658 96.3028 74.8127 95.6992C75.5596 95.0957 76.1965 94.6015 76.2275 94.6015C76.2585 94.6015 76.4784 94.4355 76.7208 94.2318C76.9603 94.0319 77.4986 93.617 77.9186 93.3114C78.8543 92.6324 79.8971 91.8667 80.6722 91.2857C81.2782 90.8331 85.1592 88.2491 85.8863 87.8153C87.2645 86.993 87.6479 86.7704 88.2003 86.4686C88.5385 86.2876 89.0909 85.9858 89.4291 85.801C89.7645 85.6199 90.3056 85.3445 90.6298 85.1974C91.7881 84.6655 93.4538 83.9375 94.088 83.6848C94.4431 83.5452 94.8602 83.3641 95.0181 83.2811C95.1759 83.2019 95.5198 83.0737 95.7791 82.9982C96.0412 82.9228 96.571 82.7455 96.96 82.6021C98.0056 82.2211 100.466 81.5007 101.295 81.3347C101.486 81.297 102.092 81.1649 102.642 81.0442C103.899 80.7613 106.171 80.3501 106.858 80.2785C107.149 80.2483 108.045 80.1427 108.851 80.0484C112.177 79.6485 115.559 79.5089 119.572 79.6032C124.279 79.7164 127.89 79.939 128.653 80.1653C128.944 80.2521 129.445 80.3237 129.767 80.3275C130.091 80.3313 130.539 80.4105 130.762 80.501C130.987 80.5916 131.621 80.7311 132.168 80.8066C132.715 80.8782 133.532 81.0216 133.983 81.1197C135.285 81.3988 136.92 81.7194 138.377 81.9835C139.857 82.2513 140.79 82.4286 142.128 82.7002C142.61 82.7945 143.374 82.9303 143.825 82.9982C144.609 83.1152 145.274 83.2472 147.106 83.6433C147.559 83.7413 148.349 83.8734 148.864 83.9337C149.38 83.9979 150.119 84.1337 150.505 84.2317C150.891 84.3336 152.077 84.5222 153.14 84.6504C154.205 84.7825 155.338 84.956 155.66 85.0352C155.984 85.1144 156.748 85.2917 157.359 85.4237C159.374 85.8689 161.367 86.363 163.1 86.8459C163.52 86.9628 164.019 87.1024 164.214 87.1552C164.867 87.3325 165.969 87.6795 166.615 87.9096C166.97 88.0379 167.892 88.3661 168.667 88.6414C169.439 88.9206 170.256 89.2035 170.482 89.2752C170.707 89.3468 171.313 89.5581 171.829 89.7467C172.345 89.9353 172.951 90.1465 173.176 90.2182C173.402 90.2937 173.903 90.4672 174.29 90.6068C175.628 91.0896 175.888 91.1575 176.003 91.0632C176.136 90.9538 175.913 90.5238 175.721 90.5238C175.656 90.5238 175.307 90.3427 174.946 90.1164C174.585 89.89 174.106 89.5958 173.881 89.4638C173.655 89.328 172.824 88.8074 172.032 88.3057C171.24 87.8002 170.569 87.3891 170.541 87.3891C170.513 87.3891 170.211 87.2193 169.87 87.0081C169.529 86.7968 168.83 86.4045 168.314 86.1329C167.799 85.8576 167.218 85.5407 167.026 85.4275C166.832 85.3106 166.463 85.1031 166.206 84.9598C165.947 84.8202 165.631 84.6391 165.502 84.5637C165.375 84.4882 164.794 84.1751 164.214 83.8658C163.633 83.5565 163.027 83.2246 162.866 83.1302C162.706 83.0322 162.39 82.8511 162.165 82.7228C161.939 82.5946 161.604 82.3947 161.421 82.274C161.24 82.157 161.046 82.0589 160.989 82.0589C160.936 82.0589 160.55 81.8477 160.132 81.5874C159.713 81.3309 159.324 81.1197 159.264 81.1197C159.205 81.1197 158.791 80.882 158.346 80.5916C157.9 80.3011 157.246 79.905 156.891 79.7089C156.536 79.5165 156.088 79.2675 155.894 79.1581C155.702 79.0525 154.938 78.6677 154.197 78.3056C153.456 77.9435 152.65 77.5474 152.41 77.4229C152.168 77.2984 151.773 77.1023 151.531 76.9816C150.834 76.6383 150.068 76.2347 149.668 76.0008C149.465 75.8839 149.217 75.7895 149.118 75.7895C149.019 75.7895 148.909 75.7254 148.873 75.65C148.839 75.5745 148.69 75.4765 148.543 75.4312C148.399 75.3859 147.988 75.1973 147.636 75.0087C147.28 74.8201 146.858 74.6088 146.697 74.5334C146.536 74.4617 146.114 74.2505 145.758 74.0694C144.578 73.4583 143.498 72.9604 140.136 71.4591C138.298 70.6405 136.692 69.9087 136.562 69.8332C136.432 69.7578 135.984 69.5579 135.567 69.3843C134.845 69.0863 134.538 68.9505 133.574 68.4979C133.064 68.2565 132.207 67.9056 131.289 67.5624C130.902 67.4153 130.454 67.238 130.294 67.1663C130.133 67.0946 129.685 66.9173 129.299 66.7702C128.91 66.6269 128.383 66.4232 128.126 66.3138C127.867 66.2044 127.34 65.9931 126.954 65.8385C126.568 65.6876 126.111 65.4914 125.939 65.4084C125.767 65.3255 125.452 65.1972 125.235 65.1255C125.02 65.0539 124.555 64.8766 124.2 64.737C123.845 64.5974 122.949 64.273 122.208 64.0127C121.466 63.7562 120.57 63.4394 120.218 63.3073C119.863 63.1791 119.344 63.0056 119.068 62.9263C118.789 62.8471 118.515 62.7453 118.459 62.6962C118.403 62.651 118.129 62.5453 117.853 62.4624C117.213 62.2738 116.142 61.9192 115.238 61.5948C113.992 61.1459 113.143 60.878 112.484 60.7234C112.129 60.6404 111.681 60.5046 111.489 60.4216C111.295 60.3424 110.108 60.199 108.851 60.1047C105.274 59.8407 103.611 59.6822 102.408 59.5012C100.909 59.2748 92.0869 59.222 79.852 59.3692C67.0789 59.52 62.2932 59.339 55.6557 58.4563C54.5932 58.3129 53.4602 58.1696 53.1361 58.1356C52.8147 58.1017 51.8931 57.9697 51.087 57.8414C48.0149 57.351 47.471 57.2756 46.0195 57.1322C45.1965 57.0493 44.1931 56.9097 43.7929 56.8229C43.3899 56.7362 42.7276 56.6645 42.3217 56.6645C41.9158 56.6607 41.231 56.589 40.7997 56.5023C40.3685 56.4155 39.3821 56.2722 38.6098 56.1854C37.8347 56.0949 36.6228 55.9214 35.9126 55.8007C35.2051 55.6799 34.1764 55.5102 33.6296 55.4234C32.6206 55.265 31.6905 55.0688 30.4053 54.7482C30.0192 54.6501 29.4132 54.5257 29.0581 54.4653C28.3704 54.3559 27.3642 54.1107 26.1298 53.7599C25.7098 53.6392 25.2109 53.5072 25.0165 53.4694C24.8248 53.4279 24.2696 53.2884 23.7876 53.1601C20.7663 52.3491 19.2218 51.9794 18.1536 51.8134C17.728 51.7493 17.3193 51.6437 17.2404 51.5796C17.1643 51.5154 16.4569 51.3985 15.6677 51.3193C14.8814 51.2401 13.7371 51.1043 13.1255 51.0213C12.5111 50.9383 10.7467 50.8666 9.19939 50.8628C6.44577 50.8591 5.54387 50.9534 2.63806 51.5645C0.45095 52.0209 0 52.0209 0 51.5494C0 51.4287 0.0676433 51.3306 0.146559 51.3306C0.276208 51.3306 2.68597 50.1612 3.33985 49.7802C3.4695 49.7048 3.81335 49.5162 4.10083 49.3615C4.39113 49.2068 5.3804 48.5995 6.29921 48.0111C7.22084 47.4226 8.02128 46.9398 8.08047 46.9398C8.13966 46.9398 8.52014 46.638 8.92882 46.2645C9.33467 45.8911 10.0111 45.2762 10.4282 44.8952C11.1751 44.22 13.4186 42.0661 13.6525 41.802C13.7596 41.6813 14.7066 40.7571 16.0538 39.4557C17.4856 38.0751 20.8226 35.4195 22.2037 34.5594C22.5926 34.318 23.1704 33.9709 23.4945 33.7823C23.8158 33.5937 24.185 33.3749 24.3147 33.2957C24.6191 33.1033 25.9973 32.4319 26.8907 32.0433C27.2769 31.8736 27.7785 31.6548 28.004 31.5529C28.2295 31.4511 28.5987 31.3115 28.8242 31.2474C29.0497 31.1795 29.5513 31.0098 29.9375 30.8702C30.9549 30.5005 32.1528 30.1874 33.1589 30.0214C33.6437 29.9422 34.2751 29.8026 34.5653 29.7083C34.8556 29.614 36.5157 29.4971 38.2575 29.4481C42.3555 29.3274 46.6593 29.6027 49.6299 30.1761C50.0865 30.2629 50.9546 30.3987 51.5634 30.4779C52.1721 30.5571 53.2488 30.7344 53.9562 30.8664C54.6665 31.0022 55.4584 31.1493 55.7149 31.1908C56.3829 31.3078 58.1585 31.685 59.0548 31.9C59.4747 32.0018 60.1314 32.1376 60.5204 32.2018C60.9065 32.2697 61.5378 32.4092 61.9239 32.5111C62.3129 32.6167 62.9978 32.794 63.4487 32.9109C63.8997 33.0241 64.6917 33.2278 65.2046 33.3636C65.7204 33.4956 66.2869 33.6427 66.4645 33.688C67.2593 33.8955 69.1082 34.401 70.0101 34.6575C70.461 34.7895 71.098 34.9932 71.4249 35.1177C71.7547 35.2384 72.1408 35.3402 72.2845 35.3402C72.4283 35.3402 72.6397 35.4081 72.7552 35.4911C72.8708 35.5741 73.2513 35.7137 73.5979 35.8004C74.4068 35.9966 75.5596 36.355 76.453 36.6756C76.8419 36.8152 77.3408 36.9849 77.5663 37.049C77.7918 37.1169 78.161 37.2452 78.3865 37.3395C78.6119 37.4338 79.1136 37.6224 79.4997 37.762C82.2815 38.7579 85.2944 40.1649 87.5858 41.538C87.9072 41.7303 88.4342 42.0472 88.7555 42.2396C89.6039 42.7451 92.3857 44.6123 93.2086 45.2234C93.5948 45.5101 94.2035 45.9477 94.5558 46.2004C94.911 46.4494 95.3591 46.7889 95.5536 46.9548C95.7452 47.117 95.982 47.3019 96.0806 47.3622C96.23 47.4565 98.0028 48.8447 98.5411 49.2898C98.6369 49.369 99.0851 49.6972 99.536 50.0141C99.987 50.3347 100.542 50.7459 100.768 50.9307C101.165 51.2551 106.388 54.7293 107.211 55.2122C107.436 55.348 107.76 55.5517 107.932 55.6649C108.104 55.7818 108.355 55.8761 108.49 55.8761C108.727 55.8761 110.962 56.9021 111.754 57.3737C111.968 57.4981 112.216 57.6038 112.309 57.6038C112.399 57.6038 112.647 57.7018 112.862 57.8226C113.58 58.2375 116.292 59.3088 118.284 59.9652C118.8 60.1349 119.488 60.3763 119.818 60.5046C120.144 60.6328 120.514 60.7385 120.638 60.7422C120.762 60.746 120.965 60.8516 121.089 60.9761C121.213 61.1044 121.461 61.21 121.638 61.21C121.816 61.21 121.996 61.2854 122.041 61.3835C122.098 61.5042 121.954 61.5269 121.551 61.459C121.235 61.4024 120.57 61.3194 120.071 61.2666C118.958 61.1534 118.842 61.4137 119.894 61.6551C120.297 61.7494 120.996 61.9305 121.447 62.0587C121.898 62.187 122.523 62.3643 122.833 62.4548C123.146 62.5416 123.62 62.6925 123.887 62.7868C124.158 62.8811 124.665 63.0508 125.02 63.1678C125.375 63.2847 126.007 63.4959 126.427 63.6393C126.847 63.7789 127.503 64.0014 127.892 64.1334C128.278 64.2617 128.78 64.4352 129.006 64.5144C129.231 64.5937 129.626 64.7219 129.882 64.8011C130.141 64.8803 130.984 65.167 131.759 65.4386C132.532 65.7102 133.377 65.9931 133.639 66.0686C133.901 66.144 134.242 66.2723 134.4 66.3553C134.558 66.4383 135.029 66.6269 135.449 66.774C135.869 66.9249 136.342 67.1022 136.503 67.1701C136.663 67.2417 137.086 67.4039 137.441 67.536C138.712 68.0113 139.848 68.4451 140.136 68.5696C140.296 68.6412 140.77 68.8223 141.19 68.9694C141.61 69.1203 142.162 69.3315 142.421 69.4447C142.678 69.5541 143.233 69.7691 143.65 69.92C144.521 70.2369 148.188 71.7872 148.805 72.0966C149.031 72.2135 149.507 72.421 149.859 72.5605C150.214 72.7001 151.376 73.1905 152.438 73.6507C153.501 74.1109 154.924 74.7145 155.603 74.9936C156.28 75.2728 156.998 75.6009 157.201 75.7216C157.404 75.8461 157.63 75.9442 157.7 75.9442C157.771 75.9442 158.103 76.1215 158.436 76.3365C158.771 76.5515 159.092 76.7288 159.152 76.7288C159.208 76.7288 159.422 76.8269 159.625 76.9476C159.831 77.0683 160.101 77.2041 160.231 77.2494C160.358 77.2947 160.755 77.4795 161.108 77.6643C162.497 78.3848 162.7 78.4829 162.985 78.5659C163.145 78.6149 163.329 78.7017 163.393 78.7658C163.458 78.8262 163.906 79.0412 164.388 79.2449C164.873 79.4448 165.318 79.6674 165.38 79.7353C165.44 79.8069 165.564 79.8635 165.654 79.8635C165.744 79.8635 165.984 79.9616 166.189 80.0823C166.392 80.203 166.663 80.3388 166.792 80.3841C166.919 80.4294 167.317 80.618 167.669 80.8066C168.024 80.9914 168.422 81.18 168.548 81.2253C168.678 81.2706 168.949 81.4063 169.152 81.5271C169.354 81.6478 169.597 81.7458 169.687 81.7458C169.777 81.7458 169.898 81.8062 169.96 81.8817C170.022 81.9571 170.414 82.1796 170.834 82.3758C172.071 82.953 172.466 83.1491 172.68 83.2887C173.01 83.5075 173.664 83.8809 174.233 84.1751C174.521 84.326 174.918 84.5411 175.11 84.6504C175.304 84.7598 175.594 84.922 175.755 85.0126C175.916 85.1031 176.31 85.3257 176.634 85.5067C176.956 85.6916 177.35 85.9104 177.514 86.0009C177.674 86.0914 177.953 86.2649 178.137 86.3857C178.32 86.5064 178.517 86.6044 178.576 86.6044C178.636 86.6044 179.039 86.8232 179.475 87.0873C180.329 87.6116 180.287 87.5852 181.671 88.3246C182.187 88.5999 182.767 88.9206 182.962 89.03C183.154 89.1431 183.788 89.5015 184.368 89.8221C184.946 90.1428 185.817 90.6445 186.299 90.9425C186.784 91.2405 187.336 91.5762 187.531 91.6931C187.725 91.8101 188.331 92.1873 188.878 92.5268C189.425 92.8701 190.084 93.2737 190.343 93.4284C190.6 93.5792 191.234 93.9678 191.75 94.2884C192.263 94.6128 193.001 95.0693 193.39 95.3069C194.76 96.1481 199.286 99.0376 200.067 99.5695C202.598 101.297 204.824 102.859 205.191 103.168C205.622 103.53 206.101 103.659 206.101 103.41C206.101 103.138 201.592 97.3514 199.599 95.0655C198.889 94.2545 198.283 93.5491 198.252 93.5C198.218 93.4472 197.719 92.9229 197.139 92.3269C196.558 91.7309 195.82 90.9613 195.495 90.6105C195.171 90.2635 194.749 89.8184 194.557 89.626C194.365 89.4298 194.005 89.0601 193.754 88.7999C193.503 88.5434 193.266 88.3283 193.224 88.3283C193.184 88.3283 193.018 88.1661 192.857 87.9624C192.401 87.4004 188.466 83.7715 187.201 82.7493C186.338 82.0552 186.288 82.0099 185.597 81.4101C185.242 81.1008 184.768 80.7123 184.543 80.5463C184.318 80.3803 183.909 80.0559 183.638 79.8183C183.365 79.5844 183.117 79.3958 183.086 79.3958C183.058 79.3958 182.288 78.796 181.378 78.0604C180.47 77.3286 179.701 76.7288 179.673 76.7288C179.642 76.7288 179.413 76.5591 179.168 76.3478C178.92 76.1404 178.249 75.6198 177.677 75.1935C175.831 73.8205 175.707 73.7262 175.036 73.1867C174.673 72.8925 174.346 72.6511 174.306 72.6511C174.267 72.6511 173.892 72.3719 173.469 72.0249C173.049 71.6816 172.683 71.3987 172.658 71.3987C172.632 71.3987 172.21 71.0818 171.719 70.6933C171.229 70.3048 170.803 69.9879 170.775 69.9879C170.744 69.9879 170.378 69.705 169.955 69.3617C169.535 69.0147 169.166 68.7318 169.137 68.7318C169.095 68.7318 168.5 68.2791 167.086 67.1625C166.781 66.9211 165.296 65.7819 164.625 65.2727C164.27 65.0048 163.684 64.5446 163.32 64.2504C162.957 63.9562 162.621 63.7147 162.576 63.7147C162.531 63.7147 162.353 63.5865 162.182 63.428C162.01 63.2696 161.502 62.8698 161.051 62.5416C160.6 62.2134 159.896 61.674 159.487 61.342C159.076 61.0101 158.715 60.7385 158.681 60.7385C158.647 60.7385 158.323 60.497 157.959 60.2028C157.599 59.9086 157.01 59.4521 156.657 59.1805C155.801 58.5317 154.417 57.468 154.197 57.2869C153.467 56.6947 151.739 55.3329 151.395 55.0802C151.164 54.9104 150.815 54.6313 150.623 54.4653C150.429 54.2955 150.192 54.1069 150.096 54.0504C149.997 53.99 149.707 53.7599 149.451 53.5411C149.191 53.3223 148.893 53.0696 148.785 52.979C148.678 52.8923 148.005 52.3265 147.289 51.7229C146.57 51.1194 145.894 50.5535 145.784 50.463C145.674 50.3762 145.189 49.9537 144.704 49.5237C144.222 49.0937 143.774 48.7089 143.709 48.6674C143.645 48.6222 143.354 48.3807 143.064 48.128C142.396 47.5471 138.848 44.684 138.614 44.5369C138.515 44.4765 138.174 44.22 137.85 43.9635C137.235 43.4731 134.166 41.421 133.163 40.825C132.368 40.3535 131.46 39.799 130.409 39.1464C129.927 38.8446 129.07 38.3203 128.504 37.9808C127.199 37.1886 124.823 35.5477 122.735 33.986C122.478 33.7936 122.064 33.4881 121.813 33.307C121.565 33.1222 121.063 32.7148 120.7 32.4017C120.339 32.0848 119.877 31.7038 119.677 31.5567C119.474 31.4058 118.975 31.0022 118.563 30.6552C118.152 30.3081 117.498 29.7612 117.112 29.4367C116.726 29.1161 115.564 28.1089 114.533 27.1998C113.504 26.2907 112.571 25.4759 112.464 25.3854C111.703 24.763 110.765 23.9633 110.669 23.8501C110.503 23.6615 108.952 22.3601 106.216 20.1119C104.925 19.0556 103.707 18.0296 103.51 17.8297C103.31 17.6298 103.113 17.4676 103.07 17.4676C103.028 17.4676 102.648 17.1507 102.225 16.7622C101.802 16.3736 101.436 16.0567 101.41 16.0567C101.371 16.0567 99.9954 14.7968 97.8365 12.7825C97.4194 12.3902 96.1567 11.1567 95.035 10.0401C91.4415 6.46782 86.9658 2.55982 85.0098 1.29236C83.8768 0.560551 83.6936 0.353081 83.936 0.0852545C84.0741 -0.0694055 84.2573 -0.0241394 84.852 0.307814C85.4241 0.628452 88.6005 2.69939 89.7532 3.4991C91.3428 4.60812 98.558 9.55348 101.644 11.6508C102.87 12.4845 104.136 13.3106 104.457 13.4917C105.847 14.2725 106.368 14.5554 106.918 14.8383C107.811 15.2948 109.556 16.0567 110.083 16.2152C110.339 16.2944 110.894 16.4641 111.311 16.5924C113.741 17.3393 116.464 17.6939 121.74 17.9429C123.318 18.0183 124.716 18.1164 124.846 18.1654C124.972 18.2144 125.79 18.3238 126.661 18.4106C129.079 18.6483 131.917 19.3235 134.22 20.2099C134.606 20.3571 135.079 20.5381 135.274 20.606C135.866 20.8173 137.825 21.7716 139.141 22.4884C140.702 23.3371 143.864 25.3741 145.248 26.419C145.496 26.6038 146.167 27.1055 146.736 27.528C148.478 28.8256 150.33 30.3798 154.49 34.0275C155.262 34.7065 155.944 35.2912 156.006 35.3251C156.065 35.3591 156.567 35.7891 157.117 36.2795C160.919 39.667 162.345 40.9344 162.585 41.1419C163.182 41.6549 165.445 43.8352 167.458 45.8458C168.627 47.0077 169.726 48.1016 169.901 48.2751C170.504 48.8673 172.181 50.6063 172.241 50.7006C172.272 50.7534 172.641 51.1458 173.061 51.572C173.478 51.9983 173.926 52.4623 174.056 52.6056C174.185 52.7489 174.89 53.526 175.625 54.3333C177.841 56.7663 179.8 59.0712 182.607 62.5416C185.772 66.4571 187.883 69.5013 190.698 74.2165C191.93 76.2799 191.992 76.3931 193.029 78.3735C193.39 79.0638 194.024 80.2634 194.441 81.0405C194.856 81.8175 195.481 83.0171 195.834 83.7036C196.186 84.3939 196.555 85.0993 196.657 85.2729C197.24 86.2649 199.644 90.7312 200.498 92.4061C201.048 93.4849 201.8 94.9297 202.17 95.62C202.536 96.3103 202.928 97.0421 203.035 97.2496C203.142 97.4571 203.443 97.9852 203.703 98.4265C203.962 98.8679 204.596 99.9656 205.109 100.871C205.622 101.776 206.16 102.693 206.307 102.908C206.451 103.123 206.569 103.357 206.569 103.432C206.569 103.791 207.618 104.813 208.866 105.673C209.633 106.201 210.893 107.072 211.668 107.616C212.44 108.155 213.917 109.177 214.948 109.886C215.98 110.596 217.009 111.32 217.234 111.501C217.46 111.678 217.88 111.999 218.17 112.21C218.46 112.421 218.883 112.742 219.108 112.919C219.334 113.1 219.72 113.395 219.965 113.576C220.21 113.753 220.712 114.16 221.078 114.477C222.011 115.288 222.062 115.33 222.637 115.748C222.919 115.952 223.175 116.167 223.209 116.228C223.288 116.367 224.483 117.333 224.579 117.333C224.621 117.333 224.737 117.431 224.838 117.552C224.943 117.672 225.21 117.902 225.436 118.065C225.661 118.227 226.056 118.544 226.312 118.77C226.572 118.993 227.998 120.169 229.486 121.377C230.971 122.587 232.617 123.972 233.144 124.455C233.668 124.934 234.119 125.33 234.145 125.33C234.17 125.33 234.863 125.93 235.684 126.661C236.504 127.393 237.194 127.993 237.22 127.993C237.245 127.993 237.614 128.31 238.037 128.698C238.46 129.087 238.826 129.404 238.852 129.404C238.874 129.404 239.308 129.781 239.81 130.241C240.314 130.701 240.779 131.109 240.844 131.143C240.94 131.196 244.646 134.5 245.706 135.473C245.867 135.624 246.492 136.243 247.098 136.846C247.704 137.454 248.426 138.163 248.699 138.419C248.973 138.68 249.533 139.242 249.942 139.668C250.351 140.098 252.236 141.992 254.13 143.878C256.024 145.768 257.634 147.375 257.704 147.454C257.775 147.533 258.175 147.956 258.595 148.393C259.539 149.378 261.977 152.003 262.154 152.222C262.225 152.312 262.786 152.946 263.397 153.629C264.009 154.312 264.536 154.911 264.57 154.957C264.626 155.036 265.683 156.235 266.376 157.009C266.833 157.518 268.462 159.382 268.623 159.581C268.693 159.668 269.009 160.023 269.322 160.37C270.145 161.275 272.326 163.772 272.54 164.051C272.642 164.18 273.406 165.134 274.237 166.168C275.071 167.205 276.151 168.559 276.638 169.182C277.126 169.804 277.814 170.679 278.166 171.124C284.181 178.737 285.466 180.461 290.697 187.888C291.697 189.306 292.909 191.026 293.394 191.709C293.876 192.392 294.349 193.071 294.448 193.214C294.544 193.358 295.02 194.033 295.505 194.716C295.99 195.398 296.725 196.485 297.137 197.134C297.551 197.779 297.946 198.379 298.013 198.465C298.081 198.552 298.481 199.152 298.898 199.797C299.318 200.442 299.713 201.049 299.778 201.144C300.175 201.717 301.384 203.569 301.666 204.029C301.852 204.331 302.055 204.655 302.12 204.75C302.472 205.255 303.721 207.164 304.011 207.635C304.375 208.224 304.941 209.103 305.226 209.51C305.324 209.65 305.781 210.37 306.246 211.11C306.708 211.849 307.156 212.551 307.244 212.671C307.328 212.792 307.61 213.241 307.867 213.671C308.123 214.101 308.385 214.531 308.45 214.625C308.512 214.716 308.698 215.025 308.859 215.308C309.019 215.591 309.468 216.334 309.854 216.957C310.243 217.579 310.981 218.82 311.497 219.714C312.01 220.608 312.593 221.589 312.79 221.894C312.988 222.2 313.329 222.77 313.549 223.158C313.771 223.543 314.005 223.943 314.07 224.037C314.138 224.135 314.586 224.901 315.068 225.746C315.553 226.587 316.305 227.881 316.739 228.624C317.934 230.661 319.89 234.086 320.257 234.788C320.434 235.127 320.634 235.489 320.699 235.591C320.829 235.795 322.289 238.466 324.267 242.121C324.975 243.43 326.06 245.429 326.677 246.565C327.669 248.394 328.258 249.537 330.702 254.354C331.029 255.003 331.325 255.565 331.358 255.61C331.42 255.69 334.363 261.586 334.577 262.061C334.642 262.204 335.304 263.543 336.051 265.041C337.968 268.881 338.788 270.556 338.844 270.737C338.87 270.824 339.084 271.284 339.32 271.755C339.676 272.472 340.916 275.143 341.468 276.38C341.544 276.554 341.716 276.908 341.849 277.165C341.984 277.425 342.339 278.202 342.643 278.889C342.948 279.579 343.244 280.25 343.306 280.379C343.365 280.511 343.74 281.322 344.14 282.182C344.54 283.046 345.177 284.419 345.555 285.241C346.29 286.825 346.367 286.991 346.82 287.976C346.978 288.327 347.175 288.753 347.254 288.923C347.333 289.096 347.438 289.341 347.483 289.473C347.531 289.602 347.759 290.13 347.993 290.647C348.227 291.167 348.455 291.695 348.5 291.823C348.545 291.952 348.683 292.272 348.807 292.529C348.934 292.789 349.109 293.178 349.196 293.393C349.286 293.608 349.878 294.985 350.512 296.448C351.149 297.916 351.879 299.643 352.136 300.288C352.392 300.937 352.635 301.503 352.674 301.544C352.711 301.586 352.807 301.801 352.883 302.016C352.962 302.231 353.184 302.759 353.379 303.189C353.573 303.623 353.771 304.079 353.821 304.211C353.917 304.46 355.355 307.87 355.552 308.312C355.617 308.455 355.831 308.987 356.028 309.489C356.225 309.99 356.547 310.79 356.744 311.265C356.941 311.737 357.342 312.725 357.629 313.461C357.919 314.193 358.41 315.426 358.717 316.203C359.027 316.98 359.531 318.248 359.839 319.025C360.146 319.802 360.566 320.858 360.772 321.375C361.344 322.812 362.911 327.026 363.396 328.433C364.038 330.292 364.306 331.058 365.042 333.133C365.408 334.17 365.817 335.332 365.946 335.721C366.079 336.109 366.423 337.097 366.713 337.916C367.296 339.564 368.077 341.816 368.322 342.541C368.407 342.801 368.742 343.752 369.063 344.657C369.827 346.799 370.49 348.738 370.49 348.821C370.49 348.859 370.653 349.365 370.853 349.949C371.05 350.53 371.284 351.217 371.369 351.477C371.453 351.737 371.682 352.405 371.873 352.967C372.065 353.525 372.361 354.393 372.527 354.887C372.696 355.381 372.97 356.196 373.139 356.69C373.308 357.184 373.525 357.837 373.624 358.139C373.722 358.441 373.956 359.146 374.145 359.708C374.512 360.798 374.712 361.398 375.019 362.333C375.123 362.658 375.256 363.039 375.306 363.186C375.36 363.329 375.67 364.303 375.997 365.351C376.622 367.35 376.659 367.467 376.972 368.305C377.082 368.591 377.169 368.92 377.169 369.037C377.169 369.154 377.33 369.731 377.53 370.319C377.727 370.908 377.97 371.636 378.066 371.937C378.268 372.582 378.345 372.809 378.75 374.035C378.917 374.54 379.399 376.057 379.821 377.403C380.241 378.75 380.664 380.1 380.76 380.402C380.991 381.134 381.062 381.364 381.504 382.832C381.904 384.163 381.938 384.269 382.324 385.499C382.73 386.789 382.747 386.841 383.319 388.712C383.624 389.704 383.917 390.655 383.973 390.829C384.027 390.998 384.339 392.024 384.666 393.099C384.996 394.178 385.306 395.201 385.362 395.374C385.416 395.548 385.551 396.004 385.664 396.393C385.777 396.781 385.912 397.241 385.963 397.411C386.016 397.585 386.174 398.113 386.315 398.588C386.453 399.063 386.611 399.591 386.665 399.765C386.755 400.044 386.997 400.87 387.73 403.371C387.857 403.801 388.006 404.295 388.06 404.469C388.358 405.416 388.697 406.57 389.162 408.241C389.446 409.271 389.866 410.746 390.092 411.523C390.317 412.296 390.723 413.745 390.997 414.737C391.27 415.729 391.557 416.751 391.636 417.008C391.718 417.268 391.842 417.679 391.918 417.924C391.991 418.17 392.161 418.803 392.29 419.335C392.42 419.867 392.575 420.444 392.634 420.614C392.696 420.787 392.874 421.421 393.029 422.025C393.186 422.628 393.48 423.722 393.683 424.458C393.885 425.19 394.179 426.284 394.331 426.887C394.486 427.491 394.779 428.585 394.979 429.316C396.061 433.277 397.752 440.524 398.651 445.073C398.933 446.499 399.418 449.207 399.551 450.09C399.962 452.862 400.055 453.511 400.199 454.635C400.289 455.326 400.421 456.665 400.492 457.615C400.565 458.562 400.672 459.407 400.731 459.486C400.788 459.569 400.836 460.033 400.836 460.52C400.836 461.18 400.782 461.474 400.622 461.667C400.337 462.01 400.052 461.995 399.903 461.622ZM176.603 91.2065C176.525 91.1613 176.392 91.1613 176.31 91.2065C176.231 91.248 176.296 91.2857 176.457 91.2857C176.62 91.2857 176.685 91.248 176.603 91.2065ZM357.962 311.801C357.967 311.616 357.995 311.578 358.032 311.707C358.066 311.82 358.063 311.952 358.024 312.005C357.984 312.058 357.956 311.967 357.962 311.801ZM357.601 311.084C357.601 310.986 357.423 310.405 357.206 309.79C356.809 308.681 356.358 307.361 355.961 306.169C355.848 305.826 355.563 304.992 355.329 304.321C355.098 303.649 354.906 303.068 354.906 303.027C354.906 302.989 354.743 302.48 354.543 301.899C354.343 301.314 354.081 300.556 353.965 300.213C353.847 299.866 353.57 299.051 353.348 298.398C352.7 296.501 352.029 293.728 351.854 292.216C351.803 291.786 351.671 290.975 351.564 290.413C351.454 289.854 351.296 289.006 351.211 288.53C351.127 288.059 350.972 287.21 350.865 286.652C350.76 286.09 350.628 285.279 350.574 284.849C350.521 284.415 350.419 283.864 350.349 283.623C350.279 283.381 350.219 282.993 350.222 282.759C350.222 282.529 350.146 281.88 350.05 281.322C349.87 280.231 349.687 278.953 349.515 277.557C349.374 276.41 349.1 274.456 348.881 273.012C348.782 272.366 348.647 271.42 348.576 270.91C348.509 270.401 348.401 269.858 348.339 269.707C348.277 269.552 348.227 269.243 348.227 269.017C348.227 268.79 348.153 268.168 348.063 267.636C347.894 266.629 347.674 265.15 347.514 263.917C347.398 263.038 347.212 261.725 347.054 260.703C346.863 259.473 346.708 257.108 346.541 252.864C346.375 248.688 346.462 240.533 346.719 236.014C346.789 234.761 346.896 232.117 346.953 230.133C347.142 223.592 347.316 220.22 347.652 216.651C347.719 215.961 347.818 214.305 347.877 212.966C347.934 211.63 348.035 209.691 348.103 208.654C348.258 206.255 348.261 192.698 348.106 190.627C348.041 189.763 347.934 187.541 347.869 185.689C347.804 183.833 347.719 181.645 347.68 180.826C347.641 180.008 347.677 177.703 347.762 175.708C347.894 172.528 347.889 171.46 347.714 167.084C347.466 160.849 347.395 160.023 346.877 157.156C346.775 156.594 346.637 155.783 346.572 155.353C346.507 154.919 346.403 154.5 346.344 154.417C346.285 154.338 346.237 154.127 346.237 153.95C346.237 153.772 346.161 153.308 346.068 152.92C345.975 152.535 345.823 151.792 345.724 151.275C345.628 150.758 345.49 150.026 345.414 149.645C345.341 149.268 345.234 148.631 345.18 148.235C345.124 147.839 344.991 146.982 344.884 146.337C344.777 145.688 344.611 144.666 344.509 144.063C344.272 142.618 344.191 137.842 344.363 135.519C344.436 134.526 344.523 131.388 344.554 128.544C344.628 122.305 344.814 119.045 345.124 118.589C345.389 118.197 346.014 118.174 346.268 118.551C346.476 118.857 346.82 120.856 346.82 121.746C346.82 122.84 347.302 126.669 347.576 127.759C347.728 128.363 347.942 129.279 348.052 129.796C348.385 131.362 348.441 131.614 348.867 133.323C349.515 135.941 349.625 136.311 350.126 137.635C350.659 139.038 350.834 139.461 351.164 140.143C351.288 140.404 351.426 140.72 351.471 140.849C351.519 140.981 352.06 142.214 352.677 143.595C353.709 145.896 354.453 147.782 354.966 149.393C355.076 149.74 355.318 150.46 355.504 150.996C355.69 151.535 355.845 152.041 355.845 152.124C355.845 152.207 355.994 152.72 356.178 153.263C356.361 153.81 356.581 154.5 356.665 154.802C356.82 155.357 357.116 156.307 357.449 157.311C357.807 158.397 358.742 160.868 359.32 162.248C359.644 163.025 360.214 164.429 360.583 165.372C360.952 166.311 361.372 167.333 361.516 167.643C361.659 167.952 361.814 168.314 361.86 168.442C361.902 168.571 362.031 168.865 362.144 169.095C363.801 172.505 365.385 176.334 365.735 177.771C365.839 178.201 365.972 178.695 366.025 178.869C366.079 179.038 366.186 179.499 366.262 179.887C366.806 182.694 366.778 182.422 367.082 187.254C367.316 190.944 367.479 196.609 367.401 198.243C367.358 199.141 367.274 201.287 367.212 203.015C367.15 204.738 367.045 206.643 366.981 207.247C366.916 207.847 366.859 208.835 366.857 209.439C366.854 210.042 366.772 211.102 366.679 211.789C366.586 212.479 366.51 213.305 366.51 213.622C366.507 213.939 366.456 214.38 366.392 214.599C366.33 214.822 366.225 215.512 366.158 216.138C366.093 216.764 365.963 217.7 365.873 218.217C365.783 218.737 365.628 219.616 365.532 220.178C365.436 220.74 365.188 222.045 364.982 223.079C364.777 224.112 364.568 225.206 364.523 225.508C364.475 225.81 364.379 226.304 364.309 226.606C364.078 227.617 363.838 228.715 363.66 229.586C363.345 231.125 363.091 232.321 362.995 232.721C362.942 232.936 362.809 233.569 362.699 234.131C362.59 234.69 362.432 235.433 362.35 235.776C362.268 236.123 362.113 236.791 362.009 237.266C361.767 238.341 360.23 244.701 360.059 245.339C359.991 245.599 359.746 246.553 359.52 247.459C359.292 248.364 359.033 249.326 358.94 249.597C358.849 249.869 358.773 250.201 358.773 250.333C358.773 250.465 358.72 250.616 358.655 250.673C358.59 250.725 358.539 250.921 358.539 251.11C358.539 251.299 358.458 251.657 358.362 251.902C358.266 252.151 358.187 252.491 358.187 252.66C358.187 252.826 358.131 253.106 358.06 253.279C357.993 253.453 357.857 253.962 357.764 254.407C357.668 254.852 357.544 255.429 357.485 255.686C357.13 257.236 356.349 261.303 356.203 262.351C356.147 262.74 356.039 263.479 355.963 263.996C355.667 266.022 355.479 267.432 355.081 270.661C355.005 271.288 354.839 272.747 354.664 274.339C354.475 276.048 354.393 284.554 354.543 286.806C354.909 292.325 355.174 295.362 355.38 296.369C355.442 296.671 355.493 297.12 355.493 297.369C355.493 297.614 355.569 298.285 355.662 298.855C355.755 299.428 355.918 300.5 356.023 301.231C356.307 303.185 356.803 306.014 357.184 307.814C357.282 308.289 357.423 308.995 357.499 309.383C357.573 309.772 357.68 310.156 357.733 310.236C357.874 310.443 357.863 311.265 357.719 311.265C357.654 311.265 357.601 311.182 357.601 311.084ZM149.978 280.85C149.546 280.273 149.67 279.843 150.533 278.934C151.641 277.768 153.208 276.282 153.901 275.739C154.808 275.033 154.82 275.022 155.916 274.121C157.765 272.593 158.988 271.718 163.568 268.64C166.051 266.972 168.582 265.267 169.194 264.852C170.541 263.936 171.883 263.264 173.061 262.91C173.543 262.766 174.123 262.581 174.349 262.498C174.574 262.419 175.234 262.212 175.814 262.034C176.395 261.861 177.08 261.653 177.336 261.574C178.362 261.257 179.492 260.944 180.383 260.725C180.899 260.597 181.637 260.412 182.023 260.314C182.409 260.216 183.044 260.077 183.43 260.005C183.816 259.933 184.21 259.831 184.309 259.782C184.405 259.73 184.828 259.616 185.245 259.53C186.003 259.367 187.139 259.103 188.937 258.666C189.453 258.541 190.256 258.364 190.724 258.273C191.192 258.183 191.71 258.04 191.874 257.957C192.04 257.874 192.333 257.806 192.528 257.806C192.722 257.806 193.207 257.7 193.604 257.576C194.002 257.451 194.749 257.232 195.264 257.089C195.78 256.949 196.386 256.768 196.612 256.685C196.837 256.606 197.26 256.474 197.547 256.395C198.038 256.263 198.906 255.984 199.895 255.644C200.121 255.565 200.422 255.422 200.56 255.32C200.701 255.222 200.91 255.139 201.025 255.139C201.144 255.139 201.392 255.033 201.575 254.901C201.758 254.773 202.015 254.667 202.139 254.667C202.265 254.667 202.482 254.588 202.62 254.486C202.761 254.388 203.035 254.252 203.229 254.188C203.551 254.079 204.024 253.871 204.638 253.566C205.642 253.06 206.919 252.472 207.186 252.385C207.364 252.329 207.539 252.219 207.575 252.144C207.609 252.064 207.756 252.004 207.902 252.004C208.046 252.004 208.215 251.944 208.274 251.872C208.407 251.717 211.707 250.333 213.776 249.563C214.162 249.42 214.743 249.201 215.064 249.081C216.157 248.658 216.82 248.417 217.584 248.153C218.004 248.009 218.477 247.836 218.638 247.764C218.801 247.696 219.354 247.523 219.869 247.379C221.834 246.832 222.781 246.55 224.322 246.04C224.644 245.935 225.145 245.791 225.436 245.72C225.723 245.652 226.225 245.516 226.549 245.418C227.113 245.248 228.189 244.958 229.537 244.614C229.889 244.528 230.523 244.358 230.943 244.241C231.36 244.124 232.099 243.924 232.583 243.792C233.818 243.46 235.204 243.083 236.098 242.834C236.515 242.717 237.282 242.506 237.795 242.366C238.31 242.223 238.945 242.046 239.201 241.97C239.46 241.895 240.092 241.721 240.607 241.582C241.123 241.446 241.887 241.231 242.307 241.102C242.727 240.974 243.209 240.869 243.384 240.872C243.555 240.872 243.846 240.797 244.026 240.706C244.209 240.612 244.672 240.48 245.061 240.408C245.822 240.269 246.836 240.02 247.741 239.752C248.054 239.658 248.609 239.518 248.97 239.446C249.333 239.375 250.131 239.205 250.743 239.077C251.991 238.809 254.08 238.451 255.841 238.205C256.484 238.115 257.197 237.972 257.422 237.889C257.648 237.806 258.228 237.741 258.71 237.741C259.195 237.741 260.382 237.636 261.348 237.508C264.745 237.047 280.409 236.651 283.2 236.949C285.359 237.183 286.692 237.376 287.416 237.56C288.081 237.73 289.902 238.141 290.522 238.266C291.035 238.368 292.498 238.764 293.51 239.069C295.342 239.628 295.928 239.794 296.438 239.91C296.728 239.978 297.151 240.107 297.376 240.201C297.946 240.442 298.859 240.737 299.485 240.884C300.057 241.016 300.826 241.268 301.477 241.54C301.703 241.634 302.072 241.763 302.297 241.827C302.523 241.891 303.287 242.166 303.997 242.438C304.704 242.709 305.443 242.992 305.637 243.064C306.097 243.238 306.714 243.524 307.193 243.792C307.404 243.913 307.65 244.007 307.737 244.007C307.824 244.007 308.047 244.113 308.23 244.241C308.416 244.369 308.661 244.475 308.78 244.479C309.225 244.479 315.181 248.421 316.359 249.492C316.841 249.933 318.594 251.506 320.254 252.989C321.914 254.467 323.272 255.735 323.272 255.803C323.272 256.037 322.993 255.916 321.821 255.161C320.257 254.154 319.831 253.902 318.233 253.03C317.492 252.627 316.779 252.238 316.652 252.17C316.522 252.098 316.206 251.936 315.947 251.804C315.691 251.676 315.243 251.446 314.952 251.299C314.662 251.148 314.228 250.929 313.986 250.808C313.743 250.691 313.349 250.491 313.106 250.371C310.09 248.835 308.343 248.221 306.164 247.93C303.019 247.511 302.035 247.451 300.928 247.609C300.296 247.7 299.008 247.843 298.067 247.93C297.126 248.013 296.077 248.153 295.739 248.239C295.398 248.326 294.795 248.398 294.403 248.402C294.008 248.405 293.318 248.477 292.864 248.571C292.413 248.662 291.517 248.798 290.874 248.869C290.229 248.945 288.989 249.118 288.121 249.254C287.25 249.39 286.117 249.567 285.601 249.643C285.085 249.718 284.426 249.854 284.135 249.941C283.845 250.027 283.239 250.212 282.788 250.348C282.337 250.484 281.847 250.593 281.697 250.593C281.548 250.593 281.331 250.661 281.218 250.74C281.103 250.823 280.697 250.967 280.316 251.057C279.936 251.148 279.31 251.321 278.921 251.442C278.535 251.563 277.825 251.782 277.34 251.925C276.018 252.321 275.246 252.574 274.471 252.86C274.082 253 273.583 253.177 273.358 253.249C273.132 253.324 272.788 253.456 272.594 253.547C272.402 253.634 271.929 253.83 271.54 253.977C271.154 254.124 270.627 254.335 270.37 254.445C270.111 254.55 269.584 254.758 269.198 254.901C268.812 255.045 268.363 255.218 268.203 255.286C268.039 255.354 267.591 255.531 267.205 255.682C266.819 255.829 266.328 256.052 266.117 256.172C265.906 256.293 265.632 256.395 265.506 256.395C265.382 256.395 265.108 256.493 264.897 256.618C264.683 256.738 263.958 257.063 263.279 257.342C262.603 257.617 261.681 257.998 261.23 258.187C260.779 258.379 260.105 258.651 259.736 258.794C259.364 258.934 258.758 259.168 258.389 259.311C258.017 259.454 257.504 259.658 257.247 259.767C256.988 259.877 256.436 260.088 256.016 260.235C255.596 260.382 255.122 260.563 254.962 260.631C254.801 260.703 254.274 260.914 253.789 261.099C252.608 261.555 252.177 261.729 251.622 261.959C251.1 262.174 250.151 262.544 249.133 262.921C248.761 263.06 248.375 263.23 248.271 263.298C248.166 263.366 247.837 263.472 247.538 263.532C247.236 263.592 246.963 263.702 246.926 263.781C246.893 263.856 246.746 263.917 246.605 263.917C246.464 263.917 246.112 264.015 245.822 264.139C245.075 264.452 243.55 265.003 242.541 265.32C242.315 265.392 241.814 265.569 241.428 265.716C241.041 265.867 240.435 266.078 240.08 266.191C238.116 266.821 237.27 267.108 236.777 267.304C236.476 267.425 236.115 267.523 235.977 267.523C235.839 267.523 235.402 267.629 235.004 267.753C234.607 267.878 233.86 268.096 233.344 268.236C232.829 268.379 232.223 268.56 231.997 268.64C231.538 268.805 230.74 269.028 229.771 269.269C229.415 269.356 229.046 269.469 228.95 269.522C228.784 269.613 227.972 269.85 226.693 270.182C226.383 270.262 225.963 270.397 225.754 270.48C225.351 270.646 223.97 271.061 223.384 271.197C223.192 271.239 222.637 271.386 222.155 271.521C221.67 271.657 220.799 271.876 220.222 272.012C219.641 272.144 218.745 272.351 218.229 272.472C217.713 272.593 216.896 272.763 216.414 272.849C215.929 272.932 215.298 273.072 215.008 273.159C213.835 273.502 211.73 273.675 209.853 273.585C207.55 273.472 203.669 273.215 201.699 273.045C200.918 272.978 199.602 272.974 198.768 273.034C195.056 273.302 193.258 273.464 193.097 273.551C192.998 273.6 192.288 273.706 191.513 273.785C189.943 273.947 188.148 274.188 186.651 274.434C186.104 274.528 185.101 274.664 184.425 274.743C183.748 274.822 182.483 274.996 181.615 275.131C180.744 275.263 179.554 275.433 178.971 275.509C178.385 275.58 177.438 275.72 176.86 275.814C176.285 275.909 175.146 276.093 174.332 276.222C173.32 276.384 171.747 276.459 169.354 276.459C166.767 276.459 165.595 276.523 164.859 276.697C164.309 276.825 163.625 276.931 163.334 276.931C163.044 276.931 162.613 277.006 162.376 277.093C162.136 277.184 161.609 277.319 161.204 277.395C160.538 277.523 159.749 277.742 158.354 278.187C158.098 278.27 157.517 278.485 157.066 278.662C156.615 278.84 155.905 279.081 155.485 279.202C155.065 279.319 153.842 279.809 152.765 280.288C151.688 280.771 150.671 281.163 150.508 281.163C150.347 281.163 150.107 281.024 149.978 280.85ZM323.506 256.237C323.354 256.108 323.36 256.086 323.534 256.082C323.647 256.078 323.74 256.15 323.74 256.237C323.74 256.429 323.726 256.429 323.506 256.237ZM325.178 242.709C325.11 242.509 324.944 241.717 324.805 240.944C324.315 238.209 323.957 236.504 323.315 233.898C322.709 231.438 322.477 230.548 322.339 230.133C322.283 229.959 322.072 229.254 321.869 228.564C321.666 227.877 321.454 227.172 321.395 226.998C321.277 226.636 320.843 225.267 320.702 224.803C320.35 223.633 319.608 221.6 318.619 219.08C317.393 215.968 317.32 215.791 315.975 212.894C315.896 212.724 315.491 211.875 315.071 211.012C314.653 210.148 314.214 209.193 314.093 208.892C313.971 208.59 313.799 208.231 313.709 208.096C313.619 207.956 313.546 207.805 313.546 207.756C313.546 207.707 313.332 207.198 313.072 206.621C312.523 205.414 311.308 202.29 311.116 201.6C311.046 201.34 310.899 200.706 310.789 200.189C310.682 199.672 310.522 198.933 310.437 198.544C310.285 197.858 310.088 196.839 309.749 194.976C309.659 194.482 309.521 193.724 309.442 193.29C309.36 192.86 309.256 192.226 309.205 191.879C309.158 191.536 309.031 190.725 308.924 190.076C308.397 186.858 308.058 184.64 307.923 183.493C307.855 182.931 307.771 182.369 307.731 182.237C307.695 182.109 307.621 181.438 307.571 180.751C307.475 179.438 307.292 177.435 307.094 175.576C307.032 174.972 306.928 173.772 306.866 172.909C306.807 172.049 306.674 170.389 306.576 169.227C306.477 168.061 306.342 166.228 306.274 165.149C306.209 164.07 306.105 162.942 306.043 162.641C305.981 162.339 305.928 161.528 305.922 160.838C305.916 160.147 305.863 159.197 305.801 158.721C305.739 158.25 305.646 157.329 305.589 156.684C305.494 155.541 305.384 154.719 305.048 152.607C304.961 152.048 304.859 151.377 304.828 151.12C304.797 150.86 304.687 150.174 304.589 149.589C304.487 149.008 304.332 148.091 304.239 147.552C304.149 147.012 303.988 146.115 303.884 145.553C303.78 144.994 303.667 144.357 303.636 144.142C303.58 143.776 303.425 143.021 303.061 141.32C302.641 139.344 302.495 138.714 302.416 138.495C302.368 138.363 302.292 138.008 302.247 137.71C302.202 137.408 302.125 137.024 302.072 136.854C302.021 136.68 301.886 136.115 301.773 135.598C301.66 135.081 301.514 134.447 301.452 134.187C301.387 133.927 301.291 133.47 301.235 133.168C301.181 132.867 301.052 132.233 300.945 131.758C300.837 131.282 300.68 130.543 300.595 130.109C300.508 129.679 300.35 128.94 300.246 128.465C300.037 127.533 299.775 126.137 299.595 125.024C299.535 124.64 299.434 124.111 299.375 123.847C299.214 123.127 298.935 121.761 298.738 120.705C298.504 119.468 297.875 116.288 297.543 114.67C297.444 114.194 297.317 113.519 297.261 113.168C297.204 112.821 297.106 112.361 297.044 112.15C296.982 111.942 296.844 111.309 296.734 110.75C296.111 107.536 295.871 106.393 295.728 105.922C295.668 105.722 295.618 105.431 295.618 105.273C295.618 105.115 295.536 104.605 295.437 104.145C295.186 102.991 294.969 101.92 294.741 100.716C294.637 100.154 294.502 99.4827 294.44 99.2187C294.38 98.9546 294.282 98.4265 294.22 98.0418C294.107 97.3439 293.867 95.9633 293.549 94.2092C293.456 93.6924 293.332 92.9304 293.276 92.5193C293.219 92.1081 293.121 91.546 293.056 91.2669C292.943 90.7765 292.782 89.8712 292.577 88.566C292.523 88.2189 292.391 87.4456 292.281 86.8421C291.627 83.2019 291.39 81.6063 291.322 80.3992C291.272 79.475 291.3 79.1808 291.503 78.6489C291.934 77.521 293.044 76.7816 293.859 77.0834C294.445 77.2984 295.305 78.1132 296.336 79.4297C296.83 80.0559 298.146 81.7345 299.268 83.1567C303.957 89.1205 306.012 92.0175 307.768 95.1485C308.484 96.4273 310.499 100.471 310.499 100.633C310.499 100.682 310.623 100.984 310.772 101.305C311.435 102.723 313.21 107.333 314.225 110.279C314.569 111.271 314.896 112.199 314.952 112.342C315.121 112.761 316.638 117.586 317.111 119.215C317.348 120.034 317.616 120.95 317.703 121.252C317.793 121.554 318.033 122.437 318.236 123.214C318.441 123.987 318.647 124.764 318.695 124.938C318.856 125.515 319.777 129.211 320.062 130.426C320.161 130.856 320.29 131.35 320.344 131.52C320.397 131.694 320.555 132.365 320.693 133.01C320.831 133.659 320.987 134.327 321.04 134.5C321.189 134.979 321.547 137.122 322.035 140.422C322.136 141.094 322.215 141.878 322.215 142.165C322.215 142.452 322.269 142.889 322.331 143.138C322.396 143.387 322.5 144.229 322.568 145.006C323.162 152.045 323.23 155.142 322.886 159.978C322.771 161.573 322.627 163.757 322.562 164.836C322.5 165.915 322.396 167.092 322.334 167.454C322.269 167.816 322.215 168.522 322.215 169.019C322.215 169.521 322.136 170.532 322.041 171.264C321.945 171.996 321.863 173.022 321.86 173.539C321.857 174.055 321.781 174.938 321.688 175.496C321.598 176.058 321.519 176.941 321.514 177.458C321.511 177.975 321.457 178.688 321.395 179.046C321.333 179.401 321.229 180.355 321.161 181.162C321.094 181.969 320.964 183.407 320.874 184.353C320.781 185.304 320.651 186.749 320.581 187.567C320.513 188.39 320.403 189.397 320.341 189.812C320.276 190.223 320.223 190.894 320.22 191.302C320.217 191.705 320.141 192.494 320.048 193.056C319.958 193.618 319.879 194.429 319.876 194.859C319.876 195.289 319.794 196.138 319.698 196.741C319.476 198.156 319.467 201.396 319.687 202.581C319.78 203.079 319.941 204.01 320.048 204.659C320.33 206.368 320.738 208.345 321.333 210.849C321.415 211.196 321.576 211.902 321.691 212.419C321.807 212.935 321.967 213.641 322.049 213.984C322.128 214.331 322.283 215.037 322.39 215.553C322.497 216.07 322.627 216.636 322.68 216.806C322.802 217.217 323.089 219.092 323.32 220.963C323.506 222.483 323.532 222.721 323.737 225.037C323.805 225.772 323.935 226.972 324.028 227.704C324.121 228.435 324.281 229.812 324.383 230.759C324.487 231.71 324.622 232.943 324.687 233.505C324.8 234.509 324.884 235.448 325.209 239.303C325.299 240.382 325.409 241.668 325.451 242.166C325.533 243.105 325.403 243.366 325.178 242.709ZM65.5569 192.132C65.075 191.841 64.6522 191.064 64.5986 190.363C64.5028 189.095 65.1708 188.133 66.4363 187.722C67.2705 187.447 68.5473 187.096 69.2491 186.941C69.6014 186.866 70.1031 186.734 70.3624 186.651C70.6188 186.568 71.253 186.379 71.7659 186.236C72.2817 186.092 72.9102 185.904 73.1611 185.817C73.4119 185.73 73.86 185.602 74.156 185.534C74.4547 185.462 75.0663 185.285 75.5173 185.142C76.422 184.855 77.6903 184.493 78.5048 184.289C79.263 184.101 80.2466 183.81 80.7906 183.61C81.0471 183.516 81.4952 183.388 81.7855 183.327C82.0758 183.263 82.6818 183.097 83.1327 182.958C83.5837 182.814 84.3221 182.596 84.773 182.467C85.6468 182.222 86.7093 181.894 87.7606 181.539C89.5728 180.936 89.9674 180.808 90.4268 180.672C90.703 180.589 91.03 180.449 91.154 180.362C91.2752 180.272 91.4978 180.2 91.6444 180.2C91.791 180.2 92.1264 180.102 92.3857 179.978C92.814 179.778 93.3918 179.559 94.7334 179.076C94.9899 178.986 95.438 178.82 95.7283 178.706C96.0186 178.597 96.571 178.386 96.96 178.239C97.3461 178.092 97.8732 177.884 98.1296 177.775C98.3889 177.665 98.916 177.45 99.3021 177.296C100.241 176.922 101.007 176.59 101.295 176.432C101.422 176.36 101.858 176.156 102.264 175.979C102.667 175.798 103.09 175.591 103.2 175.515C103.705 175.176 104.305 174.87 104.474 174.87C104.573 174.87 104.795 174.772 104.967 174.651C105.139 174.531 105.514 174.312 105.804 174.161C106.095 174.01 106.498 173.791 106.701 173.674C106.903 173.554 107.106 173.459 107.149 173.459C107.383 173.459 110.804 171.211 112.244 170.11C113.411 169.219 115.378 167.322 116.878 165.643C117.458 164.995 117.957 164.425 117.991 164.376C118.022 164.327 118.287 164.014 118.577 163.678C118.868 163.339 120.686 160.977 122.622 158.423C124.555 155.873 126.562 153.255 127.081 152.607C129.4 149.702 132.478 146.318 135.86 142.954C136.503 142.312 137.182 141.63 137.368 141.437C137.554 141.245 138.056 140.766 138.484 140.373C138.912 139.981 139.668 139.261 140.164 138.77C141.105 137.835 147.478 132.071 147.568 132.071C147.596 132.071 147.931 131.792 148.315 131.452C148.698 131.109 149.366 130.562 149.797 130.234C150.226 129.909 150.668 129.57 150.775 129.483C151.012 129.294 152.568 128.136 153.551 127.412C154.394 126.793 159.188 123.606 159.273 123.606C159.307 123.606 159.746 123.349 160.251 123.036C160.755 122.723 161.353 122.38 161.578 122.274C161.804 122.165 162.224 121.935 162.514 121.765C163.03 121.46 163.616 121.146 164.566 120.667C164.822 120.539 165.138 120.373 165.268 120.298C165.848 119.97 169.259 118.434 169.78 118.268C170.005 118.197 170.558 117.989 171.009 117.812C171.46 117.631 172.066 117.42 172.356 117.344C172.646 117.269 173.252 117.091 173.703 116.948C174.926 116.563 176.319 116.258 178.216 115.96C180.583 115.586 185.975 115.59 188.703 115.963C191.893 116.405 195.067 117.065 196.445 117.582C196.772 117.702 197.178 117.804 197.347 117.804C197.513 117.804 197.798 117.88 197.981 117.974C198.162 118.072 198.573 118.208 198.895 118.283C199.219 118.355 199.825 118.532 200.245 118.672C200.662 118.811 201.335 119.027 201.738 119.151C202.141 119.272 202.826 119.479 203.26 119.615C203.694 119.747 204.297 119.917 204.599 119.992C204.901 120.071 205.256 120.207 205.383 120.302C205.512 120.392 205.783 120.467 205.986 120.467C206.186 120.467 206.456 120.543 206.586 120.637C206.716 120.728 207.068 120.867 207.37 120.947C208.255 121.173 209.199 121.482 209.323 121.584C209.388 121.641 209.652 121.731 209.909 121.792C210.168 121.852 210.537 121.961 210.729 122.04C210.924 122.12 211.372 122.289 211.727 122.414C213.204 122.95 214.134 123.338 214.238 123.466C214.3 123.542 214.441 123.606 214.551 123.606C214.664 123.606 214.903 123.708 215.084 123.829C215.267 123.953 215.628 124.172 215.884 124.311C216.143 124.451 216.459 124.628 216.589 124.704C217.708 125.352 219.432 126.269 219.534 126.269C219.604 126.269 220.053 126.488 220.529 126.76C221.002 127.027 221.498 127.306 221.628 127.378C222.645 127.94 223.06 128.182 223.237 128.314C223.347 128.397 223.494 128.465 223.559 128.465C223.801 128.465 227.606 130.928 228.598 131.728C229.88 132.761 230.238 133.101 230.238 133.285C230.238 133.583 230.01 133.523 229.283 133.029C228.105 132.229 225.875 131.305 224.145 130.898C223.533 130.754 222.77 130.558 222.448 130.464C222.102 130.362 220.075 130.264 217.524 130.226C213.869 130.173 213.066 130.204 212.392 130.411C211.952 130.547 211.4 130.66 211.16 130.66C210.924 130.66 210.543 130.735 210.32 130.83C210.095 130.92 209.568 131.056 209.148 131.132C208.384 131.264 207.448 131.486 206.439 131.777C206.144 131.863 205.591 131.999 205.211 132.082C204.83 132.165 204.072 132.339 203.525 132.471C202.976 132.603 202.189 132.78 201.772 132.87C201.358 132.961 200.927 133.097 200.814 133.18C200.701 133.259 200.47 133.323 200.301 133.323C200.129 133.323 199.664 133.425 199.267 133.549C198.869 133.674 198.122 133.889 197.606 134.029C197.091 134.168 196.327 134.379 195.907 134.496C195.247 134.685 194.354 134.93 193.038 135.285C192.843 135.337 192.316 135.485 191.865 135.613C191.414 135.741 190.794 135.911 190.487 135.986C190.18 136.066 189.757 136.198 189.549 136.281C189.005 136.499 188.187 136.775 187.649 136.922C187.39 136.99 186.863 137.171 186.476 137.318C185.662 137.631 184.822 137.937 184.075 138.189C183.785 138.287 183.441 138.423 183.311 138.491C183.185 138.555 182.762 138.736 182.376 138.887C181.99 139.038 181.488 139.249 181.262 139.355C180.809 139.57 180.594 139.668 178.802 140.483C178.125 140.792 177.522 141.105 177.46 141.181C177.398 141.256 177.274 141.32 177.184 141.32C177.035 141.32 176.806 141.437 175.814 142.022C175.62 142.135 174.988 142.49 174.408 142.814C173.185 143.493 172.303 144.01 171.48 144.527C171.155 144.73 170.575 145.085 170.189 145.319C169.228 145.9 164.493 149.049 163.627 149.687C163.241 149.97 162.635 150.411 162.28 150.671C161.17 151.479 159.707 152.61 159.016 153.191C156.965 154.927 154.541 157.069 152.672 158.801C152.125 159.31 151.333 160.038 150.916 160.423C148.377 162.75 147.869 163.218 147.342 163.716C146.018 164.961 142.083 168.42 141.542 168.812C141.317 168.974 141.001 169.231 140.837 169.378C140.091 170.072 133.884 174.399 133.642 174.399C133.605 174.399 133.09 174.708 132.492 175.081C130.635 176.251 130.057 176.594 129.947 176.594C129.888 176.594 129.499 176.805 129.082 177.066C128.665 177.322 128.29 177.537 128.253 177.537C128.214 177.537 127.909 177.711 127.577 177.926C127.241 178.144 126.92 178.318 126.861 178.318C126.804 178.318 126.562 178.431 126.328 178.567C126.091 178.703 125.742 178.903 125.547 179.016C125.356 179.129 124.958 179.344 124.668 179.495C124.381 179.65 123.983 179.861 123.792 179.966C123.597 180.072 123.174 180.287 122.853 180.442C122.532 180.596 122.216 180.781 122.157 180.853C122.095 180.925 121.962 180.985 121.864 180.985C121.762 180.985 121.531 181.091 121.345 181.219C121.162 181.351 120.959 181.456 120.894 181.456C120.832 181.456 120.612 181.555 120.409 181.675C119.958 181.951 116.5 183.493 115.297 183.961C114.812 184.146 114.285 184.353 114.124 184.421C113.597 184.644 112.557 185.032 111.839 185.27C111.452 185.402 110.9 185.595 110.61 185.7C110.319 185.81 109.843 185.945 109.556 186.009C109.265 186.07 108.71 186.202 108.324 186.3C107.938 186.398 107.304 186.556 106.918 186.651C106.531 186.745 103.764 186.885 100.768 186.956C95.0209 187.1 91.6444 187.303 90.8665 187.564C90.6072 187.647 90.1394 187.718 89.8209 187.722C89.5052 187.726 88.7921 187.828 88.2397 187.952C86.7037 188.299 85.5199 188.544 85.0662 188.612C84.8407 188.646 84.2601 188.774 83.7781 188.895C83.2934 189.02 82.3717 189.235 81.7263 189.374C81.0809 189.514 80.3171 189.691 80.0268 189.763C79.7365 189.838 78.9727 190.012 78.3301 190.151C77.6847 190.291 76.7602 190.506 76.2754 190.634C75.7907 190.759 75.1847 190.861 74.9282 190.861C74.6718 190.861 74.2772 190.936 74.0517 191.026C73.8262 191.117 73.2456 191.253 72.7637 191.332C71.5743 191.524 70.2609 191.781 69.483 191.97C68.5867 192.192 65.8416 192.305 65.5569 192.132ZM271.309 159.615C271.261 159.461 271.252 159.291 271.292 159.238C271.41 159.08 271.506 159.302 271.452 159.612C271.405 159.887 271.396 159.887 271.311 159.615H271.309ZM270.962 158.525C270.911 158.288 270.83 158.095 270.779 158.095C270.728 158.095 270.627 157.903 270.556 157.665C270.486 157.428 270.331 157.02 270.212 156.764C270.094 156.503 269.823 155.87 269.609 155.353C269.395 154.836 268.781 153.44 268.242 152.252C267.704 151.068 267.264 150.057 267.264 150.011C267.264 149.966 267.166 149.74 267.042 149.506C266.92 149.272 266.371 148.163 265.821 147.043C264.939 145.247 263.978 143.591 262.769 141.792C261.543 139.97 254.646 127.601 253.065 124.387C252.042 122.312 251.213 120.509 251.213 120.362C251.213 120.309 251.081 120.034 250.92 119.751C250.757 119.468 250.627 119.189 250.627 119.128C250.627 119.068 250.387 118.498 250.1 117.857C249.81 117.22 249.573 116.665 249.573 116.627C249.573 116.59 249.291 115.941 248.95 115.183C248.606 114.424 248.29 113.7 248.245 113.572C248.121 113.214 246.757 110.207 246.264 109.204C246.151 108.977 246.005 108.649 245.94 108.476C245.872 108.302 245.714 107.951 245.588 107.691C245.461 107.435 245.309 107.08 245.252 106.906C245.193 106.737 244.953 106.216 244.722 105.756C244.488 105.296 244.3 104.881 244.3 104.835C244.3 104.79 244.119 104.356 243.899 103.87C243.471 102.919 243.285 102.478 242.603 100.795C242.358 100.192 242.034 99.396 241.881 99.0301C241.168 97.3175 241.109 97.1666 239.114 92.093C238.327 90.09 237.888 89.0187 237.583 88.3698C237.434 88.0454 237.273 87.6493 237.228 87.4871C237.144 87.1778 235.038 82.8662 234.748 82.4098C234.652 82.2589 234.458 81.9156 234.311 81.6478C233.928 80.9311 232.549 78.547 232.468 78.4527C232.428 78.4112 232.189 78.0227 231.932 77.5927C231.679 77.1589 231.442 76.7703 231.408 76.7288C231.374 76.6873 230.926 75.9819 230.41 75.1634C229.897 74.3448 229.258 73.3565 228.993 72.9679C228.725 72.5794 228.356 72.0136 228.172 71.7118C227.989 71.41 227.809 71.1271 227.772 71.0856C227.736 71.0403 226.972 69.9125 226.076 68.5771C224.091 65.6197 223.635 64.952 222.493 63.3337C222.003 62.6397 221.056 61.259 220.391 60.2669C219.726 59.2748 219.151 58.4299 219.114 58.3846C219.077 58.3431 218.705 57.7773 218.288 57.1322C217.868 56.4872 217.499 55.9214 217.468 55.8761C216.873 55.0839 213.953 50.38 212.891 48.509C211.735 46.4682 210.056 43.2958 209.672 42.4282C209.492 42.017 208.866 40.7609 208.798 40.6704C208.765 40.6289 208.556 40.2403 208.336 39.8065C206.028 35.3063 203.322 31.304 200.611 28.3843C199.436 27.1168 194.563 22.677 188.635 17.4713C187.705 16.6565 186.919 15.9474 186.885 15.9021C186.854 15.8568 186.603 15.6229 186.33 15.3853C186.057 15.1477 185.831 14.8496 185.831 14.7176C185.831 14.4762 186.011 14.563 186.651 15.1137C188.534 16.7357 192.905 19.7611 195.146 20.9946C195.727 21.3152 196.307 21.6396 196.434 21.715C196.848 21.9602 198.165 22.5977 199.469 23.1824C200.166 23.4918 200.887 23.8539 201.07 23.9784C201.254 24.1066 201.527 24.2085 201.679 24.2085C201.831 24.2085 202.003 24.2764 202.065 24.3594C202.127 24.4386 202.465 24.5782 202.821 24.6611C203.176 24.7479 203.782 24.929 204.168 25.0648C204.839 25.3024 206.02 25.6381 207.155 25.9173C207.753 26.0644 208.573 26.3285 209.452 26.6529C209.779 26.7736 210.143 26.8754 210.261 26.8754C210.38 26.8754 210.743 26.9735 211.07 27.098C211.4 27.2187 212.062 27.4337 212.547 27.577C213.029 27.7166 213.61 27.8939 213.835 27.9694C214.061 28.0448 214.613 28.2259 215.064 28.3692C215.515 28.5126 216.149 28.7238 216.47 28.8407C216.794 28.9539 217.4 29.1651 217.818 29.3123C218.237 29.4556 218.764 29.6631 218.99 29.7725C219.215 29.8819 219.692 30.0893 220.044 30.2365C220.399 30.3873 220.794 30.5684 220.923 30.6438C221.053 30.7155 221.634 31.0362 222.211 31.3493C223.516 32.0509 225.726 33.4919 226.665 34.2463C227.051 34.5556 227.448 34.8612 227.544 34.9215C227.64 34.9819 227.86 35.1516 228.029 35.3025C228.198 35.4534 228.778 35.9476 229.317 36.404C230.371 37.298 231.676 38.4976 232.053 38.9238C232.183 39.0672 232.631 39.5312 233.051 39.9574C238.33 45.3064 247.467 58.5355 252.329 67.8717C252.777 68.7318 253.197 69.5579 253.262 69.705C253.327 69.8483 253.744 70.765 254.187 71.7382C255.091 73.7148 256.582 77.5625 257.188 79.4712C257.408 80.1615 257.631 80.8066 257.684 80.9084C257.738 81.0065 257.831 81.2894 257.887 81.5346C257.944 81.7798 258.101 82.3683 258.24 82.8436C258.843 84.9334 259.567 88.2755 259.888 90.4483C259.939 90.7916 260.041 91.3914 260.111 91.7799C260.26 92.5947 260.537 94.2733 260.649 95.073C260.692 95.3748 260.802 96.1142 260.892 96.7177C260.982 97.3213 261.109 98.2719 261.174 98.8339C261.238 99.396 261.343 100.056 261.408 100.309C261.47 100.558 261.523 100.995 261.523 101.278C261.523 101.561 261.608 102.308 261.712 102.938C261.875 103.923 261.901 105.213 261.887 112.003C261.873 118.193 261.906 120.347 262.044 121.878C262.143 122.957 262.222 124.217 262.222 124.681C262.228 126.111 262.907 130.649 263.569 133.64C263.674 134.112 263.803 134.711 263.86 134.972C264.031 135.756 264.497 137.495 264.756 138.306C264.846 138.589 264.919 138.91 264.919 139.019C264.919 139.227 265.559 141.316 266.049 142.705C266.21 143.165 266.864 145.183 267.501 147.19C268.135 149.193 268.797 151.249 268.969 151.762C269.141 152.271 269.412 153.074 269.573 153.55C269.73 154.021 269.981 154.764 270.131 155.194C270.28 155.624 270.517 156.368 270.66 156.843C270.804 157.314 270.973 157.854 271.038 158.035C271.1 158.22 271.131 158.499 271.103 158.661C271.061 158.902 271.035 158.876 270.962 158.525Z" fill="url(#paint0_linear_31_360)"/>
<defs>
<linearGradient id="paint0_linear_31_360" x1="200.418" y1="0" x2="200.418" y2="461.913" gradientUnits="userSpaceOnUse">
<stop stop-color="#13152B"/>
<stop offset="1" stop-color="#13152B" stop-opacity="0"/>
</linearGradient>
</defs>
</svg>
