<svg width="37" height="36" viewBox="0 0 37 36" fill="none" xmlns="http://www.w3.org/2000/svg">
<path d="M1 9C1 4.58172 4.58172 1 9 1H36V35H9C4.58172 35 1 31.4183 1 27V9Z" fill="#13152B"/>
<path d="M1 9C1 4.58172 4.58172 1 9 1H36V35H9C4.58172 35 1 31.4183 1 27V9Z" stroke="#13152B"/>
<path d="M32.5 12C32.5 13.0609 32.0786 14.0783 31.3284 14.8284C30.5783 15.5786 29.5609 16 28.5 16C27.8473 16.001 27.2046 15.8395 26.63 15.53L20.85 21.83C21.2712 22.4756 21.497 23.2291 21.5 24C21.5 25.0609 21.0786 26.0783 20.3284 26.8284C19.5783 27.5786 18.5609 28 17.5 28C16.4391 28 15.4217 27.5786 14.6716 26.8284C13.9214 26.0783 13.5 25.0609 13.5 24C13.4987 23.455 13.6147 22.9162 13.84 22.42L10.94 20.17C10.2427 20.7124 9.38338 21.0047 8.5 21C7.70888 21 6.93552 20.7654 6.27772 20.3259C5.61992 19.8864 5.10723 19.2616 4.80448 18.5307C4.50173 17.7998 4.42252 16.9956 4.57686 16.2196C4.7312 15.4437 5.11216 14.731 5.67157 14.1716C6.23098 13.6122 6.94372 13.2312 7.71964 13.0769C8.49556 12.9225 9.29983 13.0017 10.0307 13.3045C10.7616 13.6072 11.3864 14.1199 11.8259 14.7777C12.2654 15.4355 12.5 16.2089 12.5 17C12.4985 17.5436 12.3862 18.0812 12.17 18.58L15.06 20.83C15.6693 20.3612 16.4009 20.0779 17.167 20.014C17.9332 19.9502 18.7015 20.1085 19.38 20.47L25.15 14.17C24.7288 13.5244 24.503 12.7709 24.5 12C24.5 10.9391 24.9214 9.92172 25.6716 9.17157C26.4217 8.42143 27.4391 8 28.5 8C29.5609 8 30.5783 8.42143 31.3284 9.17157C32.0786 9.92172 32.5 10.9391 32.5 12Z" fill="#FCFCFC"/>
</svg>
