<svg width="37" height="36" viewBox="0 0 37 36" fill="none" xmlns="http://www.w3.org/2000/svg">
<path d="M1 1H28C32.4183 1 36 4.58172 36 9V27C36 31.4183 32.4183 35 28 35H1V1Z" fill="white"/>
<path d="M1 1H28C32.4183 1 36 4.58172 36 9V27C36 31.4183 32.4183 35 28 35H1V1Z" stroke="#F1F1FA"/>
<g clip-path="url(#clip0_1199_2724)">
<g filter="url(#filter0_d_1199_2724)">
<path d="M30.5 17H19.5V6C22.3412 6.22837 25.0083 7.46063 27.0239 9.47614C29.0394 11.4917 30.2716 14.1588 30.5 17Z" fill="#A9A0EA" fill-opacity="0.2"/>
<path d="M30.5 19C30.301 21.2756 29.4565 23.4471 28.066 25.2594C26.6754 27.0716 24.7965 28.4493 22.65 29.2306C20.5035 30.0119 18.1786 30.1643 15.9484 29.6699C13.7183 29.1755 11.6756 28.0549 10.0604 26.4396C8.44513 24.8244 7.32448 22.7817 6.83008 20.5516C6.33568 18.3214 6.48808 15.9965 7.26937 13.85C8.05066 11.7035 9.42838 9.82457 11.2406 8.43401C13.0529 7.04346 15.2244 6.19905 17.5 6V18C17.5 18.2652 17.6054 18.5196 17.7929 18.7071C17.9804 18.8946 18.2348 19 18.5 19H30.5Z" fill="#A9A0EA" fill-opacity="0.2"/>
</g>
</g>
<defs>
<filter id="filter0_d_1199_2724" x="2.54564" y="6" width="31.9544" height="31.9546" filterUnits="userSpaceOnUse" color-interpolation-filters="sRGB">
<feFlood flood-opacity="0" result="BackgroundImageFix"/>
<feColorMatrix in="SourceAlpha" type="matrix" values="0 0 0 0 0 0 0 0 0 0 0 0 0 0 0 0 0 0 127 0" result="hardAlpha"/>
<feOffset dy="4"/>
<feGaussianBlur stdDeviation="2"/>
<feComposite in2="hardAlpha" operator="out"/>
<feColorMatrix type="matrix" values="0 0 0 0 0 0 0 0 0 0 0 0 0 0 0 0 0 0 0.25 0"/>
<feBlend mode="normal" in2="BackgroundImageFix" result="effect1_dropShadow_1199_2724"/>
<feBlend mode="normal" in="SourceGraphic" in2="effect1_dropShadow_1199_2724" result="shape"/>
</filter>
<clipPath id="clip0_1199_2724">
<rect width="32" height="32" fill="white" transform="translate(2.5 2)"/>
</clipPath>
</defs>
</svg>
