<svg width="24" height="24" viewBox="0 0 24 24" fill="none" xmlns="http://www.w3.org/2000/svg">
<g style="mix-blend-mode:plus-darker" filter="url(#filter0_i_31_878)">
<path d="M12.1601 10.87C12.0601 10.86 11.9401 10.86 11.8301 10.87C9.45006 10.79 7.56006 8.84 7.56006 6.44C7.56006 3.99 9.54006 2 12.0001 2C14.4501 2 16.4401 3.99 16.4401 6.44C16.4301 8.84 14.5401 10.79 12.1601 10.87Z" stroke="#292D32" stroke-width="1.5" stroke-linecap="round" stroke-linejoin="round"/>
<path d="M7.16021 14.56C4.74021 16.18 4.74021 18.82 7.16021 20.43C9.91021 22.27 14.4202 22.27 17.1702 20.43C19.5902 18.81 19.5902 16.17 17.1702 14.56C14.4302 12.73 9.92021 12.73 7.16021 14.56Z" stroke="#292D32" stroke-width="1.5" stroke-linecap="round" stroke-linejoin="round"/>
</g>
<defs>
<filter id="filter0_i_31_878" x="0" y="0" width="24" height="24" filterUnits="userSpaceOnUse" color-interpolation-filters="sRGB">
<feFlood flood-opacity="0" result="BackgroundImageFix"/>
<feBlend mode="normal" in="SourceGraphic" in2="BackgroundImageFix" result="shape"/>
<feColorMatrix in="SourceAlpha" type="matrix" values="0 0 0 0 0 0 0 0 0 0 0 0 0 0 0 0 0 0 127 0" result="hardAlpha"/>
<feOffset/>
<feGaussianBlur stdDeviation="0.5"/>
<feComposite in2="hardAlpha" operator="arithmetic" k2="-1" k3="1"/>
<feColorMatrix type="matrix" values="0 0 0 0 0 0 0 0 0 0 0 0 0 0 0 0 0 0 0.25 0"/>
<feBlend mode="normal" in2="shape" result="effect1_innerShadow_31_878"/>
</filter>
</defs>
</svg>
